SplineFontDB: 3.2
FontName: honchokomono-bold-italic
FullName: honchokomono greater
FamilyName: honchokomono-italic
Weight: bold
Copyright: Copyright (c) 2024, honchokomodo
UComments: "2024-6-9: Created with FontForge (http://fontforge.org)"
Version: 001.000
ItalicAngle: -12
UnderlinePosition: 0
UnderlineWidth: 0
Ascent: 800
Descent: 200
InvalidEm: 0
LayerCount: 2
Layer: 0 0 "Back" 1
Layer: 1 0 "Fore" 0
XUID: [1021 669 1385941162 1060273]
FSType: 0
OS2Version: 4
OS2_WeightWidthSlopeOnly: 0
OS2_UseTypoMetrics: 1
CreationTime: 1717993120
ModificationTime: 1734655508
PfmFamily: 49
TTFWeight: 700
TTFWidth: 5
LineGap: 68
VLineGap: 0
OS2TypoAscent: 977
OS2TypoAOffset: 0
OS2TypoDescent: -273
OS2TypoDOffset: 0
OS2TypoLinegap: 0
OS2WinAscent: 977
OS2WinAOffset: 0
OS2WinDescent: 273
OS2WinDOffset: 0
HheadAscent: 977
HheadAOffset: 0
HheadDescent: -205
HheadDOffset: 0
OS2CapHeight: 735
OS2XHeight: 530
OS2Vendor: 'PfEd'
Lookup: 1 0 0 "rightarrowhead" { "rightarrowhead-1"  } ['aalt' ('DFLT' <'dflt' > 'latn' <'dflt' > ) ]
Lookup: 1 0 0 "leftarrowhead" { "leftarrowhead-1"  } ['aalt' ('DFLT' <'dflt' > 'latn' <'dflt' > ) ]
Lookup: 1 0 0 "longequal" { "longequal-1"  } ['aalt' ('DFLT' <'dflt' > 'latn' <'dflt' > ) ]
Lookup: 1 0 0 "rightequal" { "rightequal-1"  } ['aalt' ('DFLT' <'dflt' > 'latn' <'dflt' > ) ]
Lookup: 1 0 0 "leftequal" { "leftequal-1"  } ['aalt' ('DFLT' <'dflt' > 'latn' <'dflt' > ) ]
Lookup: 1 0 0 "longhyphen" { "longhyphen-1"  } ['aalt' ('DFLT' <'dflt' > 'latn' <'dflt' > ) ]
Lookup: 1 0 0 "righthyphen" { "righthyphen-1"  } ['aalt' ('DFLT' <'dflt' > 'latn' <'dflt' > ) ]
Lookup: 1 0 0 "lefthyphen" { "lefthyphen-1"  } ['aalt' ('DFLT' <'dflt' > 'latn' <'dflt' > ) ]
Lookup: 6 0 0 "caltrules" { "rightarrowhead"  "leftarrowhead"  "longequal"  "rightequal"  "leftequal"  "longhyphen"  "righthyphen"  "lefthyphen"  } ['calt' ('DFLT' <'dflt' > 'latn' <'dflt' > ) ]
Lookup: 4 0 1 "ligatures" { "ligatures-1"  } ['liga' ('DFLT' <'dflt' > 'latn' <'dflt' > ) ]
MarkAttachClasses: 1

StartChar: exclam
Encoding: 33 33 1
Width: 500
Flags: HW
LayerCount: 2
Fore
SplineSet
250.016601562 272.822265625 m 0
 249.163433753 268.696075251 248.754992386 264.596903552 248.754992386 260.569538523 c 0
 248.754992386 228.294352954 274.986619366 200.630859375 308.774414062 200.630859375 c 0
 337.712890625 200.630859375 361.893554688 221.161132812 367.532226562 248.439453125 c 0
 389.247070312 353.46875 446.436523438 538.74609375 470.860351562 669.90234375 c 0
 471.556767146 673.64182922 471.891403127 677.352912289 471.891403127 681.002945806 c 0
 471.891403127 713.370611414 445.576505313 740.9375 411.875 740.9375 c 0
 382.529296875 740.9375 358.076171875 719.82421875 352.889648438 691.97265625 c 0
 330.284179688 570.579101562 271.995117188 379.131835938 250.016601562 272.822265625 c 0
260.834960938 -25.478515625 m 0
 310.162109375 -25.478515625 343.474609375 18.0947265625 343.474609375 58.98828125 c 0
 343.474609375 103.141601562 307.627929688 138.98828125 263.474609375 138.98828125 c 0
 233.216796875 138.98828125 206.860351562 122.154296875 193.267578125 97.3486328125 c 0
 184.678323976 83.8337756019 180.776224468 69.2109968388 180.776224468 54.9276321292 c 0
 180.776224468 13.2818417788 213.948824022 -25.478515625 260.834960938 -25.478515625 c 0
EndSplineSet
EndChar

StartChar: quotedbl
Encoding: 34 34 2
Width: 500
Flags: HW
LayerCount: 2
Fore
SplineSet
545.026367188 689.4375 m 0
 546.900927908 695.432225465 547.783104409 701.452181037 547.783104409 707.343660629 c 0
 547.783104409 739.224800978 521.950129401 767.34375 487.748046875 767.34375 c 0
 460.869140625 767.34375 438.09375 749.630859375 430.469726562 725.25 c 0
 429.277077462 721.436254136 386.721129213 565.241022463 386.11328125 563.6796875 c 0
 383.311804584 556.482495857 382.007202048 549.16302585 382.007202048 542.010622257 c 0
 382.007202048 510.340699931 407.585296668 481.946289062 442.049804688 481.946289062 c 0
 467.500976562 481.946289062 489.272460938 497.828125 497.986328125 520.212890625 c 0
 509.127929688 548.834960938 533.888671875 653.823242188 545.026367188 689.4375 c 0
401.126953125 682.791015625 m 0
 403.002006462 688.78649448 403.88440528 694.807184739 403.88440528 700.699337785 c 0
 403.88440528 732.580335153 378.051058191 760.698242188 343.849609375 760.698242188 c 0
 316.970703125 760.698242188 294.196289062 742.985351562 286.572265625 718.60546875 c 0
 285.369526648 714.759962731 242.821717026 558.596496031 242.213867188 557.03515625 c 0
 239.412390522 549.837964607 238.107787985 542.5184946 238.107787985 535.366091007 c 0
 238.107787985 503.696168681 263.685882606 475.301757812 298.150390625 475.301757812 c 0
 323.6015625 475.301757812 345.373046875 491.18359375 354.086914062 513.568359375 c 0
 365.22265625 542.17578125 390.001953125 647.213867188 401.126953125 682.791015625 c 0
EndSplineSet
EndChar

StartChar: numbersign
Encoding: 35 35 3
Width: 500
Flags: HW
LayerCount: 2
Fore
SplineSet
375.157016996 546.157214334 m 1
 409.661127075 643.873600983 409.661127075 643.873600983 419.395507812 671.208984375 c 0
 421.778726985 677.901696869 422.893419635 684.667848691 422.893419635 691.283182391 c 0
 422.893419635 723.038369091 397.208337123 751.318359375 362.853515625 751.318359375 c 0
 336.791015625 751.318359375 314.586914062 734.665039062 306.311523438 711.427734375 c 0
 293.785917832 676.253422464 247.524738282 545.216813104 246.930517083 543.53806185 c 1
 209.77743092 543.847273212 184.125 545.4921875 184.125 545.4921875 c 1
 151.009765625 545.4921875 124.125 518.607421875 124.125 485.4921875 c 0
 124.125 453.625 149.022460938 427.526367188 180.41015625 425.60546875 c 0
 188.331726096 425.120569548 196.144759373 424.685820818 204.45729515 424.33155023 c 1
 191.000860221 386.881428271 177.146312277 348.684131817 163.016445712 310.303204634 c 1
 152.628984185 310.105751384 141.739170461 309.89878826 130.313476562 309.681640625 c 0
 97.7333984375 309.0625 71.4736328125 282.419921875 71.4736328125 249.692382812 c 0
 71.4736328125 221.063524771 91.5638923544 197.106836682 118.380205701 191.12748489 c 1
 100.944068498 145.459089699 83.2956614984 100.363421728 65.6455078125 56.806640625 c 0
 62.6342552459 49.3754999621 61.2347779157 41.7946547863 61.2347779157 34.3883837308 c 0
 61.2347779157 2.75679517613 86.7623004961 -25.6904296875 121.278320312 -25.6904296875 c 0
 146.439453125 -25.6904296875 168.00390625 -10.1689453125 176.911132812 11.8125 c 0
 200.542175126 70.1286781928 224.065172581 130.86814823 247.025527118 191.879947865 c 1
 260.585415099 192.138773944 272.887943016 192.374173768 284.119528428 192.589898819 c 1
 263.9086988 140.493195888 247.83040696 99.0487817295 232.578125 58.8583984375 c 0
 229.902248178 51.8070727733 228.654562165 44.6489464954 228.654562165 37.6531833925 c 0
 228.654562165 5.95916267254 254.263395437 -22.40234375 288.696289062 -22.40234375 c 0
 314.326171875 -22.40234375 336.224609375 -6.296875 344.814453125 16.3369140625 c 0
 355.607333722 44.7775188598 355.607333722 44.7775188598 413.867943984 195.225613078 c 1
 427.020684565 195.523595007 440.727096186 195.845120835 458.153320312 196.25390625 c 0
 490.607421875 197.015625 516.721679688 223.600585938 516.721679688 256.237304688 c 0
 516.721679688 288.180933577 491.711232654 314.3017585 460.262659551 316.134769334 c 1
 474.737555689 354.36021886 489.128385028 392.988705953 503.029024757 431.392203375 c 1
 512.584407904 431.778907587 522.154456851 432.153554772 531.727539062 432.508789062 c 0
 563.796875 433.698242188 589.467773438 460.108398438 589.467773438 492.466796875 c 0
 589.467773438 520.353443108 570.402494526 543.821764624 544.606272779 550.537425347 c 1
 559.052844906 593.826360278 572.262862355 635.923192691 583.598632812 675.841796875 c 0
 585.163395426 681.352114556 585.902976294 686.864898507 585.902976294 692.264427064 c 0
 585.902976294 724.239634187 559.967112531 752.243164062 525.872070312 752.243164062 c 0
 498.443359375 752.243164062 475.288085938 733.797851562 468.145507812 708.64453125 c 0
 453.974506325 658.742721108 436.37994369 604.304325882 416.851685081 547.795121936 c 1
 403.34423027 547.23360161 389.314432429 546.675893088 375.157016996 546.157214334 c 1
332.101247902 424.748674412 m 1
 344.610181153 425.115737766 358.252736365 425.563715877 373.205550539 426.101419013 c 1
 359.303471986 388.490804382 345.032372593 350.741098488 330.794260779 313.517638627 c 1
 319.429004256 313.294377733 306.583885966 313.045034177 291.74438646 312.759254982 c 1
 305.575012862 350.721152298 319.064865732 388.228703597 332.101247902 424.748674412 c 1
EndSplineSet
EndChar

StartChar: dollar
Encoding: 36 36 4
Width: 500
Flags: HW
LayerCount: 2
Fore
SplineSet
583.215820312 587.715820312 m 0
 583.215820312 606.901798259 579.238330208 632.331678448 511.461452968 663.763141545 c 1
 515.015542276 673.170231156 518.409280649 682.380304538 521.62890625 691.377929688 c 0
 524.033422266 698.097528736 525.1578128 704.892922957 525.1578128 711.536670609 c 0
 525.1578128 743.28661499 499.478886457 771.573242187 465.118164062 771.573242188 c 0
 439.086914062 771.573242188 416.90625 754.9609375 408.607421875 731.768554688 c 0
 403.785806159 718.294140969 398.380595839 703.94742388 392.471462212 688.844479577 c 1
 273.005024108 686.210728412 170.6328125 603.438084247 170.6328125 505.940429688 c 0
 170.6328125 476.796565751 180.853526764 418.003813358 254.522773654 372.781750947 c 1
 230.914251792 320.825836805 207.018977485 268.302931802 184.240153622 217.257415821 c 1
 180.042452213 220.340027314 175.972243652 223.75521371 172.053710938 227.522460938 c 0
 160.018773201 239.093076825 145.416918651 244.268644155 131.081963657 244.268644155 c 0
 100.162816897 244.268644155 70.4853515625 220.190650447 70.4853515625 184.271484375 c 0
 70.4853515625 173.199090207 70.4853515625 143.291185062 135.574086743 106.019429235 c 1
 126.939517483 85.7570685354 118.696005376 66.0375188962 110.951171875 47.017578125 c 0
 107.913819335 39.5581511424 106.502562819 31.9454978545 106.502562819 24.5083263492 c 0
 106.502562819 -7.11924289121 132.024991388 -35.5732421875 166.546875 -35.5732421875 c 0
 191.671875 -35.5732421875 213.2109375 -20.095703125 222.142578125 1.8359375 c 0
 231.717725272 25.3510791723 241.77005374 49.3256711038 252.17269428 73.6174469048 c 1
 255.571185178 73.4941068476 258.970035606 73.4330207637 262.366960865 73.4330207637 c 0
 390.518798974 73.4330207637 515.930664062 160.373089787 515.930664062 271.545898438 c 0
 515.930664062 334.932575529 476.899924613 387.712819948 411.493634917 428.145159595 c 1
 430.795789726 470.960409018 449.28791666 512.628058589 466.256302945 552.347777719 c 1
 473.639669796 548.584421837 481.04325618 544.107597348 488.419921875 538.84375 c 0
 499.196397889 531.153499821 511.149814671 527.678263745 522.835533815 527.678263745 c 0
 553.976192663 527.678263745 583.215820312 552.357346655 583.215820312 587.715820312 c 0
304.768401479 483.854121346 m 1
 296.700617387 490.439731694 290.6328125 498.024168307 290.6328125 505.940429688 c 0
 290.6328125 520.969028539 308.44593709 541.3102805 336.257980286 554.771454065 c 1
 326.1709708 531.763826587 315.621664378 508.047818245 304.768401479 483.854121346 c 1
307.717652576 199.729030988 m 1
 325.420655917 239.083263082 343.457644096 278.623959113 361.331305726 317.793452845 c 1
 392.305274191 295.483706591 395.930664062 277.607968444 395.930664062 271.545898438 c 1
 395.930664062 244.996315891 356.657561805 213.105407805 307.717652576 199.729030988 c 1
EndSplineSet
EndChar

StartChar: percent
Encoding: 37 37 5
Width: 500
Flags: HW
LayerCount: 2
Fore
SplineSet
524.7890625 261.389648438 m 0
 524.7890625 360.268554688 464.501953125 374.881835938 439.810546875 374.881835938 c 0
 428.956260689 374.881835938 418.705963395 373.233482815 409.054119857 370.185573804 c 1
 495.615711273 501.938889575 541.332223692 571.522893268 582.68359375 636.930664062 c 0
 589.072303882 647.036197811 591.975422002 657.959044974 591.975422002 668.628087172 c 0
 591.975422002 699.866830911 567.086793708 728.9296875 531.930664062 728.9296875 c 0
 510.576171875 728.9296875 491.8125 717.75 481.177734375 700.928710938 c 0
 454.196195899 658.24988085 420.965264886 607.115694684 384.244836615 551.038746432 c 1
 388.106602648 569.703119324 389.915899633 601.138755716 390.111328125 602.865234375 c 1
 390.111328125 688.107421875 334.936523438 714.461914062 295.60546875 714.461914062 c 0
 214.558112272 714.461914062 166.593145603 589.837131958 154.665039062 554.64453125 c 0
 142.699993049 519.344378252 137.712785627 490.029081655 137.712785627 465.818899684 c 0
 137.712785627 385.390719334 192.752707654 361.303710938 229.849609375 361.303710938 c 0
 241.757120631 361.303710938 253.129513918 363.584347054 263.921936853 367.745716525 c 1
 200.556356636 271.055550078 135.429676853 170.858228686 78.3193359375 79.4150390625 c 0
 72.0519780732 69.3801579452 69.2023426559 58.558673518 69.2023426559 47.9892536594 c 0
 69.2023426559 16.7406397098 94.1108966922 -12.3046875 129.247070312 -12.3046875 c 0
 150.719726562 -12.3046875 169.572265625 -1.0009765625 180.174804688 15.9755859375 c 0
 215.522686773 72.5730296194 254.194426312 132.896081649 293.728667724 193.832003146 c 1
 290.719059821 176.387964691 289.2265625 159.69732802 289.2265625 144.866210938 c 0
 289.2265625 49.283203125 349.201171875 33.7265625 374.965820312 33.7265625 c 0
 476.37109375 33.7265625 524.7890625 171.821289062 524.7890625 261.389648438 c 0
EndSplineSet
EndChar

StartChar: ampersand
Encoding: 38 38 6
Width: 500
Flags: HW
LayerCount: 2
Fore
SplineSet
319 182.942382812 m 1
 302.484375 166.54296875 253.703125 121.7890625 213.184570312 121.7890625 c 0
 207.954101562 121.7890625 196.006835938 121.7890625 191.796875 134.466796875 c 0
 188.137491162 145.487652393 185.826082632 157.291410552 185.826082632 170.138406549 c 0
 185.826082632 204.003595034 201.887376494 245.117934534 251.657226562 298.25 c 1
 268.690429688 258.8359375 291.124023438 219.931640625 319 182.942382812 c 1
451.5625 314.76953125 m 0
 419.184873384 314.76953125 404.885860517 292.944722137 397.103515625 281.06640625 c 1
 374.763671875 315.579101562 358.298828125 351.176757812 347.412109375 385.70703125 c 1
 475.969726562 495.368164062 523.890625 569.647460938 523.890625 629.122070312 c 0
 523.890625 680.291015625 486.046875 728.837890625 410.697265625 728.837890625 c 0
 400.998600102 728.837890625 323.914821873 727.092376287 275.150390625 672.696289062 c 0
 229.170042184 621.40733899 211.182582905 552.927010871 211.182582905 484.208199495 c 0
 211.182582905 465.992028506 212.446541171 447.759099569 214.788085938 429.825195312 c 1
 158.089555879 379.010375214 65.7051900133 287.549777066 65.7051900133 170.237273524 c 0
 65.7051900133 146.714466537 69.4195856973 122.152260678 77.880859375 96.669921875 c 0
 82.6317703331 82.361470733 113.796695545 1.7890625 213.184570312 1.7890625 c 0
 284.041015625 1.7890625 349.921875 45.3134765625 400.619140625 94.76953125 c 1
 419.00390625 78.4892578125 431.015625 67.853515625 454.193359375 67.853515625 c 0
 487.30859375 67.853515625 514.193359375 94.73828125 514.193359375 127.853515625 c 0
 514.193359375 154.010923653 505.948734071 161.418816624 477.915039062 186.607421875 c 1
 485.962890625 197.9453125 494.012695312 209.860351562 502.060546875 222.372070312 c 0
 508.625607812 232.577465954 511.606384396 243.645661119 511.606384396 254.457676394 c 0
 511.606384396 285.681882468 486.746509794 314.76953125 451.5625 314.76953125 c 0
393.029296875 606.35546875 m 1
 388.629882812 599.176757812 374.52734375 577.275390625 338.060546875 540.193359375 c 1
 353.107138835 596.553904128 379.101327027 602.935916721 393.029296875 606.35546875 c 1
EndSplineSet
EndChar

StartChar: quotesingle
Encoding: 39 39 7
Width: 500
Flags: HW
LayerCount: 2
Fore
SplineSet
461.126953125 682.791015625 m 0
 463.002006462 688.78649448 463.88440528 694.807184739 463.88440528 700.699337785 c 0
 463.88440528 732.580335153 438.051058191 760.698242188 403.849609375 760.698242188 c 0
 376.970703125 760.698242188 354.196289062 742.985351562 346.572265625 718.60546875 c 0
 345.369526648 714.759962731 302.821717026 558.596496031 302.213867188 557.03515625 c 0
 299.412390522 549.837964607 298.107787985 542.5184946 298.107787985 535.366091007 c 0
 298.107787985 503.696168681 323.685882606 475.301757812 358.150390625 475.301757812 c 0
 383.6015625 475.301757812 405.373046875 491.18359375 414.086914062 513.568359375 c 0
 425.22265625 542.17578125 450.001953125 647.213867188 461.126953125 682.791015625 c 0
EndSplineSet
EndChar

StartChar: parenleft
Encoding: 40 40 8
Width: 500
Flags: HW
LayerCount: 2
Fore
SplineSet
570.173828125 710.989257812 m 0
 570.173828125 745.212211695 542.888383354 772.345596267 501.482949283 772.345596267 c 0
 486.258284177 772.345596267 469.124578402 768.677127861 450.736328125 760.34375 c 0
 333.769429038 707.335968702 138.509858527 429.921626444 138.509858527 212.864397942 c 0
 138.509858527 163.965142192 148.419736831 118.129150643 171.3671875 78.6123046875 c 0
 201.905273438 26.0224609375 254.786132812 -12.4833984375 323.802734375 -30.958984375 c 0
 329.031370485 -32.3587841332 334.252614738 -33.0220844299 339.369313085 -33.0220844299 c 0
 371.401817482 -33.0220844299 399.336914062 -7.02573581449 399.336914062 27.0068359375 c 0
 399.336914062 54.75 380.465820312 78.12109375 354.87109375 84.97265625 c 0
 308.405273438 97.412109375 258.262695312 123.62109375 258.262695312 212.971679688 c 0
 258.262695312 372.761750627 416.396110681 605.727351837 496.337890625 649.063476562 c 1
 500.506835938 651.765625 l 1
 503.785929892 651.233543619 507.037665907 650.976717575 510.240535371 650.976717575 c 0
 542.719725256 650.976717575 570.173828125 677.38687322 570.173828125 710.989257812 c 0
EndSplineSet
EndChar

StartChar: parenright
Encoding: 41 41 9
Width: 500
Flags: HW
LayerCount: 2
Fore
SplineSet
367.569335938 774.469726562 m 0
 331.93791449 774.469726562 307.547771665 745.007249239 307.547771665 713.982293139 c 0
 307.547771665 700.976417295 311.833959505 687.695960134 321.375 676.196289062 c 0
 366.899414062 621.325195312 387.359375 555.954101562 387.359375 485.486328125 c 0
 387.359375 329.805664062 285.409179688 158.499023438 140.950195312 70.9814453125 c 0
 123.588867188 60.462890625 111.975585938 41.3896484375 111.975585938 19.6259765625 c 0
 111.975585938 -15.4622677855 140.976684065 -40.4199726502 172.250887326 -40.4199726502 c 0
 182.573653364 -40.4199726502 193.144069886 -37.7008781315 203.000976562 -31.7294921875 c 0
 303.307617188 29.0400390625 385.274414062 119.986328125 439.010742188 222.599609375 c 0
 482.017578125 304.72265625 507.359375 395.010742188 507.359375 485.486328125 c 0
 507.359375 579.932617188 478.959960938 674.163085938 413.763671875 752.743164062 c 0
 402.754882812 766.012695312 386.141601562 774.469726562 367.569335938 774.469726562 c 0
EndSplineSet
EndChar

StartChar: asterisk
Encoding: 42 42 10
Width: 500
Flags: HW
LayerCount: 2
Fore
SplineSet
254 503.734375 m 0
 229.950556762 503.734375 194.064077998 484.319255648 194.064077998 446.587646576 c 0
 194.064077998 426.48363686 204.251998922 401.179703515 231.846632214 370.842028315 c 1
 207.490847379 356.49435031 186.231792736 341.532273495 171.682617188 324.967773438 c 0
 154.94286651 305.909645215 148.063855979 286.953973164 148.063855979 270.113681931 c 0
 148.063855979 235.986599852 176.314287926 210.546875 208 210.546875 c 0
 218.045652336 210.546875 227.518144131 213.02108726 235.840690526 217.392856328 c 1
 234.223686002 211.841557518 233.458640942 206.262246411 233.458640942 200.783644729 c 0
 233.458640942 169.071910541 259.090939151 140.734375 293.5 140.734375 c 1
 319.262695312 140.734375 341.25390625 157.006835938 349.75 179.82421875 c 0
 358.289329196 202.760005656 365.223397482 223.400701878 371.266632796 243.556773402 c 1
 382.162917027 228.414394191 399.93835415 218.546875 420 218.546875 c 0
 454.824513702 218.546875 479.576923016 245.202392101 479.576923016 280.824550571 c 0
 479.576923016 303.046955921 469.943976575 328.758927679 447.114002592 353.665964606 c 1
 472.722436338 371.004495976 497.586805813 390.693987031 516.102539062 418.729492188 c 0
 522.941227743 429.084448291 526.042417911 440.374778283 526.042417911 451.405500974 c 0
 526.042417911 482.608600468 501.227323214 511.734375 466 511.734375 c 0
 452.093718692 511.734375 439.285905984 506.993320693 429.106474404 499.040551391 c 1
 430.810209398 506.896410579 431.5759477 513.992325896 431.5759477 520.400686166 c 0
 431.5759477 572.945214821 380.095592628 579.265625 372.090820312 579.265625 c 0
 343.37109375 579.265625 319.336914062 559.043945312 313.462890625 532.073242188 c 0
 309.338692672 513.134986847 305.601980444 495.673645358 302.175626529 479.487139047 c 1
 291.235992638 494.197471084 273.722958543 503.734374994 254 503.734375 c 0
EndSplineSet
EndChar

StartChar: plus
Encoding: 43 43 11
Width: 500
Flags: HW
LayerCount: 2
Fore
SplineSet
219.15625 416.14453125 m 0
 216.032026648 416.626586367 212.934334945 416.859622283 209.881630106 416.859622283 c 0
 177.362436953 416.859622283 149.948242188 390.415281004 149.948242188 356.84765625 c 0
 149.948242188 326.864257812 171.990234375 301.987304688 200.741210938 297.551757812 c 0
 215.900556232 295.212789576 233.796182403 294.006086976 254.589698021 293.694811157 c 1
 247.881039923 263.426113394 242.03674406 238.47856461 238.227539062 225.08203125 c 0
 236.65901414 219.565359901 235.917691579 214.045951567 235.917691579 208.639981624 c 0
 235.917691579 176.665898337 261.850895074 148.66015625 295.948242188 148.66015625 c 0
 323.37109375 148.66015625 346.521484375 167.096679688 353.669921875 192.239257812 c 0
 360.120299635 214.924896558 369.094599903 254.228769207 378.584519885 298.188695191 c 0
 379.275803147 298.233066102 441.591028571 302.509905646 447.708984375 302.685546875 c 0
 480.010742188 303.618164062 505.948242188 330.134765625 505.948242188 362.66015625 c 0
 505.948242188 395.799603774 479.034641646 422.660342471 445.958054114 422.660342471 c 0
 445.370103377 422.660342471 444.780205345 422.651855388 444.188476562 422.634765625 c 0
 434.337182532 422.350482111 421.307209075 421.387378201 404.142962044 420.186278576 c 1
 412.684302994 461.626637688 415.699745966 476.2567807 418.682617188 490.5390625 c 0
 419.552385429 494.703897461 419.968621607 498.841982149 419.968621607 502.907161811 c 0
 419.968621607 535.173982465 393.744998929 562.84765625 359.948242188 562.84765625 c 0
 331.051757812 562.84765625 306.899414062 542.375976562 301.21484375 515.15625 c 0
 301.003203038 514.142923923 282.490915783 424.669142791 280.223425194 413.787735951 c 1
 274.448004905 413.678055457 269.116402793 413.625550699 264.183069932 413.625550699 c 0
 243.069359733 413.625550699 229.250645417 414.587266893 219.15625 416.14453125 c 0
EndSplineSet
EndChar

StartChar: comma
Encoding: 44 44 12
Width: 500
Flags: HW
LayerCount: 2
Fore
SplineSet
119.606445312 -70.55078125 m 0
 119.606445312 -100.226848583 142.257118509 -130.601306417 181.696881948 -130.601306417 c 0
 193.727668075 -130.601306417 207.320689958 -127.77494338 222.309570312 -121.240234375 c 0
 280.069335938 -96.05859375 348.522460938 -15.30859375 363.950195312 111.25 c 0
 364.253098948 113.734825133 364.400480065 116.198622424 364.400480065 118.632369213 c 0
 364.400480065 151.311303201 337.828322269 178.572265625 304.393554688 178.572265625 c 0
 273.756835938 178.572265625 248.453125 155.561523438 244.836914062 125.89453125 c 0
 234.886647929 44.2709070026 194.41728781 -0.842695277538 175.409179688 -10.6953125 c 1
 144.249023438 -12.853515625 119.606445312 -38.8466796875 119.606445312 -70.55078125 c 0
EndSplineSet
EndChar

StartChar: hyphen
Encoding: 45 45 13
Width: 500
Flags: HW
LayerCount: 2
Fore
SplineSet
345.630859375 308.052734375 m 0
 408.025390625 308.052734375 454.358398438 305.780273438 455.208984375 305.780273438 c 0
 488.32421875 305.780273438 515.208984375 332.665039062 515.208984375 365.780273438 c 0
 515.208984375 397.797851562 490.076171875 423.991210938 458.479492188 425.692382812 c 0
 457.038307915 425.769972944 403.985092985 428.148917473 342.103252035 428.148917473 c 0
 288.714508752 428.148917473 228.754241953 426.378167429 189.697265625 419.831054688 c 0
 161.322265625 415.075195312 139.671875 390.375 139.671875 360.658203125 c 0
 139.671875 327.034703279 167.150693007 300.644927056 199.605297267 300.644927056 c 0
 202.908718755 300.644927056 206.26369124 300.918334951 209.646484375 301.485351562 c 0
 235.997070312 305.90234375 294.211914062 308.052734375 345.630859375 308.052734375 c 0
EndSplineSet
Substitution2: "longhyphen-1" longhyphen
Substitution2: "righthyphen-1" righthyphen
Substitution2: "lefthyphen-1" lefthyphen
EndChar

StartChar: period
Encoding: 46 46 14
Width: 500
Flags: HW
LayerCount: 2
Fore
SplineSet
260.834960938 -25.478515625 m 0
 310.162109375 -25.478515625 343.474609375 18.0947265625 343.474609375 58.98828125 c 0
 343.474609375 103.141601562 307.627929688 138.98828125 263.474609375 138.98828125 c 0
 233.216796875 138.98828125 206.860351562 122.154296875 193.267578125 97.3486328125 c 0
 184.678323976 83.8337756019 180.776224468 69.2109968388 180.776224468 54.9276321292 c 0
 180.776224468 13.2818417788 213.948824022 -25.478515625 260.834960938 -25.478515625 c 0
EndSplineSet
EndChar

StartChar: slash
Encoding: 47 47 15
Width: 500
Flags: HW
LayerCount: 2
Fore
SplineSet
68.9873046875 84.060546875 m 0
 62.3175863384 73.7972259209 59.2907241244 62.6435074775 59.2907241244 51.7472710284 c 0
 59.2907241244 20.5313795246 84.1329839206 -8.5712890625 119.333984375 -8.5712890625 c 0
 140.418945312 -8.5712890625 158.979492188 2.3291015625 169.680664062 18.796875 c 0
 301.782226562 222.076171875 515.135742188 535.845703125 590.5234375 640.5859375 c 0
 598.312330353 651.407711497 601.830877396 663.435910666 601.830877396 675.195633777 c 0
 601.830877396 706.329756732 577.168073933 735.58203125 541.793945312 735.58203125 c 0
 521.734375 735.58203125 503.9609375 725.716796875 493.064453125 710.578125 c 0
 415.125976562 602.29296875 202.604492188 289.673828125 68.9873046875 84.060546875 c 0
EndSplineSet
EndChar

StartChar: zero
Encoding: 48 48 16
Width: 500
Flags: HW
LayerCount: 2
Fore
SplineSet
435.931640625 767.676757812 m 0
 224.478182542 767.676757812 81.0791015625 395.601981217 81.0791015625 181.084960938 c 0
 81.0791015625 143.297851683 86.7984609971 110.862879543 96.7639679295 83.5464887608 c 1
 90.9567911272 72.0522423716 85.436036197 60.6615438371 80.240234375 49.390625 c 0
 76.4594615345 41.1893436526 74.7138506762 32.7226100625 74.7138506762 24.4550140401 c 0
 74.7138506762 -7.05740431525 100.074035036 -35.6767578125 134.760742188 -35.6767578125 c 0
 153.163423089 -35.6767578125 169.641692235 -27.374441255 180.651540094 -14.3138176722 c 1
 202.960289005 -25.3329740052 227.262441705 -30.6884765625 251.614257812 -30.6884765625 c 0
 481.794921875 -30.6884765625 580.30078125 368.702148438 580.30078125 562.892578125 c 0
 580.30078125 594.649644032 576.232021953 623.354710806 568.879768508 648.542051482 c 1
 573.922418905 661.061915608 578.497274442 673.413529881 582.548828125 685.57421875 c 0
 584.657426368 691.903213902 585.646820023 698.27804392 585.646820023 704.513750139 c 0
 585.646820023 736.33275203 559.885332684 764.529296875 525.609375 764.529296875 c 0
 512.914683919 764.529296875 501.135555467 760.578228175 491.435583305 753.83979189 c 1
 474.342201613 762.916212282 455.590966749 767.676757812 435.931640625 767.676757812 c 0
435.8671875 647.6875 m 1
 435.51171875 647.74609375 l 1
 435.51171875 647.74609375 435.533192515 647.758931327 435.586181884 647.758931327 c 0
 435.641579861 647.758931327 435.731423611 647.744900174 435.8671875 647.6875 c 1
210.790778192 277.756304784 m 1
 244.476466897 463.181539719 351.71217523 647.615666739 435.891601562 647.676757812 c 0
 435.980374975 647.637314904 436.345245813 647.351403326 436.924368008 646.788818617 c 0
 382.897313431 534.662610701 292.603350151 405.368231186 210.790778192 277.756304784 c 1
444.774878608 418.16790301 m 1
 411.75264446 245.933613839 334.140615668 89.3115234375 251.614257812 89.3115234375 c 0
 246.427852048 89.3115234375 241.769561449 90.1574119013 237.586116006 91.6936395271 c 1
 296.787254384 195.008068109 375.510919663 307.779361935 444.774878608 418.16790301 c 1
EndSplineSet
EndChar

StartChar: one
Encoding: 49 49 17
Width: 500
Flags: HW
LayerCount: 2
Fore
SplineSet
243.862304688 -23.544921875 m 0
 310.076171875 -23.544921875 405.900390625 -27.4599609375 407.538085938 -27.4599609375 c 0
 440.653320312 -27.4599609375 467.538085938 -0.5751953125 467.538085938 32.5400390625 c 0
 467.538085938 64.9287109375 441.8203125 91.357421875 409.708984375 92.5009765625 c 0
 380.951648256 93.5257159232 353.481975115 94.4502845841 327.433151361 95.1558465281 c 1
 389.805558048 303.452324944 417.46540991 488.277153364 480.727539062 698.889648438 c 0
 482.466336115 704.678555937 483.286123104 710.482066823 483.286123104 716.163605353 c 0
 483.286123104 748.083970979 457.40966547 776.154296875 423.252929688 776.154296875 c 0
 405.508789062 776.154296875 389.553710938 768.434570312 378.564453125 756.173828125 c 0
 332.287109375 704.541992188 286.474609375 666.743164062 243.607421875 631.481445312 c 0
 231.423828125 621.458984375 219.4765625 611.635742188 207.833007812 601.706054688 c 0
 193.278928946 589.294662453 186.787432281 572.919971232 186.787432281 556.776761522 c 0
 186.787432281 525.986370557 210.402841092 496.038085938 246.732421875 496.038085938 c 0
 267.889853183 496.038085938 269.841747187 497.646158596 312.334960938 532.654296875 c 1
 303.395507812 495.359375 294.952148438 458.592773438 286.571289062 422.118164062 c 0
 261.603378149 313.457836676 237.198054572 207.461251536 202.185210481 96.1627319811 c 1
 159.166282975 95.2074520716 123.41877167 92.3614869823 96.1650390625 86.5341796875 c 0
 69.0849609375 80.744140625 48.751953125 56.6572265625 48.751953125 27.859375 c 0
 48.751953125 -5.95783233812 76.4483870428 -32.1610683012 108.693768209 -32.1610683012 c 0
 112.849755299 -32.1610683012 117.081308009 -31.7257887377 121.338867188 -30.8154296875 c 0
 142.505859375 -26.2900390625 191.833984375 -23.544921875 243.862304688 -23.544921875 c 0
EndSplineSet
EndChar

StartChar: two
Encoding: 50 50 18
Width: 500
Flags: HW
LayerCount: 2
Fore
SplineSet
226.85546875 99.4326171875 m 1
 453.23362415 390.971143878 500.249517859 454.826266792 528.885742188 534.641601562 c 0
 540.279817406 566.399959884 545.432897616 595.453742347 545.432897616 621.472391851 c 0
 545.432897616 714.774995509 479.167787008 769.047851334 396.805003551 769.047851334 c 0
 358.019336072 769.047851334 315.663870886 757.012377755 274.977539062 731.349609375 c 0
 226.8203125 700.973632812 183.764648438 652.5703125 157.83203125 588.271484375 c 0
 154.845988948 580.868049292 153.457900716 573.318266585 153.457900716 565.942143044 c 0
 153.457900716 534.306465418 178.991673584 505.865234375 213.501953125 505.865234375 c 0
 238.697265625 505.865234375 260.287109375 521.428710938 269.171875 543.458984375 c 0
 300.040349314 619.994764355 362.472126107 649.115793391 397.794076239 649.115793391 c 0
 406.688652959 649.115793391 413.86418183 647.269214179 418.383789062 643.868164062 c 0
 422.578174173 640.711766387 425.554183788 633.160493794 425.554183788 621.236723224 c 0
 425.554183788 595.018756124 411.166027841 547.661010962 363.705078125 479.401367188 c 0
 318.961706038 415.051533927 318.961706038 415.051533927 52.9697265625 70.986328125 c 0
 44.3266036543 59.8064944086 40.4336459799 47.1523840247 40.4336459799 34.7713555605 c 0
 40.4336459799 3.69281712888 64.9630734052 -25.6650390625 100.463867188 -25.6650390625 c 0
 101.224609375 -25.6650390625 306.634765625 -16.5849609375 393.764648438 -16.5849609375 c 0
 407.803710938 -16.5849609375 417.166992188 -16.9111328125 417.403320312 -16.9111328125 c 0
 450.518554688 -16.9111328125 477.403320312 9.9736328125 477.403320312 43.0888671875 c 0
 477.403320312 75.4716796875 451.693359375 101.897460938 419.58984375 103.049804688 c 0
 412.59126844 103.30112051 403.758999695 103.412788085 393.58586301 103.412788085 c 0
 349.759990525 103.412788085 281.049132712 101.340364777 226.85546875 99.4326171875 c 1
EndSplineSet
EndChar

StartChar: three
Encoding: 51 51 19
Width: 500
Flags: HW
LayerCount: 2
Fore
SplineSet
454.364257812 431.124023438 m 1
 528.426519923 487.705378309 558.462157562 549.902685925 558.462157562 605.022715743 c 0
 558.462157562 693.192693097 481.609404968 763.25390625 385.16796875 763.25390625 c 0
 353.530741119 763.25390625 243.992428303 753.043432826 188.294921875 617.018554688 c 0
 185.22719663 609.526577523 183.8022241 601.877172418 183.8022241 594.404266717 c 0
 183.8022241 562.782608985 209.31729358 534.321289062 243.846679688 534.321289062 c 0
 268.931640625 534.321289062 290.44140625 549.748046875 299.3984375 571.624023438 c 0
 309.416992188 596.092773438 335.208007812 643.25390625 385.16796875 643.25390625 c 0
 409.272460938 643.25390625 438.438476562 629.034179688 438.438476562 604.931640625 c 0
 438.438476562 572.3203125 390.649414062 517.217773438 275.490234375 466.833007812 c 0
 254.309570312 457.56640625 239.494140625 436.416992188 239.494140625 411.834960938 c 0
 239.494140625 378.719726562 266.37890625 351.834960938 299.494140625 351.834960938 c 0
 299.627929688 351.834960938 308.9296875 352.185546875 312.90234375 352.185546875 c 0
 402.705078125 352.185546875 426.95703125 291.12890625 426.95703125 259.229492188 c 0
 426.95703125 190.701556484 339.574966959 92.3937746506 257.036276833 92.3937746506 c 0
 219.481646953 92.3937746506 182.929691293 112.745429302 156.067382812 165.513671875 c 0
 146.149414062 184.995117188 125.903320312 198.352539062 102.561523438 198.352539062 c 0
 67.7353737917 198.352539062 42.5134293806 169.596634128 42.5134293806 138.173046435 c 0
 42.5134293806 129.194097463 44.5727218699 119.997340577 49.0556640625 111.19140625 c 0
 99.2822464143 12.5301732968 174.896263725 -26.9661505673 252.128950998 -26.9661505673 c 0
 396.706837425 -26.9661505673 546.95703125 111.440871997 546.95703125 259.229492188 c 0
 546.95703125 325.4453125 513.690429688 390.875 454.364257812 431.124023438 c 1
EndSplineSet
EndChar

StartChar: four
Encoding: 52 52 20
Width: 500
Flags: HW
LayerCount: 2
Fore
SplineSet
603.400390625 698.186523438 m 0
 604.627007495 703.097818616 605.209935307 707.993214116 605.209935307 712.793726124 c 0
 605.209935307 744.893603466 579.145615153 772.750976562 545.18359375 772.750976562 c 0
 517.090820312 772.750976562 493.481445312 753.40234375 486.966796875 727.315429688 c 0
 482.706694546 711.9625843 482.706694546 711.9625843 415.989897449 496.115050225 c 1
 378.460750289 489.1680291 348.479306421 484.067228647 322.791992188 480.506835938 c 1
 362.890625 535.443359375 397.399414062 581.38671875 440.547851562 633.53125 c 0
 450.054275787 645.019619639 454.325290977 658.276381267 454.325290977 671.258540019 c 0
 454.325290977 702.285604978 429.929288168 731.744140625 394.302734375 731.744140625 c 0
 375.702148438 731.744140625 359.067382812 723.26171875 348.057617188 709.95703125 c 0
 294.765474758 645.554244515 294.628562864 645.366270762 152.283203125 449.932617188 c 0
 144.368714133 439.066948756 140.783530838 426.919982893 140.783530838 415.032635452 c 0
 140.783530838 384.913147035 163.799890401 356.46037144 197.728515625 354.739257812 c 0
 210.381188813 354.097262851 222.586801482 353.777894077 234.608257408 353.777894077 c 0
 279.778399086 353.777894077 322.348522519 358.286904308 376.265601147 367.132119998 c 1
 341.456108311 253.571201612 306.260227436 136.978215039 283.372070312 55.486328125 c 0
 281.839416757 50.0293263291 281.114661256 44.5719040138 281.114661256 39.2260792449 c 0
 281.114661256 7.2398986582 307.061643369 -20.7509765625 341.145507812 -20.7509765625 c 0
 368.634765625 -20.7509765625 391.831054688 -2.224609375 398.918945312 23.01171875 c 0
 424.773826202 115.066688428 468.91259923 260.090066537 509.610577426 392.335581942 c 1
 533.238342919 400.396100059 550.250976429 422.796536117 550.250976562 449.138671875 c 0
 550.250976562 462.770733925 545.743113347 475.186500049 538.23675271 485.142712772 c 1
 572.766465284 596.897554968 600.024493162 684.668439186 603.400390625 698.186523438 c 0
EndSplineSet
EndChar

StartChar: five
Encoding: 53 53 21
Width: 500
Flags: HW
LayerCount: 2
Fore
SplineSet
317.291015625 749.21875 m 0
 293.293945312 749.21875 286.233398438 751.384765625 278.139648438 751.384765625 c 0
 249.52734375 751.384765625 225.565429688 731.313476562 219.578125 704.494140625 c 0
 202.618164062 628.516601562 171.469726562 515.052734375 142.8046875 451.55859375 c 0
 139.158993846 443.483614363 137.473951527 435.165172273 137.473951527 427.04186954 c 0
 137.473951527 395.510330963 162.862382428 366.918945313 197.520507812 366.918945312 c 0
 207.439453125 366.918945312 216.799804688 369.331054688 225.045898438 373.600585938 c 0
 236.963345924 379.7703322 287.263648482 405.532973636 330.844537357 405.532973636 c 0
 341.213606308 405.532973636 351.202294329 404.074569974 360.203125 400.546875 c 0
 406.767578125 382.296875 410.146484375 306.379882812 410.146484375 305.3046875 c 0
 410.146484375 268.444671943 368.507351397 148.48084811 284.247070312 105.037109375 c 0
 281.303146212 103.519778631 254.359170173 89.9891457912 229.426260661 89.9891457912 c 0
 220.548227264 89.9891457912 211.925178533 91.7047050991 204.731445312 96.2890625 c 0
 198.704101562 100.130859375 192.341796875 106.16015625 188.356445312 124.44140625 c 0
 182.477539062 151.405273438 158.447265625 171.62109375 129.731445312 171.62109375 c 0
 95.8968079691 171.62109375 69.7099832815 143.904926245 69.7099832815 111.676875803 c 0
 69.7099832815 107.445124633 70.1614804357 103.135582347 71.1064453125 98.80078125 c 0
 89.9081136527 12.5564743636 155.279348743 -29.388759158 230.476909607 -29.388759158 c 0
 307.54405445 -29.388759158 394.932209079 14.6681117083 453.088867188 100.248046875 c 0
 488.380200683 152.179717184 530.150655748 230.974271162 530.150655748 305.273867235 c 0
 530.150655748 313.721210923 529.610726779 322.110452347 528.459960938 330.395507812 c 0
 521.665039062 379.3046875 505.958984375 423.03125 477.80078125 457.865234375 c 0
 454.563970855 486.611344257 408.674933385 525.55795844 330.606501807 525.55795844 c 0
 319.76459803 525.55795844 308.302056698 524.806802861 296.193359375 523.172851562 c 1
 307.118164062 559.034179688 316.90625 595.567382812 325.201171875 629.278320312 c 1
 380.102539062 630.084960938 447.840820312 640.0390625 532.5390625 646.0078125 c 0
 563.6640625 648.200195312 588.268554688 674.178710938 588.268554688 705.857421875 c 0
 588.268554688 738.97265625 561.383789062 765.857421875 528.268554688 765.857421875 c 0
 501.043945312 765.857421875 368.950195312 749.21875 317.291015625 749.21875 c 0
EndSplineSet
EndChar

StartChar: six
Encoding: 54 54 22
Width: 500
Flags: HW
LayerCount: 2
Fore
SplineSet
73.8515625 159.676757812 m 0
 73.8515625 118.87045711 84.6040779042 -32.91015625 244.581054688 -32.91015625 c 0
 413.028320312 -32.91015625 524.947265625 127.983398438 524.947265625 276.076171875 c 0
 524.947265625 388.076775927 458.996962947 465.815023312 356.526019495 465.815023312 c 0
 337.631449518 465.815023312 317.495195944 463.171961621 296.301757812 457.61328125 c 1
 316.383261442 490.971086234 399.376091783 621.2474526 488.211914062 652.181640625 c 0
 511.655273438 660.344726562 528.497070312 682.65234375 528.497070312 708.862304688 c 0
 528.497070312 743.189984796 500.245391836 768.901522641 468.46913368 768.901522641 c 0
 461.983576473 768.901522641 455.351195483 767.830454425 448.782226562 765.54296875 c 0
 257.939453125 699.087890625 73.8515625 362.305664062 73.8515625 159.676757812 c 0
393.145507812 327.99609375 m 0
 401.123088745 315.08857663 405.017394666 297.186695586 405.017394666 276.914410244 c 0
 405.017394666 199.352152473 348.01074353 87.0908203125 244.581054688 87.0908203125 c 0
 235.065616203 87.0908203125 215.390179204 87.0908203125 205.258789062 103.563476562 c 0
 198.249331481 114.96126811 193.953613153 133.865949286 193.953613153 159.501432327 c 0
 193.953613153 191.621537817 200.697444681 234.308303027 217.296875 286.03515625 c 1
 251.057617188 309.346679688 311.217773438 345.8671875 356.787109375 345.8671875 c 0
 380.016601562 345.8671875 388.208007812 335.984375 393.145507812 327.99609375 c 0
EndSplineSet
EndChar

StartChar: seven
Encoding: 55 55 23
Width: 500
Flags: HW
LayerCount: 2
Fore
SplineSet
557.674804688 760.805664062 m 0
 476.436444135 760.805664062 406.447172483 743.30197856 321.243679374 743.30197856 c 0
 300.291147302 743.30197856 278.418572576 744.360470925 255.232421875 746.998046875 c 0
 252.910365613 747.262221506 250.607586778 747.390974897 248.331401381 747.390974897 c 0
 215.612627978 747.390974897 188.388671875 720.787556856 188.388671875 687.384765625 c 0
 188.388671875 656.583984375 211.647460938 631.172851562 241.544921875 627.771484375 c 0
 270.286323454 624.501868398 296.317638401 623.173130481 321.062430788 623.173130481 c 0
 365.517007384 623.173130481 405.819341247 627.461622992 450.223632812 632.489257812 c 1
 423.928710938 585.024414062 396.361328125 534.33203125 367.861328125 481.932617188 c 0
 292.842773438 344.004882812 211.3515625 194.240234375 131.041015625 62.33203125 c 0
 125.022307664 52.4462894476 122.282327161 41.8354304954 122.282327161 31.4728884439 c 0
 122.282327161 0.203048627218 147.232075747 -28.8056640625 182.328125 -28.8056640625 c 0
 204.044921875 -28.8056640625 223.08203125 -17.2431640625 233.615234375 0.056640625 c 0
 370.962890625 225.645507812 503.439453125 487.185546875 609.65234375 670.831054688 c 0
 615.193293124 680.411420927 617.722171794 690.604404015 617.722171794 700.557190423 c 0
 617.722171794 731.8701953 592.690600246 760.805664062 557.674804688 760.805664062 c 0
EndSplineSet
EndChar

StartChar: eight
Encoding: 56 56 24
Width: 500
Flags: HW
LayerCount: 2
Fore
SplineSet
376.47265625 218 m 0
 376.47265625 144.258737773 277.613688302 91.1103515625 229.885742188 91.1103515625 c 0
 199.240234375 91.1103515625 196.911132812 107.3203125 196.911132812 123.7109375 c 0
 196.911132812 146.37109375 207.481445312 215.28125 313.893554688 336.134765625 c 1
 362.520507812 286.249023438 376.47265625 245.690429688 376.47265625 218 c 0
516.927734375 714.973632812 m 1
 476.912449634 750.391453666 429.004783171 766.210561999 383.046667706 766.210561999 c 0
 341.048125146 766.210561999 300.677673362 752.999856358 269.446289062 729.462890625 c 0
 207.415072103 682.715107849 181.034929118 623.766342868 181.034929118 564.040682378 c 0
 181.034929118 514.975693455 198.838152171 465.386399411 229.3046875 421.606445312 c 1
 146.950195312 329.190429688 76.9111328125 221.76171875 76.9111328125 123.7109375 c 0
 76.9111328125 32.0591301791 141.216851042 -28.9681610237 230.385469183 -28.9681610237 c 0
 271.996736262 -28.9681610237 319.022394025 -15.6782552545 367.454101562 13.9912109375 c 0
 445.559145403 61.8387867338 496.665912441 134.417853319 496.665912441 218.111649299 c 0
 496.665912441 281.902025401 466.976459026 352.149281085 396.922851562 422.82421875 c 1
 417.727539062 443.272460938 438.861328125 463.443359375 459.544921875 483.155273438 c 0
 514.688476562 535.708984375 566.487304688 584.302734375 602.614257812 632.291015625 c 0
 610.933171033 643.341385365 614.68409506 655.761735736 614.68409506 667.910403256 c 0
 614.68409506 699.009424766 590.104516967 728.328125 554.651367188 728.328125 c 0
 540.364257812 728.328125 527.237304688 723.32421875 516.927734375 714.973632812 c 1
315.380859375 510.977539062 m 1
 315.380859375 511.596692914 301.10657215 535.715590448 301.10657215 564.039030826 c 0
 301.10657215 573.553826308 302.717445278 583.543110286 307.021484375 593.275390625 c 0
 320.400434476 623.530651697 351.378073301 646.161025145 384.860477616 646.161025145 c 0
 401.789713411 646.161025145 419.359286073 640.375628279 435.618164062 626.865234375 c 1
 417.869140625 609.297851562 325.748046875 521.131835938 315.380859375 510.977539062 c 1
EndSplineSet
EndChar

StartChar: nine
Encoding: 57 57 25
Width: 500
Flags: HW
LayerCount: 2
Fore
SplineSet
400.70703125 48.599609375 m 0
 400.70703125 184.146170499 586.609375 598.797115431 586.609375 649.759765625 c 0
 586.609375 669.256835938 577.290039062 686.594726562 562.866210938 697.556640625 c 0
 505.11328125 741.44921875 448.140625 763.915039062 392.861328125 763.915039062 c 0
 251.56640625 763.915039062 167.444335938 616.963867188 167.444335938 493.005859375 c 0
 167.444335938 400.907885245 216.49357602 345.221765483 282.615142914 345.221765483 c 0
 307.103676167 345.221765483 333.933913379 352.859881161 361.481445312 369.115234375 c 1
 301.963798356 200.737250316 280.695225952 107.225052388 280.695225952 48.6825851826 c 0
 280.695225952 34.4231129561 281.957062786 22.2383495284 284.235351562 11.5517578125 c 0
 290.01171875 -15.5458984375 314.107421875 -35.896484375 342.91796875 -35.896484375 c 0
 376.033203125 -35.896484375 402.91796875 -9.01171875 402.91796875 24.103515625 c 0
 402.91796875 34.806640625 400.70703125 35.521484375 400.70703125 48.599609375 c 0
290.478515625 467.369140625 m 1
 290.478515625 467.626953125 287.444335938 476.569335938 287.444335938 493.005859375 c 0
 287.444335938 548.48046875 323.377929688 643.915039062 392.861328125 643.915039062 c 0
 405.62890625 643.915039062 422.258789062 640.791015625 442.78125 631.321289062 c 1
 414.198242188 589.471679688 341.630859375 488.90234375 290.478515625 467.369140625 c 1
EndSplineSet
EndChar

StartChar: colon
Encoding: 58 58 26
Width: 500
Flags: HW
LayerCount: 2
Fore
SplineSet
376.888671875 501.795898438 m 0
 426.211914062 501.795898438 459.528320312 545.364257812 459.528320312 586.26171875 c 0
 459.528320312 630.415039062 423.681640625 666.26171875 379.528320312 666.26171875 c 0
 349.2734375 666.26171875 322.918945312 649.430664062 309.325195312 624.62890625 c 0
 300.73318364 611.112457429 296.829876611 596.487443844 296.829876611 582.201907769 c 0
 296.829876611 540.556373258 330.002247332 501.795898438 376.888671875 501.795898438 c 0
278.471679688 73.73828125 m 0
 327.791992188 73.73828125 361.111328125 117.302734375 361.111328125 158.204101562 c 0
 361.111328125 202.357421875 325.264648438 238.204101562 281.111328125 238.204101562 c 0
 250.856445312 238.204101562 224.501953125 221.373046875 210.908203125 196.571289062 c 0
 202.316191453 183.054840242 198.412884423 168.429826657 198.412884423 154.144290581 c 0
 198.412884423 112.49875607 231.585255144 73.73828125 278.471679688 73.73828125 c 0
EndSplineSet
EndChar

StartChar: semicolon
Encoding: 59 59 27
Width: 500
Flags: HW
LayerCount: 2
Fore
SplineSet
136.78515625 41.744140625 m 0
 136.78515625 12.0661613416 159.436467989 -18.3067525027 198.875509031 -18.3067525027 c 0
 210.906652219 -18.3067525027 224.500054481 -15.4802618326 239.489257812 -8.9453125 c 0
 297.248046875 16.236328125 365.702148438 96.9853515625 381.12890625 223.543945312 c 0
 381.431809886 226.028770446 381.579191003 228.492567737 381.579191003 230.926314525 c 0
 381.579191003 263.605248514 355.007033206 290.866210938 321.572265625 290.866210938 c 0
 290.935546875 290.866210938 265.631835938 267.85546875 262.015625 238.188476562 c 0
 252.065249274 156.565541308 211.596377147 111.451916547 192.588867188 101.599609375 c 1
 161.428710938 99.4423828125 136.78515625 73.4482421875 136.78515625 41.744140625 c 0
376.888671875 501.795898438 m 0
 426.211914062 501.795898438 459.528320312 545.364257812 459.528320312 586.26171875 c 0
 459.528320312 630.415039062 423.681640625 666.26171875 379.528320312 666.26171875 c 0
 349.2734375 666.26171875 322.918945312 649.430664062 309.325195312 624.62890625 c 0
 300.73318364 611.112457429 296.829876611 596.487443844 296.829876611 582.201907769 c 0
 296.829876611 540.556373258 330.002247332 501.795898438 376.888671875 501.795898438 c 0
EndSplineSet
EndChar

StartChar: less
Encoding: 60 60 28
Width: 500
Flags: HW
LayerCount: 2
Fore
SplineSet
530.2890625 518.10546875 m 0
 530.2890625 552.848943669 501.613493259 578.152619926 470.138278986 578.152619926 c 0
 461.580868171 578.152619926 452.816514545 576.282234994 444.365234375 572.22265625 c 0
 373.224609375 538.05078125 297.504882812 484.559570312 238.169921875 443.078125 c 0
 220.298828125 430.584960938 204.030273438 419.217773438 190.372070312 410.040039062 c 0
 172.997145305 398.363442277 163.781849233 379.362082735 163.781849233 360.123213902 c 0
 163.781849233 347.080176871 168.017378433 333.927975954 176.817382812 322.875 c 0
 234.133891701 250.909685198 276.257985262 198.019624156 362.506835938 146.58984375 c 0
 372.269839957 140.768188167 382.710598844 138.115209138 392.906198454 138.115209138 c 0
 424.193353309 138.115209138 453.171875 163.097969167 453.171875 198.161132812 c 0
 453.171875 220.075195312 441.3984375 239.260742188 423.836914062 249.732421875 c 0
 373.750976562 279.599609375 338.4296875 314.9453125 310.813476562 347.458984375 c 1
 369.000976562 388.106445312 440.239257812 437.1015625 496.212890625 463.98828125 c 0
 516.364257812 473.666992188 530.2890625 494.2734375 530.2890625 518.10546875 c 0
EndSplineSet
Substitution2: "leftarrowhead-1" leftarrowhead
EndChar

StartChar: equal
Encoding: 61 61 29
Width: 500
Flags: HW
LayerCount: 2
Fore
SplineSet
337.541992188 376.544921875 m 0
 386.020507812 376.544921875 450.865234375 372.345703125 452.010742188 372.345703125 c 0
 485.125976562 372.345703125 512.010742188 399.23046875 512.010742188 432.345703125 c 0
 512.010742188 464.346679688 486.903320312 490.530273438 455.330078125 492.254882812 c 0
 395.411132812 495.529296875 376.82421875 496.544921875 337.541992188 496.544921875 c 0
 298.701171875 496.544921875 256.938476562 494.87890625 218.231445312 488.291992188 c 0
 189.928710938 483.475585938 168.352539062 458.809570312 168.352539062 429.143554688 c 0
 168.352539062 395.508755034 195.84328589 369.129516541 228.285744327 369.129516541 c 0
 231.637147262 369.129516541 235.041392424 369.411022785 238.473632812 369.995117188 c 0
 266.154296875 374.705078125 302.673828125 376.544921875 337.541992188 376.544921875 c 0
306.099609375 235.283203125 m 0
 354.578125 235.283203125 419.422851562 231.083984375 420.568359375 231.083984375 c 0
 453.68359375 231.083984375 480.568359375 257.96875 480.568359375 291.083984375 c 0
 480.568359375 323.084960938 455.4609375 349.268554688 423.887695312 350.993164062 c 0
 363.96875 354.267578125 345.381835938 355.283203125 306.099609375 355.283203125 c 0
 267.258789062 355.283203125 225.49609375 353.6171875 186.7890625 347.030273438 c 0
 158.486328125 342.213867188 136.91015625 317.547851562 136.91015625 287.881835938 c 0
 136.91015625 254.247036284 164.400903078 227.867797791 196.843361515 227.867797791 c 0
 200.194764449 227.867797791 203.599009611 228.149304035 207.03125 228.733398438 c 0
 234.711914062 233.443359375 271.231445312 235.283203125 306.099609375 235.283203125 c 0
EndSplineSet
Substitution2: "longequal-1" longequal
Substitution2: "rightequal-1" rightequal
Substitution2: "leftequal-1" leftequal
EndChar

StartChar: greater
Encoding: 62 62 30
Width: 500
Flags: HW
LayerCount: 2
Fore
SplineSet
125.237304688 186.6640625 m 0
 125.237304688 151.441954906 154.358579417 126.621408295 185.563952216 126.621408295 c 0
 196.566259907 126.621408295 207.827643473 129.706870021 218.163085938 136.509765625 c 0
 243.567042145 153.230456167 478.83014544 312.570736679 481.4765625 314.329101562 c 0
 499.322761842 326.186895303 508.287475206 345.263409403 508.287475206 364.353728534 c 0
 508.287475206 383.013638174 499.722440959 401.686737367 482.514648438 413.64453125 c 0
 387.473632812 479.69140625 346.611328125 510.932617188 304.095703125 553.473632812 c 0
 291.95093892 565.625008726 276.9903158 571.055616297 262.29184111 571.055616297 c 0
 231.399443561 571.055616297 201.665039062 547.066894211 201.665039062 511.067382812 c 0
 201.665039062 494.515625 208.380859375 479.521484375 219.234375 468.661132812 c 0
 255.125976562 432.75 290.55859375 403.552734375 342.702148438 365.600585938 c 1
 176.076257447 252.460099198 176.076257447 252.460099198 152.311523438 236.818359375 c 0
 136.0078125 226.087890625 125.237304688 207.624023438 125.237304688 186.6640625 c 0
EndSplineSet
Substitution2: "rightarrowhead-1" rightarrowhead
EndChar

StartChar: question
Encoding: 63 63 31
Width: 500
Flags: HW
LayerCount: 2
Fore
SplineSet
555.772460938 562.387695312 m 0
 555.772460938 670.078472759 491.452983 753.024355817 404.448704304 753.024355817 c 0
 372.524770702 753.024355817 337.546713949 741.857101386 301.571289062 716.647460938 c 0
 260.735351562 688.032226562 220.872070312 643.998046875 179.053710938 580.75390625 c 0
 172.202813714 570.392568656 169.096259563 559.092477053 169.096259563 548.052081159 c 0
 169.096259563 516.849734155 193.909538587 487.721679688 229.138671875 487.721679688 c 0
 250.052734375 487.721679688 268.482421875 498.4453125 279.223632812 514.689453125 c 0
 286.006524466 524.947766496 358.50895429 632.955078125 404.276367188 632.955078125 c 0
 421.965908775 632.955078125 435.388578145 597.613399212 435.388578145 561.273199804 c 0
 435.388578145 532.983827984 427.254452281 504.08935362 406.666992188 490.791015625 c 0
 404.265016184 489.239486104 246.314119452 383.23387315 234.282226562 262.64453125 c 0
 234.078573982 260.603674805 233.979025689 258.578919867 233.979025689 256.575180968 c 0
 233.979025689 223.786888985 260.634667786 196.625976562 293.983398438 196.625976562 c 0
 325.067382812 196.625976562 350.662109375 220.314453125 353.684570312 250.607421875 c 0
 356.921584594 283.059232478 417.638443057 355.028273151 471.653320312 389.91796875 c 0
 494.154899886 404.452058804 555.772460938 454.136995262 555.772460938 562.387695312 c 0
256.03515625 9.38671875 m 0
 305.934570312 9.38671875 339.135742188 53.9931640625 339.135742188 94.5029296875 c 0
 339.135742188 138.65625 303.288085938 174.50390625 259.134765625 174.50390625 c 0
 229.05078125 174.50390625 202.823242188 157.862304688 189.163085938 133.291015625 c 0
 180.091952529 119.509684611 175.977768859 104.493827587 175.977768859 89.8235120109 c 0
 175.977768859 48.2153266268 209.072763512 9.38671875 256.03515625 9.38671875 c 0
EndSplineSet
EndChar

StartChar: at
Encoding: 64 64 32
Width: 500
Flags: HW
LayerCount: 2
Fore
SplineSet
448.674804688 507.125976562 m 1
 438.518506895 517.14235359 416.49711343 533.052890984 386.040087972 533.052890984 c 0
 364.62962886 533.052890984 339.050527622 525.190369661 310.494140625 501.890625 c 1
 319.630756414 515.822642511 380.326954305 604.926808958 438.174021408 604.926808958 c 0
 439.205890964 604.926808958 440.236853954 604.898456878 441.266601562 604.840820312 c 1
 448.001153588 592.70957772 449.808143658 567.078691609 449.808143658 543.04233151 c 0
 449.808143658 529.725022828 449.253452433 516.89718534 448.674804688 507.125976562 c 1
220 255.6484375 m 1
 234.408555447 226.197976679 264.418559777 203.188419295 299.338739571 203.188419295 c 0
 319.285024015 203.188419295 340.83332902 210.695642671 361.991210938 228.797851562 c 1
 363.974609375 225.334960938 370.29296875 214.397460938 382.53515625 205.170898438 c 1
 375.974023409 207.528105016 369.12438728 208.690236814 362.299146299 208.690236814 c 0
 345.635383428 208.690236814 329.117037037 201.762911888 317.297851562 188.387695312 c 0
 282.615504032 149.141402501 251.428817571 136.594825174 237.808774262 136.594825174 c 0
 235.564223161 136.594825174 233.796751605 136.935568442 232.569335938 137.553710938 c 0
 225.893554688 140.916015625 215.99609375 163.302734375 215.99609375 203.861328125 c 0
 215.99609375 218.561523438 217.219726562 235.852539062 220 255.6484375 c 1
399.328125 195.861328125 m 1
 404.112582829 194.040690663 413.210875287 191.300183269 424.625814148 191.300183269 c 0
 445.380072781 191.300183269 473.792536997 200.359558492 497.859375 240.478515625 c 0
 523.943205695 283.958440537 570.67090301 423.495750847 570.67090301 541.873723633 c 0
 570.67090301 612.493336541 554.04124766 675.582672746 506.478515625 706.255859375 c 0
 487.149414062 718.720703125 464.53125 724.916015625 438.559570312 724.916015625 c 0
 246.508980572 724.916015625 96.2824416009 413.875431757 96.2824416009 207.545931106 c 0
 96.2824416009 159.079488284 104.571520997 116.390709571 122.5546875 84.8681640625 c 0
 147.52048808 41.1069835867 189.192071254 16.7004175344 237.74757855 16.7004175344 c 0
 290.329673722 16.7004175344 350.984767114 45.322778966 407.239257812 108.983398438 c 0
 417.335467569 120.408557589 422.264925852 134.56024629 422.264925852 148.639371714 c 0
 422.264925852 166.353123861 414.461793608 183.952011289 399.328125 195.861328125 c 1
EndSplineSet
EndChar

StartChar: A
Encoding: 65 65 33
Width: 500
Flags: HW
LayerCount: 2
Fore
SplineSet
380.518180441 342.890622808 m 1
 376.301081401 342.821040527 371.825798256 342.782226562 367.078125 342.782226562 c 1
 346.404979108 342.782226562 325.502170234 343.56208526 305.472057593 344.814494382 c 1
 328.407881855 387.737063009 352.13549832 430.127975873 378.647460938 475.185546875 c 1
 378.711775943 469.669018315 379.744917355 405.639898466 380.518180441 342.890622808 c 1
501.188476562 286.395507812 m 0
 501.188476562 312.02951763 498.06640625 474.551302048 498.06640625 565.663085938 c 0
 498.06640625 639.803710938 499.497070312 683.614257812 499.497070312 687.51171875 c 0
 499.497070312 720.626953125 472.612304688 747.51171875 439.497070312 747.51171875 c 0
 418.313476562 747.51171875 399.6796875 736.510742188 389.001953125 719.9140625 c 0
 286.86998235 561.178210114 223.892253924 450.591915507 159.091062773 323.313057691 c 0
 143.576470969 295.857493401 30.146180079 59.0827529158 28.86328125 56.404296875 c 0
 24.8236276128 47.9705901557 22.9621411123 39.2272407224 22.9621411123 30.6902522314 c 0
 22.9621411123 -0.787132626781 48.2695561304 -29.458984375 83.009765625 -29.458984375 c 0
 106.866210938 -29.458984375 127.489257812 -15.505859375 137.15625 4.677734375 c 0
 179.048179669 92.1398664908 213.468238115 164.021738033 246.009454196 229.300903623 c 1
 283.159924399 225.479504194 325.098915617 222.780417249 366.85027159 222.780417249 c 0
 371.675484594 222.780417249 376.498191454 222.816467532 381.310710921 222.891002025 c 1
 380.679127168 104.224836721 374.672851563 36.7116680976 374.672851562 34.736328125 c 0
 374.672851562 1.62109375 401.557617188 -25.263671875 434.672851562 -25.263671875 c 0
 466.280273438 -25.263671875 492.212890625 -0.7705078125 494.5078125 30.255859375 c 0
 498.463690004 83.7367620712 501.231658965 131.889684152 501.231658965 237.080004864 c 0
 501.231658965 251.215014145 501.18167832 266.37993597 501.077883185 282.726093192 c 0
 501.151257307 283.939897222 501.18847635 285.163390063 501.188476562 286.395507812 c 0
EndSplineSet
EndChar

StartChar: B
Encoding: 66 66 34
Width: 500
Flags: HW
LayerCount: 2
Fore
SplineSet
311.913085938 639.061523438 m 1
 328.014971058 642.568729334 341.562312649 644.123843779 352.927096488 644.123843779 c 0
 397.23994932 644.123843779 408.370783312 620.481016098 408.370783312 596.728016655 c 0
 408.370783312 573.003600278 397.266721681 549.169277129 397.030273438 548.672851562 c 0
 379.236328125 511.3125 334.177734375 487.278320312 274.129882812 466.913085938 c 1
 286.189453125 524.528320312 298.373046875 581.725585938 311.913085938 639.061523438 c 1
376.413085938 317.868164062 m 0
 384.750059225 307.979167741 389.504561454 291.545472813 389.504561454 271.957609651 c 0
 389.504561454 206.84309256 336.96498341 106.873471803 188.83203125 96.59765625 c 1
 210.897460938 176.047851562 228.732421875 253.205078125 245.09765625 329.013671875 c 1
 263.421494119 331.733972114 288.52344623 334.636408183 312.217385713 334.636408183 c 0
 339.873588883 334.636408183 365.611489459 330.682075296 376.413085938 317.868164062 c 0
442.40234375 419.185546875 m 1
 499.788372946 465.248287571 528.264486801 531.594977552 528.264486801 593.818291529 c 0
 528.264486801 683.211253554 469.491048105 764.09375 353.23046875 764.09375 c 0
 319.697265625 764.09375 283.524414062 757.622070312 243.407226562 744.64453125 c 0
 223.78515625 738.296875 208.573242188 722.107421875 203.602539062 701.908203125 c 0
 183.43359375 619.944335938 166.703125 539.693359375 150.057617188 459.913085938 c 0
 122.227539062 326.516601562 94.62890625 194.5390625 52.1015625 56.69921875 c 0
 50.2786601571 50.790756041 49.4181458921 44.8475625225 49.4181458921 39.0222938383 c 0
 49.4181458921 9.49310494032 71.5302050261 -17.0058484176 102.484375 -20.58984375 c 0
 123.738836502 -23.0506911677 144.194065764 -24.2233853943 163.842081061 -24.2233853943 c 0
 390.08394368 -24.2233853943 509.297851562 131.263350679 509.297851562 265.961914062 c 0
 509.297851562 306.64453125 500.091796875 377.095703125 442.40234375 419.185546875 c 1
EndSplineSet
EndChar

StartChar: C
Encoding: 67 67 35
Width: 500
Flags: HW
LayerCount: 2
Fore
SplineSet
85.5986328125 309.134765625 m 0
 77.6364656064 277.0241297 73.8255321012 244.648435168 73.8255321012 213.267366627 c 0
 73.8255321012 79.469099974 143.103779225 -36.248046875 255.284179688 -36.248046875 c 0
 330.715820312 -36.248046875 418.725585938 16.3125 516.083007812 167.102539062 c 0
 522.685972052 177.329065889 525.68343959 188.428303688 525.68343959 199.270864298 c 0
 525.68343959 230.492035921 500.82984759 259.584960938 465.639648438 259.584960938 c 0
 444.490234375 259.584960938 425.8828125 248.619140625 415.196289062 232.067382812 c 0
 397.375568995 204.466683899 315.965787332 83.751953125 255.284179688 83.751953125 c 0
 221.838329063 83.751953125 193.993741626 142.150254659 193.993741626 213.655075396 c 0
 193.993741626 235.066610109 196.490438041 257.653346272 202.081054688 280.19921875 c 0
 251.670898438 480.188476562 323.8671875 576.51953125 378.306640625 615.182617188 c 0
 405.55078125 634.532226562 428.326171875 639.979492188 443.45703125 639.979492188 c 0
 466.368164062 639.979492188 471.455078125 629.413085938 471.53515625 629.186523438 c 0
 479.78515625 605.901367188 502.012695312 589.204101562 528.109375 589.204101562 c 0
 562.457337286 589.204101562 588.148930174 617.477823231 588.148930174 649.237629156 c 0
 588.148930174 655.822760739 587.044433871 662.557761083 584.68359375 669.221679688 c 0
 566.265042847 721.210183676 510.930821943 760.018571324 441.779452987 760.018571324 c 0
 325.518148797 760.018571324 170.200892646 650.321655717 85.5986328125 309.134765625 c 0
EndSplineSet
EndChar

StartChar: D
Encoding: 68 68 36
Width: 500
Flags: HW
LayerCount: 2
Fore
SplineSet
382.666992188 636.973632812 m 0
 411.480400572 622.70620325 426.851104676 572.082050959 426.851104676 507.102599735 c 0
 426.851104676 367.508063281 355.913172373 161.661830288 194.921875 107.700195312 c 1
 242.3515625 282.690429688 276.42578125 478.01953125 313.58203125 635.055664062 c 1
 327.64409265 639.425020176 342.315955133 642.488549563 355.813321594 642.488549563 c 0
 365.610886637 642.488549563 374.789595429 640.874338638 382.666992188 636.973632812 c 0
546.809570312 506.500976562 m 0
 546.809570312 697.772460938 448.869140625 762.490234375 355.755859375 762.490234375 c 0
 317.794921875 762.490234375 279.090820312 752.600585938 238.6953125 734.952148438 c 0
 221.7578125 727.551757812 208.885742188 712.5546875 204.397460938 694.278320312 c 0
 184.350585938 612.640625 167.720703125 532.709960938 151.176757812 453.249023438 c 0
 123.514648438 320.384765625 96.0830078125 188.938476562 53.81640625 51.6552734375 c 0
 51.9947934097 45.7387335636 51.1371071201 39.8025156416 51.1371071201 33.9930403643 c 0
 51.1371071201 2.08433253276 77.0116738913 -26.000819924 111.157022337 -26.000819924 c 0
 111.384589364 -26.000819924 111.61252376 -25.9995724475 111.840820312 -25.9970703125 c 0
 399.568168456 -22.8459141332 546.809570312 268.65892393 546.809570312 506.500976562 c 0
EndSplineSet
EndChar

StartChar: E
Encoding: 69 69 37
Width: 500
Flags: HW
LayerCount: 2
Fore
SplineSet
202.825195312 94.001953125 m 1
 213.113068529 158.682753013 237.280757212 320.522683728 237.629164484 322.810715408 c 1
 244.435859849 322.632323709 251.33002972 322.552645302 258.214282212 322.552645302 c 0
 310.326609288 322.552645302 361.870653838 327.118351851 370.6015625 327.993164062 c 0
 400.883789062 331.02734375 424.559570312 356.616210938 424.559570312 387.692382812 c 0
 424.559570312 420.807617188 397.674804688 447.692382812 364.559570312 447.692382812 c 0
 363.499023438 447.692382812 309.805664062 442.680664062 258.6171875 442.680664062 c 0
 257.95168725 442.680664062 257.287053424 442.684300433 256.623541751 442.684300433 c 1
 267.439110633 507.553899152 279.417845619 572.886080027 293.916015625 640.508789062 c 1
 309.616210938 642.056640625 332.985351562 642.623046875 359.560546875 642.623046875 c 0
 360.219726562 642.623046875 423.374023438 642.337890625 425.52734375 642.337890625 c 0
 459.7109375 642.337890625 494.392578125 642.87890625 526.711914062 646.571289062 c 0
 556.594726562 649.985351562 579.838867188 675.390625 579.838867188 706.181640625 c 0
 579.838867188 739.296875 552.954101562 766.181640625 519.838867188 766.181640625 c 0
 509.608398438 766.181640625 498.001953125 762.337890625 425.52734375 762.337890625 c 0
 403.565429688 762.337890625 381.15234375 762.623046875 359.560546875 762.623046875 c 0
 274.85546875 762.623046875 197.47265625 759.412109375 184.704101562 702.715820312 c 0
 163.55254149 608.799994002 146.937204749 528.071451735 107.529296875 264.8046875 c 0
 96.7431640625 192.75 85.8359375 119.903320312 73.0107421875 43.873046875 c 0
 72.43675236 40.4699322218 72.1600352666 37.0946882043 72.1600352666 33.7715055743 c 0
 72.1600352666 1.3223036109 98.5437297816 -26.1630859375 132.173828125 -26.1630859375 c 0
 138.844726562 -26.1630859375 144.260742188 -24.7353515625 163.350585938 -24.7353515625 c 0
 197.013671875 -24.7353515625 236.638671875 -29.568359375 282.874023438 -29.568359375 c 0
 325.85546875 -29.568359375 375.400390625 -25.2236328125 430.922851562 -9.134765625 c 0
 455.91796875 -1.8916015625 474.213867188 21.1865234375 474.213867188 48.50390625 c 0
 474.213867188 81.619140625 447.329101562 108.50390625 414.213867188 108.50390625 c 0
 392.678710938 108.50390625 363.971679688 90.431640625 282.874023438 90.431640625 c 0
 267.3828125 90.431640625 267.3828125 90.431640625 202.825195312 94.001953125 c 1
EndSplineSet
EndChar

StartChar: F
Encoding: 70 70 38
Width: 500
Flags: HW
LayerCount: 2
Fore
SplineSet
364.559570312 447.692382812 m 0
 363.499023438 447.692382812 309.805664062 442.680664062 258.6171875 442.680664062 c 0
 257.95168725 442.680664062 257.287053424 442.684300433 256.623541751 442.684300433 c 1
 267.439110633 507.553899152 279.417845619 572.886080027 293.916015625 640.508789062 c 1
 309.616210938 642.056640625 332.985351562 642.623046875 359.560546875 642.623046875 c 0
 360.219726562 642.623046875 423.374023438 642.337890625 425.52734375 642.337890625 c 0
 459.7109375 642.337890625 494.392578125 642.87890625 526.711914062 646.571289062 c 0
 556.594726562 649.985351562 579.838867188 675.390625 579.838867188 706.181640625 c 0
 579.838867188 739.296875 552.954101562 766.181640625 519.838867188 766.181640625 c 0
 509.608398438 766.181640625 498.001953125 762.337890625 425.52734375 762.337890625 c 0
 403.565429688 762.337890625 381.15234375 762.623046875 359.560546875 762.623046875 c 0
 274.85546875 762.623046875 197.47265625 759.412109375 184.704101562 702.715820312 c 0
 163.55254149 608.799994002 146.937204749 528.071451735 107.529296875 264.8046875 c 0
 96.7431640625 192.75 85.8359375 119.903320312 73.0107421875 43.873046875 c 0
 72.43675236 40.4699322218 72.1600352666 37.0946882043 72.1600352666 33.7715055743 c 0
 72.1600352666 1.3223036109 98.5437297816 -26.1630859375 132.173828125 -26.1630859375 c 0
 161.869140625 -26.1630859375 186.555664062 -4.5439453125 191.336914062 23.80078125 c 0
 199.15770583 70.1641050895 199.15770583 70.1641050895 237.629164484 322.810715408 c 1
 244.435859849 322.632323709 251.33002972 322.552645302 258.214282212 322.552645302 c 0
 310.326609288 322.552645302 361.870653838 327.118351851 370.6015625 327.993164062 c 0
 400.883789062 331.02734375 424.559570312 356.616210938 424.559570312 387.692382812 c 0
 424.559570312 420.807617188 397.674804688 447.692382812 364.559570312 447.692382812 c 0
EndSplineSet
EndChar

StartChar: G
Encoding: 71 71 39
Width: 500
Flags: HW
LayerCount: 2
Fore
SplineSet
205.149414062 193.747070312 m 0
 205.149414062 360.159373239 350.5992009 643.641601562 473.546875 643.641601562 c 0
 486.691511874 643.641601562 488.177531281 638.033757252 488.84765625 635.504882812 c 0
 495.649414062 609.833984375 519.056640625 590.890625 546.853515625 590.890625 c 0
 580.875790135 590.890625 606.882236217 618.814975529 606.882236217 650.857649452 c 0
 606.882236217 655.925596805 606.231675709 661.096565483 604.859375 666.276367188 c 0
 588.928710938 726.404296875 536.12890625 763.641601562 473.546875 763.641601562 c 0
 252.513671875 763.641601562 85.1494140625 396.43359375 85.1494140625 193.747070312 c 0
 85.1494140625 75.7229245926 151.890937192 -31.6719012484 249.543533244 -31.6719012484 c 0
 253.161992685 -31.6719012484 256.822893937 -31.5244449968 260.524414062 -31.224609375 c 0
 333.145507812 -25.3408203125 510.451171875 24.5302734375 540.313476562 367.677734375 c 0
 540.470034105 369.476774357 540.546665041 371.259779692 540.546665041 373.02382249 c 0
 540.546665041 406.380695634 513.146286637 432.95726942 480.62847089 432.95726942 c 0
 476.914449751 432.95726942 473.133671346 432.610576477 469.319335938 431.887695312 c 0
 445.342773438 427.34375 361.662109375 424.21875 316.700195312 418.817382812 c 0
 286.983398438 415.248046875 263.918945312 389.919921875 263.918945312 359.248046875 c 0
 263.918945312 325.81923172 291.172997264 299.241222072 323.859895053 299.241222072 c 0
 326.25942851 299.241222072 328.688239439 299.384450315 331.137695312 299.678710938 c 0
 345.702148438 301.428710938 365.60546875 303.047851562 411.208007812 306.005859375 c 1
 397.138671875 229.365234375 357.473632812 97.0283203125 250.721679688 88.380859375 c 0
 250.485685063 88.3617305716 250.247397063 88.3522186031 250.006925725 88.3522186031 c 0
 233.023428285 88.3522186031 205.149414062 135.798046111 205.149414062 193.747070312 c 0
EndSplineSet
EndChar

StartChar: H
Encoding: 72 72 40
Width: 500
Flags: HW
LayerCount: 2
Fore
SplineSet
579.947265625 692.854492188 m 0
 580.480144669 696.136062215 580.737349461 699.390253123 580.737349461 702.59550777 c 0
 580.737349461 735.074802972 554.327424274 762.529296875 520.724609375 762.529296875 c 0
 490.903320312 762.529296875 466.133789062 740.725585938 461.501953125 712.204101562 c 0
 446.344348249 618.86066896 431.491419292 532.672138006 416.335266274 451.755553527 c 1
 411.054820199 451.80573575 405.595499596 451.831717493 399.738684088 451.831717493 c 0
 371.797398137 451.831717493 334.809181577 451.240376514 265.035976787 449.864282898 c 1
 283.231119331 531.333295387 302.44544048 609.562655082 323.8046875 693.678710938 c 0
 325.070617158 698.664250782 325.671819419 703.635674958 325.671819419 708.509988132 c 0
 325.671819419 740.594081031 299.623885725 768.470703125 265.64453125 768.470703125 c 0
 237.633789062 768.470703125 214.080078125 749.234375 207.484375 723.262695312 c 0
 149.591634481 495.270683735 110.480449809 319.489741705 68.015625 51.349609375 c 0
 67.5083552568 48.1462790016 67.2633227169 44.9699347711 67.2633227169 41.8405486508 c 0
 67.2633227169 9.3411051293 93.6908973063 -18.09375 127.275390625 -18.09375 c 0
 157.177734375 -18.09375 182 3.828125 186.53515625 32.462890625 c 0
 204.463743361 145.672166315 221.709115107 241.492195999 239.448554728 329.467126941 c 1
 283.117800931 330.411277301 346.785534153 331.609375 391.560546875 331.609375 c 1
 391.970513818 331.609375 392.379123781 331.609135704 392.786367894 331.609135704 c 1
 372.644667957 233.610678326 351.48296294 142.774309647 327.999023438 55.06640625 c 0
 326.598955312 49.8372701763 325.935527503 44.615471785 325.935527503 39.4982083116 c 0
 325.935527503 7.46571827421 351.931107719 -20.470703125 385.96484375 -20.470703125 c 0
 413.70703125 -20.470703125 437.077148438 -1.6015625 443.930664062 23.9921875 c 0
 496.462890625 220.19140625 537.201171875 429.6171875 579.947265625 692.854492188 c 0
EndSplineSet
EndChar

StartChar: I
Encoding: 73 73 41
Width: 500
Flags: HW
LayerCount: 2
Fore
SplineSet
179.596679688 97.1552734375 m 0
 141.369647069 97.1552734375 61.7294921875 97.1552734375 61.7294921875 31.3466796875 c 0
 61.7294921875 -1.7685546875 88.6142578125 -28.6533203125 121.729492188 -28.6533203125 c 0
 136.59375 -28.6533203125 140.001953125 -22.8447265625 179.596679688 -22.8447265625 c 0
 227.977061739 -22.8447265625 296.534213031 -29.4408840519 366.642164247 -29.4408840519 c 0
 390.54732479 -29.4408840519 414.632788997 -28.6739821865 438.16015625 -26.6171875 c 0
 468.803710938 -23.9375 492.875976562 1.8193359375 492.875976562 33.1533203125 c 0
 492.875976562 66.2685546875 465.991210938 93.1533203125 432.875976562 93.1533203125 c 0
 426.1484375 93.1533203125 408.482421875 90.560546875 366.783203125 90.560546875 c 0
 359.405370026 90.560546875 352.008197429 90.6426333803 344.613712164 90.7884900275 c 1
 372.997744532 232.87026047 410.715458008 498.905818794 435.209993145 645.130802417 c 1
 440.664825016 645.208046658 446.024246288 645.249731566 451.260884974 645.249731566 c 0
 477.03098365 645.249731566 499.827611251 644.2402328 516.388671875 641.491210938 c 0
 519.740235333 640.934853192 523.064099246 640.666501896 526.337220419 640.666501896 c 0
 558.799476658 640.666501896 586.270507812 667.062429818 586.270507812 700.6796875 c 0
 586.270507812 730.428710938 564.572265625 755.150390625 536.15234375 759.868164062 c 0
 512.212936123 763.842037745 481.316829409 765.237854825 448.212061687 765.237854825 c 0
 370.041438211 765.237854825 279.555794608 757.455078125 239.268554688 757.455078125 c 0
 234.544921875 757.455078125 225.334960938 757.887695312 225.194335938 757.887695312 c 0
 192.079101562 757.887695312 165.194335938 731.002929688 165.194335938 697.887695312 c 0
 165.194335938 666.40234375 189.499023438 640.547851562 220.354492188 638.080078125 c 0
 225.160011306 637.695720483 231.189632124 637.528213338 238.222865078 637.528213338 c 0
 257.207380866 637.528213338 283.504212615 638.748670052 312.777037493 640.219157944 c 1
 312.047858417 635.747034215 257.657172564 286.205843445 241.390625 192.759765625 c 0
 234.901492949 155.480464965 228.512631732 121.854107956 223.078804327 96.0823687988 c 1
 207.826167958 96.7241515757 193.243752684 97.1552734375 179.596679688 97.1552734375 c 0
EndSplineSet
EndChar

StartChar: J
Encoding: 74 74 42
Width: 500
Flags: HW
LayerCount: 2
Fore
SplineSet
207.892578125 202.25 m 0
 207.892578125 223.896484375 211.880859375 231.654296875 211.880859375 243.421875 c 0
 211.880859375 276.537109375 184.99609375 303.421875 151.880859375 303.421875 c 0
 122.689453125 303.421875 98.33984375 282.53125 92.978515625 254.896484375 c 0
 89.4886091155 236.906597029 87.834096927 219.153512361 87.834096927 201.851098762 c 0
 87.834096927 78.4698346164 171.96489791 -21.9951171875 274.638671875 -21.9951171875 c 0
 328.706054688 -21.9951171875 435.776367188 6.8212890625 498.638671875 216.677734375 c 0
 526.779296875 310.622070312 573.41015625 510.985351562 590.038085938 696.158203125 c 0
 590.20314434 697.996566556 590.284000198 699.821171731 590.284000198 701.628451254 c 0
 590.284000198 734.465547763 563.591433764 761.583007812 530.280273438 761.583007812 c 0
 498.994140625 761.583007812 473.268554688 737.584960938 470.522460938 707.0078125 c 0
 455.01171875 534.270507812 409.123046875 336.116210938 383.6640625 251.12109375 c 0
 379.310052219 236.586252039 336.183533462 98.0048828125 274.638671875 98.0048828125 c 0
 241.75 98.0048828125 207.892578125 145.541015625 207.892578125 202.25 c 0
EndSplineSet
EndChar

StartChar: K
Encoding: 75 75 43
Width: 500
Flags: HW
LayerCount: 2
Fore
SplineSet
430.2734375 19.240234375 m 0
 442.119355146 58.3016262213 467.606392529 145.863734908 467.606392529 232.445708336 c 0
 467.606392529 306.347975392 449.037760168 379.536162933 387.568359375 421.240234375 c 1
 468.6953125 491.627929688 524.224609375 566.947265625 585.709960938 695.1875 c 0
 589.756761121 703.627611542 591.621428634 712.378502504 591.621428634 720.922775098 c 0
 591.621428634 752.399592546 566.314884364 781.072265625 531.57421875 781.072265625 c 0
 507.7265625 781.072265625 487.109375 767.12890625 477.438476562 746.95703125 c 0
 423.844208231 635.176751761 378.93325705 573.06437292 310.615854954 513.38995037 c 1
 327.859519168 581.328631475 345.857136765 645.026981083 365.211914062 699.809570312 c 0
 367.561064798 706.458691175 368.66023773 713.177599453 368.66023773 719.747075781 c 0
 368.66023773 751.509757518 342.965816083 779.779296875 308.62109375 779.779296875 c 0
 282.505859375 779.779296875 260.265625 763.05859375 252.030273438 739.749023438 c 0
 183.08984375 544.619140625 132.84765625 254.53125 76.3466796875 50.7392578125 c 0
 74.8510226534 45.344624378 74.1433661054 39.9518734849 74.1433661054 34.6687982264 c 0
 74.1433661054 2.66979134934 100.104397023 -25.3056640625 134.173828125 -25.3056640625 c 0
 161.732421875 -25.3056640625 184.9765625 -6.685546875 192.000976562 18.6494140625 c 0
 217.270811656 109.794317466 241.043349856 216.056221725 265.273337264 322.283964919 c 1
 274.94687065 325.460349409 286.09361865 328.051143616 296.718712956 328.051143616 c 0
 303.391226018 328.051143616 309.858010055 327.029389971 315.625 324.489257812 c 0
 333.831781105 316.469854806 347.685060453 286.936171503 347.685060453 233.261185027 c 0
 347.685060453 189.813743561 338.6081695 130.548532823 315.416015625 54.072265625 c 0
 313.645661461 48.2345722075 312.811362755 42.379946443 312.811362755 36.6488626206 c 0
 312.811362755 4.73739949136 338.678089973 -23.34375 372.844726562 -23.34375 c 0
 399.904296875 -23.34375 422.803710938 -5.392578125 430.2734375 19.240234375 c 0
EndSplineSet
EndChar

StartChar: L
Encoding: 76 76 44
Width: 500
Flags: HW
LayerCount: 2
Fore
SplineSet
462.958007812 43.798828125 m 0
 462.958007812 77.131845437 435.814886381 103.803284267 403.005833242 103.803284267 c 0
 401.086302544 103.803284267 399.147377549 103.711988808 397.193359375 103.525390625 c 0
 342.831054688 98.3330078125 246.40625 98.740234375 192.049804688 96.3125 c 1
 213.970703125 181.17578125 235.904296875 277.697265625 256.66015625 368.870117188 c 0
 286.038085938 497.911132812 313.907226562 618.145507812 331.766601562 668.393554688 c 0
 334.141505109 675.07542971 335.252409914 681.829924385 335.252409914 688.433995136 c 0
 335.252409914 720.190488626 309.565107728 748.46875 275.212890625 748.46875 c 0
 249.137695312 748.46875 226.924804688 731.798828125 218.659179688 708.543945312 c 0
 175.701171875 587.680664062 112.9296875 247.69140625 53.4443359375 44.3857421875 c 0
 51.7694351698 38.661658935 50.9839733903 32.970563949 50.9839733903 27.4247274642 c 0
 50.9839733903 -5.03274026069 77.8881808947 -32.5147082713 110.852605045 -32.5147082713 c 0
 115.181454129 -32.5147082713 119.614809412 -32.0407918762 124.10546875 -31.0419921875 c 0
 182.315429688 -18.09375 315.266601562 -24.8525390625 408.72265625 -15.927734375 c 0
 439.137695312 -13.0224609375 462.958007812 12.6279296875 462.958007812 43.798828125 c 0
EndSplineSet
EndChar

StartChar: M
Encoding: 77 77 45
Width: 500
Flags: HW
LayerCount: 2
Fore
SplineSet
65.6259765625 55.2080078125 m 0
 64.7524580336 51.0345182324 64.3344605388 46.8876976686 64.3344605388 42.8140168087 c 0
 64.3344605388 10.5494994688 90.5555069498 -17.126953125 124.354492188 -17.126953125 c 0
 153.2421875 -17.126953125 177.388671875 3.33203125 183.083007812 30.5380859375 c 0
 194.689453125 85.9892578125 194.689453125 85.9892578125 228.208007812 252.200195312 c 1
 228.60546875 229.64453125 229.036132812 207.092773438 229.533203125 184.595703125 c 0
 230.251953125 152.103515625 256.854492188 125.946289062 289.518554688 125.946289062 c 0
 312.717773438 125.946289062 332.858398438 139.140625 342.840820312 158.428710938 c 0
 350.884765625 173.971679688 359.306640625 191.1640625 368.002929688 209.6015625 c 1
 359.25 156.645507812 350.955078125 104.895507812 343.352539062 55.904296875 c 0
 342.864914762 52.7624563364 342.629227644 49.6472456684 342.629227644 46.5774530484 c 0
 342.629227644 14.0634507002 369.069056263 -13.35546875 402.640625 -13.35546875 c 0
 432.606445312 -13.35546875 457.471679688 8.6591796875 461.928710938 37.384765625 c 0
 494.2578125 245.697265625 539.501953125 505.814453125 578.37890625 691.375976562 c 0
 579.253971266 695.552995937 579.672693284 699.703366827 579.672693284 703.780493605 c 0
 579.672693284 736.044429458 553.451523836 763.721679688 519.65234375 763.721679688 c 0
 496.466796875 763.721679688 476.3359375 750.541992188 466.34765625 731.2734375 c 0
 443.053380329 686.335482904 435.100389484 668.549945617 344.536132812 454.756835938 c 1
 342.40625 544.786132812 339.032226562 633.61328125 332.006835938 718.172851562 c 0
 329.451171875 748.939453125 303.637695312 773.147460938 272.21484375 773.147460938 c 0
 244.481445312 773.147460938 221.118164062 754.291015625 214.256835938 728.7109375 c 0
 163.740234375 540.38671875 135.208007812 398.5234375 102.55078125 236.15234375 c 0
 91.138671875 179.4140625 79.2099609375 120.108398438 65.6259765625 55.2080078125 c 0
EndSplineSet
EndChar

StartChar: N
Encoding: 78 78 46
Width: 500
Flags: HW
LayerCount: 2
Fore
SplineSet
69.2578125 47.955078125 m 0
 68.3849113115 43.7829694103 67.9672052446 39.6375733909 67.9672052446 35.5653008983 c 0
 67.9672052446 3.29991526901 94.1895088703 -24.375 127.987304688 -24.375 c 0
 156.875976562 -24.375 181.024414062 -3.9140625 186.716796875 23.294921875 c 0
 194.407381112 60.0523108157 261.318149075 396.46638172 262.102539062 400.229492188 c 1
 286.775390625 263.694335938 309.340820312 124.26953125 309.55078125 35.4619140625 c 0
 309.62890625 2.4130859375 336.484375 -24.3935546875 369.55078125 -24.3935546875 c 0
 394.111328125 -24.3935546875 415.245117188 -9.6044921875 424.524414062 11.546875 c 0
 501.057185371 185.989784687 576.012695312 697.285937233 576.012695312 704.377929688 c 0
 576.012695312 737.493164062 549.127929688 764.377929688 516.012695312 764.377929688 c 0
 486.298828125 764.377929688 461.600585938 742.731445312 456.840820312 714.360351562 c 0
 409.803429938 433.896351938 409.803429938 433.896351938 392.969726562 350.930664062 c 1
 392.352217902 354.473769861 339.717613387 638.926753685 329.959960938 705.01953125 c 0
 325.6875 733.958007812 300.723632812 756.196289062 270.60546875 756.196289062 c 0
 242.870117188 756.196289062 219.504882812 737.336914062 212.645507812 711.752929688 c 0
 165.763671875 536.90234375 139.680664062 403.282226562 110.858398438 255.641601562 c 0
 98.21484375 190.875 85.025390625 123.318359375 69.2578125 47.955078125 c 0
EndSplineSet
EndChar

StartChar: O
Encoding: 79 79 47
Width: 500
Flags: HW
LayerCount: 2
Fore
SplineSet
430.720703125 647.6875 m 1
 430.345703125 647.748046875 l 1
 430.345703125 647.748046875 430.369137526 647.766534013 430.431333846 647.766534013 c 0
 430.489588146 647.766534013 430.581846591 647.750316051 430.720703125 647.6875 c 1
430.822265625 767.670898438 m 0
 220.02896108 767.670898438 77.1435546875 397.085558293 77.1435546875 183.42578125 c 0
 77.1435546875 38.2978515625 161.866210938 -27.6708984375 247.239257812 -27.6708984375 c 0
 476.659179688 -27.6708984375 574.856445312 370.028320312 574.856445312 563.532226562 c 0
 574.856445312 689.8203125 510.249023438 767.670898438 430.822265625 767.670898438 c 0
454.856445312 563.532226562 m 0
 454.856445312 384.908865362 361.54944815 92.3291015625 247.239257812 92.3291015625 c 0
 201.23046875 92.3291015625 197.143554688 159.545898438 197.143554688 183.42578125 c 0
 197.143554688 365.948661335 323.915856205 647.542653693 430.755859375 647.670898438 c 0
 435.5546875 645.35546875 454.856445312 619.001953125 454.856445312 563.532226562 c 0
EndSplineSet
EndChar

StartChar: P
Encoding: 80 80 48
Width: 500
Flags: HW
LayerCount: 2
Fore
SplineSet
335.100585938 639.840820312 m 1
 339.550374645 640.480103474 349.204139723 641.631032346 361.031828715 641.631032346 c 0
 393.217442349 641.631032346 441.500915561 633.10842894 444.825195312 582.561523438 c 0
 445.039109731 579.308787872 445.181865162 575.640390838 445.181865162 571.642453166 c 0
 445.181865162 526.170317199 426.714229004 438.066972067 284.432617188 434.049804688 c 1
 299.97265625 498.786132812 315.905273438 565.137695312 335.100585938 639.840820312 c 1
255.428710938 314.463867188 m 1
 262.60440153 314.106784896 269.716293628 313.929464767 276.757399498 313.929464767 c 0
 440.043720234 313.929464767 565.261464792 409.291584552 565.261464792 569.559436623 c 0
 565.261464792 576.433709991 565.03109441 583.427394217 564.563476562 590.538085938 c 0
 557.765478084 693.905753363 474.321203018 761.857042953 361.217916503 761.857042953 c 0
 332.234309642 761.857042953 301.30305203 757.394811282 269.21484375 747.922851562 c 0
 249.165039062 742.00390625 233.471679688 725.883789062 228.157226562 705.583007812 c 0
 210.715820312 638.953125 210.715820312 638.953125 151.427734375 394.392578125 c 0
 126.055664062 289.733398438 99.5654296875 185.2890625 59.3154296875 51.3564453125 c 0
 57.5751213214 45.5651596097 56.7546406801 39.7591707641 56.7546406801 34.0752357235 c 0
 56.7546406801 2.15493677326 82.6310508753 -25.916015625 116.788085938 -25.916015625 c 0
 143.899414062 -25.916015625 166.8359375 -7.8955078125 174.260742188 16.8115234375 c 0
 208.627929688 131.172851562 233.290039062 224.997070312 255.428710938 314.463867188 c 1
EndSplineSet
EndChar

StartChar: Q
Encoding: 81 81 49
Width: 500
Flags: HW
LayerCount: 2
Fore
SplineSet
570.788085938 559.012695312 m 0
 570.788085938 684.907226562 506.182617188 762.604492188 426.78515625 762.604492188 c 0
 216.27734375 762.604492188 73.2119140625 393.61328125 73.2119140625 180.3515625 c 0
 73.2119140625 64.7913242859 127.267308156 -0.548182991387 192.622384467 -22.1085072407 c 1
 232.444190906 -128.531997481 325.268679751 -206.467523771 404.066453975 -206.467523771 c 0
 418.885645708 -206.467523771 433.208728453 -203.711032598 446.58984375 -197.869140625 c 0
 473.388783244 -186.169384959 511.623202478 -156.116997882 511.623202478 -79.8692187298 c 0
 511.623202478 -58.2722932531 508.555706797 -32.9691740244 501.291992188 -3.3271484375 c 0
 494.868164062 22.888671875 471.196289062 42.3642578125 443.01171875 42.3642578125 c 0
 409.896484375 42.3642578125 383.01171875 15.4794921875 383.01171875 -17.6357421875 c 0
 383.01171875 -31.8179607432 391.770775198 -54.5089006306 391.770775198 -79.4170849335 c 0
 391.770775198 -80.5875061243 391.75143515 -81.7628230037 391.7109375 -82.9423828125 c 1
 370.805014187 -73.6590549218 342.460600379 -48.40946546 321.475291768 -13.5230709669 c 1
 495.00032362 63.5882628486 570.788085937 389.472857886 570.788085938 559.012695312 c 0
263.462890625 259.157226562 m 0
 223.991559859 259.157226562 207.742341259 227.478633745 193.373279397 191.339933864 c 1
 198.710710789 377.047380392 323.437748133 642.604492188 426.74609375 642.604492188 c 0
 427.53515625 642.239257812 450.788085938 621.724609375 450.788085938 559.012695312 c 0
 450.788085938 417.176695166 388.720076041 181.944449345 294.715240257 109.61398683 c 1
 297.714449131 129.257952151 304.409427782 149.495190878 315.837890625 169.881835938 c 0
 321.103291695 179.274603726 323.510192666 189.218497196 323.510192666 198.927349574 c 0
 323.510192666 230.266793072 298.431494569 259.157226562 263.462890625 259.157226562 c 0
EndSplineSet
EndChar

StartChar: R
Encoding: 82 82 50
Width: 500
Flags: HW
LayerCount: 2
Fore
SplineSet
350.3515625 643.799804688 m 1
 354.448961486 644.255363708 360.070252546 644.696479799 366.476779027 644.696479799 c 0
 393.346276803 644.696479799 434.028320312 636.937104708 434.028320312 589.940429688 c 0
 434.028320312 563.270025179 418.892985603 507.872222294 306.098632812 465.329101562 c 1
 319.65234375 521.509765625 333.806640625 579.603515625 350.3515625 643.799804688 c 1
270.694335938 319.444335938 m 1
 321.239762281 303.778475639 339.187038295 226.689176852 339.187038295 159.260330836 c 0
 339.187038295 122.455471431 333.839949284 88.5287814386 325.528320312 69.0400390625 c 1
 316.258015745 57.6309164974 312.090369953 44.5362036637 312.090369953 31.7160112403 c 0
 312.090369953 0.675409627323 336.52253613 -28.755859375 372.115234375 -28.755859375 c 0
 454.473632812 -28.755859375 459.254882812 124.166992188 459.254882812 159.681640625 c 0
 459.254882812 216.350585938 449.637695312 307.790039062 395.467773438 373.508789062 c 1
 507.121214698 429.347213408 554.991076615 513.631847955 554.991076615 589.686752569 c 0
 554.991076615 683.46413055 482.212443591 764.729492188 366.487304688 764.729492188 c 0
 340.125976562 764.729492188 312.89453125 760.653320312 285.024414062 752.620117188 c 0
 264.813476562 746.794921875 248.969726562 730.62109375 243.612304688 710.217773438 c 0
 225.87109375 642.65234375 225.87109375 642.65234375 165.9296875 396.146484375 c 0
 140.197265625 290.325195312 113.33984375 184.739257812 72.513671875 49.3115234375 c 0
 70.763135788 43.5044196168 69.9379519237 37.6818671002 69.9379519237 31.9818789478 c 0
 69.9379519237 0.0645625761069 95.8114743774 -28.009765625 129.971679688 -28.009765625 c 0
 157.065429688 -28.009765625 179.989257812 -10.0126953125 187.4296875 14.6689453125 c 0
 222.78125 131.940429688 247.998046875 227.831054688 270.694335938 319.444335938 c 1
EndSplineSet
EndChar

StartChar: S
Encoding: 83 83 51
Width: 500
Flags: HW
LayerCount: 2
Fore
SplineSet
231.551757812 -27.8046875 m 0
 360.244017288 -27.8046875 515.365234375 105.013350064 515.365234375 250.450195312 c 0
 515.365234375 305.801757812 491.643554688 404.720703125 339.291992188 469.223632812 c 0
 321.169921875 476.896484375 311.473632812 485.088867188 306.030273438 491.735351562 c 0
 299.767994014 499.381768004 296.979284696 508.767396447 296.979284696 519.090194781 c 0
 296.979284696 570.100721303 365.07628386 643.995833471 418.63045682 643.995833471 c 0
 434.603869642 643.995833471 449.28351087 637.421912018 460.4765625 621.706054688 c 0
 471.357421875 606.4296875 489.212890625 596.458984375 509.379882812 596.458984375 c 0
 544.735135104 596.458984375 569.417627748 625.695648855 569.417627748 656.838139198 c 0
 569.417627748 668.507803143 565.951863329 680.445071481 558.283203125 691.211914062 c 0
 538.078125 719.580078125 494.586914062 764.30078125 421.198242188 764.30078125 c 0
 294.460331529 764.30078125 177.280985141 634.097649049 177.280985141 515.799539232 c 0
 177.280985141 452.96370827 210.341543625 393.486717418 292.590820312 358.665039062 c 0
 346.34375 335.907226562 395.365234375 301.23046875 395.365234375 250.450195312 c 0
 395.365234375 173.775801632 293.599786552 91.9616121961 232.34532248 91.9616121961 c 0
 225.408773945 91.9616121961 218.991723744 93.0107680347 213.30078125 95.2353515625 c 0
 188.891601562 104.776367188 182.205078125 143.953125 180.482421875 169.560546875 c 0
 178.381835938 200.775390625 152.362304688 225.479492188 120.619140625 225.479492188 c 0
 87.3824086675 225.479492188 60.6172796562 198.45023819 60.6172796562 165.511180717 c 0
 60.6172796562 164.149863511 60.6629953877 162.778452163 60.755859375 161.3984375 c 0
 64.1650390625 110.737304688 77.3544921875 67.62890625 103.00390625 34.0185546875 c 0
 117.03125 15.63671875 156.383789062 -27.8046875 231.551757812 -27.8046875 c 0
EndSplineSet
EndChar

StartChar: T
Encoding: 84 84 52
Width: 500
Flags: HW
LayerCount: 2
Fore
SplineSet
220.354492188 638.080078125 m 0
 225.160011306 637.695720483 231.189632124 637.528213338 238.222865078 637.528213338 c 0
 257.207380866 637.528213338 283.504212615 638.748670052 312.777037493 640.219157944 c 1
 312.047858417 635.747034215 257.657172564 286.205843445 241.390625 192.759765625 c 0
 229.845703125 126.435546875 218.618164062 71.673828125 212.521484375 52.1357421875 c 0
 210.654874776 46.152769611 209.776353322 40.1452735494 209.776353322 34.2659139748 c 0
 209.776353322 2.38207027524 235.612852756 -25.7333984375 269.811523438 -25.7333984375 c 0
 296.704101562 -25.7333984375 319.48828125 -8.001953125 327.1015625 16.3974609375 c 0
 355.323059908 106.856352817 405.194469925 465.947185883 435.209993145 645.130802417 c 1
 440.664825016 645.208046658 446.024246288 645.249731566 451.260884974 645.249731566 c 0
 477.03098365 645.249731566 499.827611251 644.2402328 516.388671875 641.491210938 c 0
 519.740235333 640.934853192 523.064099246 640.666501896 526.337220419 640.666501896 c 0
 558.799476658 640.666501896 586.270507812 667.062429818 586.270507812 700.6796875 c 0
 586.270507812 730.428710938 564.572265625 755.150390625 536.15234375 759.868164062 c 0
 512.212936123 763.842037745 481.316829409 765.237854825 448.212061687 765.237854825 c 0
 370.041438211 765.237854825 279.555794608 757.455078125 239.268554688 757.455078125 c 0
 234.544921875 757.455078125 225.334960938 757.887695312 225.194335938 757.887695312 c 0
 192.079101562 757.887695312 165.194335938 731.002929688 165.194335938 697.887695312 c 0
 165.194335938 666.40234375 189.499023438 640.547851562 220.354492188 638.080078125 c 0
EndSplineSet
EndChar

StartChar: U
Encoding: 85 85 53
Width: 500
Flags: HW
LayerCount: 2
Fore
SplineSet
309.377929688 694.939453125 m 0
 311.238834702 700.913937646 312.114742945 706.912505796 312.114742945 712.783216376 c 0
 312.114742945 744.667970785 286.277663275 772.78125 252.080078125 772.78125 c 0
 225.176757812 772.78125 202.385742188 755.037109375 194.782226562 730.623046875 c 0
 169.870507178 650.641471272 100.825063358 423.41464363 100.825063358 239.004420418 c 0
 100.825063358 130.58021535 124.69314595 36.9571353718 195.432617188 -3.2353515625 c 0
 207.715935461 -10.213936174 231.008691038 -20.7898850581 263.270228127 -20.7898850581 c 0
 264.719090712 -20.7898850581 266.186042429 -20.7685544309 267.670898438 -20.724609375 c 0
 456.914344997 -15.1184781889 526.951333757 208.076911318 616.240234375 695.805664062 c 0
 616.913710176 699.484725482 617.237514471 703.135396226 617.237514471 706.726677812 c 0
 617.237514471 739.108659478 590.911171624 766.662109375 557.221679688 766.662109375 c 0
 527.813476562 766.662109375 503.318359375 745.458984375 498.203125 717.518554688 c 0
 432.76953125 360.092773438 373.620117188 133.313476562 288.489257812 103.485351562 c 0
 288.252812386 103.402703465 275.371529766 99.1401930481 264.633379864 99.1401930481 c 0
 260.780212974 99.1401930481 257.202993149 99.6890285148 254.584960938 101.176757812 c 0
 239.286132812 109.868164062 220.807617188 154.10546875 220.807617188 238.831054688 c 0
 220.807617188 339.995117188 246.479492188 492.993164062 309.377929688 694.939453125 c 0
EndSplineSet
EndChar

StartChar: V
Encoding: 86 86 54
Width: 500
Flags: HW
LayerCount: 2
Fore
SplineSet
307.010742188 693.451171875 m 0
 307.043191456 694.266859241 307.059265728 695.079196935 307.059265728 695.887879533 c 0
 307.059265728 728.932446211 280.219715021 755.874023438 247.05859375 755.874023438 c 0
 214.754882812 755.874023438 188.379882812 730.290039062 187.106445312 698.296875 c 0
 186.840820312 691.618164062 163.178710938 75.90625 163.178710938 30.27734375 c 0
 163.178710938 -2.837890625 190.063476562 -29.72265625 223.178710938 -29.72265625 c 0
 244.78125 -29.72265625 263.732421875 -18.28125 274.298828125 -1.1328125 c 0
 439.927734375 267.678710938 483.427734375 439.16796875 604.228515625 674.358398438 c 0
 608.77958846 683.218876836 610.869219092 692.483243167 610.869219092 701.528131293 c 0
 610.869219092 732.943908805 585.660037185 761.711914063 550.821289062 761.711914062 c 0
 527.556640625 761.711914062 507.366210938 748.442382812 497.4140625 729.065429688 c 0
 413.96875 566.604492188 362.008789062 423.60546875 291.444335938 278.653320312 c 1
 293.166015625 327.76171875 298.536132812 480.514648438 307.010742188 693.451171875 c 0
EndSplineSet
EndChar

StartChar: W
Encoding: 87 87 55
Width: 500
Flags: HW
LayerCount: 2
Fore
SplineSet
240.71484375 413.013671875 m 1
 241.230425441 415.955909174 293.285103318 679.040018521 295.872070312 706.583984375 c 0
 296.05248919 708.505583556 296.140791476 710.412460035 296.140791476 712.300528595 c 0
 296.140791476 745.118375737 269.462586909 772.25390625 236.13671875 772.25390625 c 0
 204.93359375 772.25390625 179.26171875 748.383789062 176.401367188 717.923828125 c 0
 168.443754673 633.181728617 86.3083369787 350.186430842 86.3083369787 70.2129253062 c 0
 86.3083369787 56.6617686384 86.5007565897 43.117691159 86.9033203125 29.603515625 c 0
 87.8642578125 -2.6728515625 114.368164062 -28.5810546875 146.875976562 -28.5810546875 c 0
 170.55078125 -28.5810546875 191.041015625 -14.83984375 200.799804688 5.095703125 c 0
 220.853515625 46.060546875 238.559570312 84.806640625 254.5234375 121.608398438 c 1
 254.011549034 108.868741527 252.882924106 78.9648105258 252.882924106 40.7958624286 c 0
 252.882924106 36.2210240651 252.899137755 31.5274517609 252.934570312 26.73046875 c 0
 253.177734375 -6.177734375 279.96875 -32.818359375 312.932617188 -32.818359375 c 0
 335.052734375 -32.818359375 354.393554688 -20.822265625 364.797851562 -2.986328125 c 0
 410.578125 75.4951171875 458.286132812 195.026367188 502.2734375 317.20703125 c 0
 557.151367188 469.634765625 604.711914062 624.276367188 625.375 696.23828125 c 0
 626.972897257 701.802949549 627.72777095 707.372286671 627.72777095 712.826691547 c 0
 627.72777095 744.790660894 601.803833929 772.807617188 567.696289062 772.807617188 c 0
 540.328125 772.807617188 517.21484375 754.444335938 510.017578125 729.376953125 c 0
 491.357421875 664.392578125 448.548828125 524.985351562 399.017578125 384.962890625 c 1
 403.33984375 419.788085938 417.334960938 528.614257812 417.51953125 530.065429688 c 0
 417.849173286 532.656248562 418.009389638 535.224970861 418.009389638 537.761321161 c 0
 418.009389638 570.412668172 391.457797153 597.69921875 358.001953125 597.69921875 c 0
 334.083984375 597.69921875 313.416015625 583.673828125 303.780273438 563.405273438 c 0
 280.314453125 514.043945312 260.473632812 464.520507812 240.71484375 413.013671875 c 1
EndSplineSet
EndChar

StartChar: X
Encoding: 88 88 56
Width: 500
Flags: HW
LayerCount: 2
Fore
SplineSet
253.726986934 383.722443168 m 1
 185.758341542 301.925555879 117.149776702 208.252512408 61.4482421875 51.6376953125 c 0
 59.0704571941 44.952109408 57.9582376783 38.1935987007 57.9582376783 31.5856346879 c 0
 57.9582376783 -0.17020562255 83.6445874291 -28.44921875 117.998046875 -28.44921875 c 0
 144.069335938 -28.44921875 166.279296875 -11.78515625 174.547851562 11.4638671875 c 0
 211.652597548 115.791660789 253.901024148 186.910331386 300.201758375 249.082360503 c 1
 319.758346304 185.094023914 335.097593715 115.533414183 338.254882812 31.638671875 c 0
 339.4609375 -0.416015625 365.864257812 -26.0693359375 398.211914062 -26.0693359375 c 0
 431.368946049 -26.0693359375 458.212379281 0.866073403989 458.212379281 33.9171216773 c 0
 458.212379281 34.6824402564 458.197986256 35.4510379446 458.168945312 36.22265625 c 0
 453.115944233 170.49484806 421.79528394 268.820943231 389.703631922 358.976520278 c 1
 457.720694103 439.781017728 531.841635313 532.530351961 595.541015625 685.54296875 c 0
 598.700774515 693.132737564 600.167274163 700.892804389 600.167274163 708.473259856 c 0
 600.167274163 740.079035191 574.674079705 768.5625 540.123046875 768.5625 c 0
 515.162109375 768.5625 493.740234375 753.287109375 484.705078125 731.58203125 c 0
 440.672761915 625.813684065 392.997164601 554.277495623 343.998907351 492.14579299 c 1
 326.807326653 549.995428072 314.705210959 610.289110278 314.705210959 680.666286199 c 0
 314.705210959 687.59183909 314.82240527 694.615038387 315.063476562 701.743164062 c 0
 315.063476562 745.077148438 280.758789062 763.803710938 255.098632812 763.803710938 c 0
 222.673828125 763.803710938 196.221679688 738.026367188 195.133789062 705.864257812 c 0
 194.834190966 697.006629189 194.688999614 688.308582598 194.688999614 679.759980208 c 0
 194.688999614 561.402296687 222.520936334 471.691784316 253.726986934 383.722443168 c 1
EndSplineSet
EndChar

StartChar: Y
Encoding: 89 89 57
Width: 500
Flags: HW
LayerCount: 2
Fore
SplineSet
271.568455416 372.790787746 m 1
 253.365353044 284.158020686 189.497390719 51.9349678202 188.670898438 48.693359375 c 0
 187.395174325 43.6895796605 186.789422037 38.6994459685 186.789422037 33.8069664116 c 0
 186.789422037 1.72706276765 212.833149057 -26.154296875 246.81640625 -26.154296875 c 0
 274.807617188 -26.154296875 298.34765625 -6.9453125 304.961914062 18.998046875 c 0
 305.80318638 22.2975846851 369.879196985 254.746519122 389.193064209 348.925314716 c 1
 471.668405645 451.183326728 495.182842471 492.550557299 600.188476562 677.279296875 c 0
 605.575724587 686.756146546 608.036578154 696.810936188 608.036578154 706.628329163 c 0
 608.036578154 737.95593727 582.978492149 766.866210938 547.989257812 766.866210938 c 0
 525.629882812 766.866210938 506.110351562 754.609375 495.790039062 736.453125 c 0
 398.459050595 565.243124896 398.459050595 565.243124896 360.48828125 510.51953125 c 1
 343.258789062 584.697265625 328.028320312 661.641601562 320.338867188 710.432617188 c 0
 315.823242188 739.08984375 290.990234375 761.034179688 261.072265625 761.034179688 c 0
 227.489399643 761.034179688 201.060271523 733.603250327 201.060271523 701.101586379 c 0
 201.060271523 697.986326931 201.3030779 694.824482265 201.805664062 691.635742188 c 0
 214.332758593 612.148278144 242.814217638 475.214238848 271.568455416 372.790787746 c 1
EndSplineSet
EndChar

StartChar: Z
Encoding: 90 90 58
Width: 500
Flags: HW
LayerCount: 2
Fore
SplineSet
176.153320312 -17.4833984375 m 0
 223.89633328 -17.4833984375 291.784130893 -24.0111774408 361.184656452 -24.0111774408 c 0
 384.855996916 -24.0111774408 408.703324552 -23.2517511496 431.987304688 -21.21484375 c 0
 462.629882812 -18.5341796875 486.700195312 7.2216796875 486.700195312 38.5546875 c 0
 486.700195312 71.669921875 459.815429688 98.5546875 426.700195312 98.5546875 c 0
 419.984375 98.5546875 402.565429688 95.98828125 361.321289062 95.98828125 c 0
 337.206054688 95.98828125 337.206054688 95.98828125 227.846679688 101.072265625 c 1
 570.484375 668.34375 l 2
 576.396509241 678.131698772 579.114906651 688.707389391 579.114906651 699.06670055 c 0
 579.114906651 727.050710849 559.278130359 753.455750048 528.974609375 758.48828125 c 0
 505.24819792 762.428778826 474.647503563 763.812564733 441.869663625 763.812564733 c 0
 364.528855994 763.812564733 275.066887476 756.108398438 235.188476562 756.108398438 c 0
 230.569335938 756.108398438 221.399414062 756.537109375 221.259765625 756.537109375 c 0
 188.14453125 756.537109375 161.259765625 729.65234375 161.259765625 696.537109375 c 0
 161.259765625 665.052734375 185.561523438 639.200195312 216.415039062 636.73046875 c 0
 221.098901993 636.355414966 227.042729921 636.191915308 233.997343822 636.191915308 c 0
 275.899129828 636.191915308 354.493493876 642.127122319 415.28125 643.487304688 c 1
 67.513671875 67.7236328125 l 2
 61.5708448265 57.8844767344 58.8643721154 47.3387276115 58.8643721154 37.0401694028 c 0
 58.8643721154 5.76341668306 83.8272188041 -23.2333984375 118.91015625 -23.2333984375 c 0
 133.736328125 -23.2333984375 137.0703125 -17.4833984375 176.153320312 -17.4833984375 c 0
EndSplineSet
EndChar

StartChar: bracketleft
Encoding: 91 91 59
Width: 500
Flags: HW
LayerCount: 2
Fore
SplineSet
180.295898438 -28.0546875 m 0
 208.827148438 -28.0546875 239.701171875 -31.0029296875 279.65234375 -31.0029296875 c 0
 309.411132812 -31.0029296875 344.147460938 -29.322265625 386.030273438 -23.7919921875 c 0
 415.41015625 -19.912109375 438.114257812 5.2578125 438.114257812 35.689453125 c 0
 438.114257812 68.8046875 411.229492188 95.689453125 378.114257812 95.689453125 c 0
 367.416015625 95.689453125 335.318359375 88.9970703125 279.65234375 88.9970703125 c 0
 268.020507812 88.9970703125 257.790039062 89.1328125 226.7734375 90.55078125 c 1
 276.8125 286.391601562 285.86328125 465.142578125 345.66796875 646.522460938 c 1
 379.5258499 645.084394814 407.68222554 644.297871806 431.446111612 644.297871806 c 0
 457.337586766 644.297871806 478.014841273 645.231534697 495.170898438 647.2734375 c 0
 524.919921875 650.813476562 548.018554688 676.15625 548.018554688 706.850585938 c 0
 548.018554688 739.965820312 521.133789062 766.850585938 488.018554688 766.850585938 c 0
 480.486328125 766.850585938 470.485351562 764.311523438 430.833984375 764.311523438 c 0
 381.268554688 764.311523438 311.4609375 768.44140625 303.827148438 768.44140625 c 0
 278.090820312 768.44140625 256.1171875 752.202148438 247.602539062 729.420898438 c 0
 160.323242188 495.887695312 162.30859375 280.534179688 90.2216796875 48.423828125 c 0
 88.3707403803 42.4642186801 87.499407477 36.4813160532 87.499407477 30.6257885894 c 0
 87.499407477 -1.26186159058 113.339680835 -29.3720703125 147.534179688 -29.3720703125 c 0
 153.53125 -29.3720703125 160.451171875 -28.0546875 180.295898438 -28.0546875 c 0
EndSplineSet
EndChar

StartChar: backslash
Encoding: 92 92 60
Width: 500
Flags: HW
LayerCount: 2
Fore
SplineSet
419.995117188 -15.3486328125 m 0
 454.246911222 -15.3486328125 480.031877776 12.8228363296 480.031877776 44.6619414967 c 0
 480.031877776 50.7859304335 479.077954029 57.0456048323 477.046875 63.2666015625 c 0
 435.325195312 191.0546875 374.401367188 345.275390625 333.532226562 493.41015625 c 0
 312.671875 569.021484375 298.302734375 640.216796875 295.731445312 696.501953125 c 0
 294.27734375 728.329101562 267.978515625 753.72265625 235.794921875 753.72265625 c 0
 202.620555196 753.72265625 175.794414187 726.766487985 175.794414187 693.740960086 c 0
 175.794414187 692.813063279 175.815590875 691.88037529 175.858398438 690.943359375 c 0
 182.779296875 539.47265625 252.516601562 341.53125 315.336914062 163.862304688 c 0
 332.935546875 114.092773438 349.471679688 67.30078125 362.943359375 26.0361328125 c 0
 370.784179688 2.0224609375 393.376953125 -15.3486328125 419.995117188 -15.3486328125 c 0
EndSplineSet
EndChar

StartChar: bracketright
Encoding: 93 93 61
Width: 500
Flags: HW
LayerCount: 2
Fore
SplineSet
320.317382812 87.806640625 m 1
 315.648920847 87.6766156683 310.974191707 87.6184582124 306.285278887 87.6184582124 c 0
 266.504921807 87.6184582124 225.703667571 91.8044506385 179.04733241 91.8044506385 c 0
 163.836954786 91.8044506385 148.004288841 91.3595559851 131.381835938 90.1796875 c 0
 100.271484375 87.9716796875 75.68359375 62.0009765625 75.68359375 30.33203125 c 0
 75.68359375 -2.783203125 102.568359375 -29.66796875 135.68359375 -29.66796875 c 0
 140.99609375 -29.66796875 153.000976562 -28.2060546875 178.94140625 -28.2060546875 c 0
 221.84375 -28.2060546875 262.541992188 -32.3798828125 306.400390625 -32.3798828125 c 0
 377.513838396 -32.3798828125 402.493507043 -25.4393246503 416.987304688 5.22265625 c 0
 475.056946545 128.074943295 557.363231043 608.587871848 582.887695312 686.528320312 c 0
 584.923806425 692.745637206 585.882810188 699.019376109 585.882810188 705.167117731 c 0
 585.882810188 734.440770439 564.138635397 760.857597107 533.401367188 764.72265625 c 0
 506.973946535 768.046445765 482.456583367 769.29817423 457.292710943 769.29817423 c 0
 427.996823867 769.29817423 397.824676557 767.601617115 362.7421875 765.502929688 c 0
 334.39453125 763.807617188 304.40625 762.01953125 270.408203125 761.104492188 c 0
 238.05078125 760.234375 212.048828125 733.693359375 212.048828125 701.126953125 c 0
 212.048828125 667.990141927 238.96069036 641.127221219 272.041069143 641.127221219 c 0
 272.588870316 641.127221219 273.138363042 641.134587668 273.689453125 641.149414062 c 0
 275.451919258 641.196833189 443.014816008 649.185006449 449.813476562 649.25390625 c 1
 441.240234375 610.846679688 431.41015625 563.005859375 420.198242188 509.3671875 c 0
 384.396484375 338.094726562 351.000976562 180.236328125 320.317382812 87.806640625 c 1
EndSplineSet
EndChar

StartChar: asciicircum
Encoding: 94 94 62
Width: 500
Flags: HW
LayerCount: 2
Fore
SplineSet
465.064453125 483.282226562 m 0
 498.374771382 483.282226562 525.068275343 510.398965451 525.068275343 543.237776174 c 0
 525.068275343 545.038323969 524.988026265 546.856074114 524.82421875 548.6875 c 0
 516.663085938 639.901367188 486.119140625 670.233398438 479.009765625 728.099609375 c 0
 475.037096918 760.438031152 447.437298985 780.696324967 418.958113112 780.696324967 c 0
 404.10258714 780.696324967 389.007783905 775.184139886 376.90234375 762.999023438 c 0
 316.193359375 701.891601562 269.576171875 631.916992188 228.711914062 582.5859375 c 0
 219.19092112 571.092549465 214.913523288 557.825717603 214.913523288 544.833567217 c 0
 214.913523288 513.807372704 239.307049748 484.34765625 274.935546875 484.34765625 c 0
 293.524414062 484.34765625 310.150390625 492.819335938 321.159179688 506.109375 c 0
 336.328125 524.420898438 392.328125 597.5 393.05078125 598.420898438 c 1
 398.696289062 581.701171875 402.924804688 564.479492188 405.3046875 537.876953125 c 0
 408.041992188 507.290039062 433.771484375 483.282226562 465.064453125 483.282226562 c 0
EndSplineSet
EndChar

StartChar: underscore
Encoding: 95 95 63
Width: 500
Flags: HW
LayerCount: 2
Fore
SplineSet
331.430664062 -31.2705078125 m 0
 374.944335938 -31.2705078125 404.6640625 -34.6044921875 405.404296875 -34.6044921875 c 0
 438.51953125 -34.6044921875 465.404296875 -7.7197265625 465.404296875 25.3955078125 c 0
 465.404296875 56.1572265625 442.204101562 81.54296875 412.361328125 84.99609375 c 0
 389.194157912 87.6763032339 362.774590387 88.7751120284 332.63048882 88.7751120284 c 0
 288.834878244 88.7751120284 237.177351112 86.4556962421 176.209960938 83.296875 c 0
 144.814453125 81.669921875 116.77734375 80.2412109375 97.2900390625 79.8857421875 c 0
 64.6884765625 79.2900390625 38.404296875 52.6376953125 38.404296875 19.8955078125 c 0
 38.404296875 -13.2197265625 65.2890625 -40.1044921875 98.404296875 -40.1044921875 c 0
 134.459960938 -40.1044921875 251.58203125 -31.2705078125 331.430664062 -31.2705078125 c 0
EndSplineSet
EndChar

StartChar: grave
Encoding: 96 96 64
Width: 500
Flags: HW
LayerCount: 2
Fore
SplineSet
314.587890625 767.369140625 m 0
 279.65250007 767.369140625 254.540071534 738.508736324 254.540071534 707.150594516 c 0
 254.540071534 697.608153672 256.865521646 687.834418434 261.947265625 678.572265625 c 0
 267.363780723 668.699340892 337.766975927 543.717954656 444.701171875 517.560546875 c 0
 449.520280224 516.381804511 454.321506751 515.821150528 459.030636264 515.821150528 c 0
 491.150833504 515.821150528 518.986328125 541.904901691 518.986328125 575.846679688 c 0
 518.986328125 604.040039062 499.499023438 627.717773438 473.271484375 634.1328125 c 0
 436.552235115 643.114935453 387.883969023 698.519027485 367.228515625 736.166015625 c 0
 357.029296875 754.755859375 337.270507812 767.369140625 314.587890625 767.369140625 c 0
EndSplineSet
EndChar

StartChar: a
Encoding: 97 97 65
Width: 500
Flags: HW
LayerCount: 2
Fore
SplineSet
343.111328125 24.404296875 m 1
 348.190706258 7.2409143143 359.728627499 -31.74609375 404.770507812 -31.74609375 c 0
 437.885742188 -31.74609375 464.770507812 -4.861328125 464.770507812 28.25390625 c 0
 464.770507812 51.1708984375 445.65234375 78.234375 445.65234375 138.893554688 c 0
 445.65234375 220.252317219 487.866210938 336.846046145 487.866210938 368.8203125 c 0
 487.866210938 403.58071943 459.174745725 428.867875292 427.70954599 428.867875292 c 0
 419.070041422 428.867875292 410.22142359 426.96146367 401.700195312 422.821289062 c 1
 379.729601621 429.636566348 358.530276469 432.791247569 338.239089184 432.791247569 c 0
 191.507304811 432.791247569 92.263671875 267.827330762 92.263671875 129.205078125 c 0
 92.263671875 19.2890625 156.418945312 -31.9560546875 224.755859375 -31.9560546875 c 0
 259.65234375 -31.9560546875 301.280273438 -18.9423828125 343.111328125 24.404296875 c 1
352.2109375 311.553710938 m 1
 335.613181544 242.201518976 271.488702618 88.0439453125 224.755859375 88.0439453125 c 0
 221.6484375 88.0439453125 219.850585938 88.0439453125 216.620117188 97.45703125 c 0
 213.660530267 106.081576968 212.234852547 116.717323153 212.234852547 128.60132908 c 0
 212.234852547 198.818245383 262.006171384 312.612705712 339.2238703 312.612705712 c 0
 343.471095866 312.612705712 347.801356591 312.268436598 352.2109375 311.553710938 c 1
EndSplineSet
EndChar

StartChar: b
Encoding: 98 98 66
Width: 500
Flags: HW
LayerCount: 2
Fore
SplineSet
502.5078125 296.541992188 m 0
 502.5078125 380.012695312 435.403320312 444.463867188 362.27734375 444.463867188 c 0
 337.103515625 444.463867188 313.209960938 440.775390625 291.0859375 433.44921875 c 1
 321.401367188 563.970703125 345.6171875 677.734375 349.591796875 700.435546875 c 0
 350.208985774 703.961416566 350.506171036 707.459076842 350.506171036 710.901455393 c 0
 350.506171036 743.320736686 324.147908489 770.836914062 290.491210938 770.836914062 c 0
 260.922851562 770.836914062 236.322265625 749.40234375 231.390625 721.23828125 c 0
 230.477539062 716.016601562 170.052734375 423.91796875 110.994140625 205.06640625 c 0
 110.449756446 203.510201182 65.6389010546 66.9896025482 59.0205078125 48.60546875 c 0
 56.5989288957 41.8797871778 55.4618337778 35.048899596 55.4618337778 28.3554468728 c 0
 55.4618337778 -0.225590335942 76.1943667651 -26.3007925522 106.184570312 -30.9794921875 c 0
 132.5353801 -35.0904965771 157.505884086 -37.039149896 181.115660006 -37.039149896 c 0
 400.621599209 -37.039149896 502.5078125 131.400140088 502.5078125 296.541992188 c 0
382.5078125 296.541992188 m 0
 382.5078125 263.783203125 374.061523438 95.36328125 200.955078125 83.5908203125 c 1
 208.28515625 107.083007812 216.450195312 135.366210938 225.366210938 168.196289062 c 0
 266.665039062 285.203125 301.895507812 324.463867188 362.27734375 324.463867188 c 0
 370.3203125 323.362304688 382.5078125 312.868164062 382.5078125 296.541992188 c 0
EndSplineSet
EndChar

StartChar: c
Encoding: 99 99 67
Width: 500
Flags: HW
LayerCount: 2
Fore
SplineSet
211.267578125 126.002929688 m 0
 211.267578125 180.588867188 271.109375 318.46875 368.07421875 318.46875 c 0
 368.293945312 318.43359375 381.678710938 315.791992188 387.500976562 307.6640625 c 1
 392.111328125 279.116210938 416.892578125 257.286132812 446.732421875 257.286132812 c 0
 483.362765862 257.286132812 505.899146685 284.67257432 505.899146685 319.207833372 c 0
 505.899146685 346.41241183 491.914782086 378.053002965 459.819335938 404.237304688 c 0
 447.80859375 414.036132812 413.3203125 438.46875 368.07421875 438.46875 c 0
 193.766601562 438.46875 91.267578125 239.500976562 91.267578125 126.002929688 c 0
 91.267578125 35.8880205413 158.339636816 -38.33435157 254.273386686 -38.33435157 c 0
 271.993023904 -38.33435157 290.697326317 -35.802130365 310.145507812 -30.3701171875 c 0
 329.603515625 -24.9345703125 412.193359375 1.685546875 452.766601562 71.5126953125 c 0
 458.349445595 81.1210450777 460.896838807 91.3514200099 460.896838807 101.34076411 c 0
 460.896838807 132.650191055 435.871942992 161.591796875 400.849609375 161.591796875 c 0
 378.692382812 161.591796875 359.325195312 149.555664062 348.932617188 131.670898438 c 0
 336.927165686 111.008667504 290.574092545 81.6174469791 254.555116597 81.6174469791 c 0
 241.099788705 81.6174469791 229.08657082 85.7189540993 220.844726562 95.9091796875 c 0
 215.416992188 102.62109375 211.267578125 112.6640625 211.267578125 126.002929688 c 0
EndSplineSet
EndChar

StartChar: d
Encoding: 100 100 68
Width: 500
Flags: HW
LayerCount: 2
Fore
SplineSet
75.87109375 138.068359375 m 0
 75.87109375 17.939453125 153.55859375 -37.7392578125 238.068359375 -37.7392578125 c 0
 400.419921875 -37.7392578125 560.068359375 273.641601562 586.022460938 712.145507812 c 0
 586.094338748 713.359718386 586.129787442 714.567037745 586.129787442 715.766453795 c 0
 586.129787442 748.739280907 559.339776481 775.739257812 526.12890625 775.739257812 c 0
 494.220703125 775.739257812 468.095703125 750.77734375 466.235351562 719.333007812 c 0
 459.900390625 612.30078125 445.298828125 516.557617188 425.7265625 433.768554688 c 1
 402.647460938 447.081054688 375.08203125 455.37109375 344.91015625 455.37109375 c 0
 195.905273438 455.37109375 75.87109375 271.055664062 75.87109375 138.068359375 c 0
238.068359375 82.2607421875 m 0
 222.275075169 82.2607421875 195.87109375 82.6881419691 195.87109375 138.068359375 c 0
 195.87109375 215.64453125 275.215820312 335.37109375 344.91015625 335.37109375 c 0
 350.283203125 335.37109375 374.860351562 333.732421875 387.849609375 304.65625 c 1
 326.067393915 132.439294026 256.152441512 82.2607421875 238.068359375 82.2607421875 c 0
EndSplineSet
EndChar

StartChar: e
Encoding: 101 101 69
Width: 500
Flags: HW
LayerCount: 2
Fore
SplineSet
91.16015625 126.565429688 m 0
 91.16015625 34.390625 165.712890625 -31.35546875 251.665039062 -31.35546875 c 0
 348.826171875 -31.35546875 417.584960938 30.09375 453.6328125 91.0048828125 c 0
 459.384357391 100.723306966 462.00634227 111.102782288 462.00634227 121.238204382 c 0
 462.00634227 152.531894369 437.010944347 181.499023438 401.959960938 181.499023438 c 0
 379.974609375 181.499023438 360.735351562 169.6484375 350.287109375 151.993164062 c 0
 328.586914062 115.326171875 294.041015625 88.64453125 251.665039062 88.64453125 c 0
 237.692382812 88.64453125 211.16015625 96.697265625 211.16015625 126.565429688 c 0
 211.16015625 134.513671875 211.780273438 142.642578125 212.985351562 150.862304688 c 1
 223.731501008 148.01850785 238.18403025 145.453122189 255.354998225 145.453122189 c 0
 297.608464507 145.453122189 356.322872523 160.987282798 416.77734375 226.1328125 c 0
 457.933299595 270.481277215 475.265868547 313.482409926 475.265868547 349.841631184 c 0
 475.265868547 409.865576053 428.028808524 451.788085938 362.7578125 451.788085938 c 0
 238.479492188 451.788085938 91.16015625 290.5 91.16015625 126.565429688 c 0
344.817382812 327.938476562 m 1
 332.6796875 309.342773438 299.377929688 274.0859375 266.376953125 266.251953125 c 1
 274.797851562 276.638671875 307.435546875 314.595703125 344.817382812 327.938476562 c 1
EndSplineSet
EndChar

StartChar: f
Encoding: 102 102 70
Width: 500
Flags: HW
LayerCount: 2
Fore
SplineSet
442.780273438 774.111328125 m 0
 328.494154969 774.111328125 288.997151395 609.395888506 256.956954329 418.329420252 c 1
 251.427191104 418.459402447 240.918730545 418.534310645 240.852539062 418.53515625 c 1
 207.737304688 418.53515625 180.852539062 391.650390625 180.852539062 358.53515625 c 0
 180.852539062 326.306770954 206.317232683 299.979446248 238.205580529 298.59240029 c 1
 216.671620024 155.041495427 196.948190923 15.34869845 166.255859375 -52.443359375 c 1
 161.358398438 -39.9814453125 158.1640625 -24.388671875 158.1640625 -12.193359375 c 0
 158.1640625 -3.0078125 159.544921875 -1.1728515625 159.544921875 6.904296875 c 0
 159.544921875 40.01953125 132.66015625 66.904296875 99.544921875 66.904296875 c 0
 69.5087890625 66.904296875 44.59765625 44.7861328125 40.2255859375 15.962890625 c 0
 38.8420084695 6.84210289395 38.1660364524 -2.62430403624 38.1660364524 -12.264339485 c 0
 38.1660364524 -94.8208155394 87.7422951694 -190.111328125 167.026367188 -190.111328125 c 0
 251.665039062 -190.111328125 284.01171875 -85.861328125 295.783203125 -46.765625 c 0
 321.992384777 40.2871193948 340.464738022 169.585009238 359.34421933 294.791212541 c 1
 376.900296205 294.880128817 395.720152686 295.692061464 417.013671875 297.818359375 c 0
 447.3046875 300.84375 470.990234375 326.4375 470.990234375 357.51953125 c 0
 470.990234375 390.634765625 444.10546875 417.51953125 410.990234375 417.51953125 c 0
 405.427872123 417.51953125 395.70912297 416.055367309 378.37965238 415.268711559 c 1
 387.691944603 469.910830182 410.727451753 601.492804333 443.626953125 648.172851562 c 1
 447.883789062 641.265625 460.103515625 617.470703125 460.103515625 571.995117188 c 0
 460.103515625 565.953125 459.608398438 554.612304688 459.608398438 554.436523438 c 0
 459.608398438 521.321289062 486.493164062 494.436523438 519.608398438 494.436523438 c 0
 551.583984375 494.436523438 577.750976562 519.50390625 579.513671875 551.041992188 c 0
 579.922222809 558.352236862 580.122441329 565.530548208 580.122441329 572.569466896 c 0
 580.122441329 694.12541824 520.412753043 774.111328125 442.780273438 774.111328125 c 0
EndSplineSet
EndChar

StartChar: g
Encoding: 103 103 71
Width: 500
Flags: HW
LayerCount: 2
Fore
SplineSet
230.924804688 -65.384765625 m 1
 210.827787792 -81.8601823265 190.853925332 -92.3522379718 162.539777606 -92.3522379718 c 0
 156.099886217 -92.3522379718 149.228544302 -91.80947441 141.826171875 -90.6708984375 c 1
 155.713867188 -84.4462890625 182.884765625 -74.6708984375 230.924804688 -65.384765625 c 1
3.66796875 -91.4287109375 m 0
 3.66796875 -104.737559368 8.49638550091 -212.344443211 164.660196014 -212.344443211 c 0
 167.411131542 -212.344443211 170.209028416 -212.311051391 173.0546875 -212.243164062 c 0
 239.072265625 -210.668945312 330.220703125 -169.5234375 398.044921875 -45.0830078125 c 1
 409.817382812 -44.2607421875 421.67578125 -43.5341796875 433.563476562 -42.9013671875 c 0
 465.178710938 -41.2197265625 490.33203125 -15.017578125 490.33203125 17.0126953125 c 0
 490.33203125 44.3076171875 472.06640625 67.3701171875 447.102539062 74.6337890625 c 1
 468.079101562 143.701171875 483.342773438 227.3125 490.590820312 327.704101562 c 0
 490.69306833 329.121021649 490.743097239 330.531854534 490.743097239 331.9360944 c 0
 490.743097239 379.348441882 433.710735836 419.244826379 403.947265625 432.15625 c 0
 380.906424987 442.152474966 356.676406124 446.780110351 332.23327401 446.780110351 c 0
 204.460446678 446.780110351 70.8642578125 320.329062439 70.8642578125 173.263671875 c 0
 70.8642578125 142.852543359 79.129375305 68.1901716457 157.15625 40.9208984375 c 1
 121.789168089 31.4913552934 3.66796875 -0.00202457341955 3.66796875 -91.4287109375 c 0
367.2734375 315.590820312 m 1
 359.214160815 274.643358219 325.712212468 152.211914062 213.231445312 152.211914062 c 0
 198.354492188 152.211914062 193.8515625 155.642578125 193.8515625 155.642578125 c 2
 193.850890104 155.642340072 193.850148909 155.64222081 193.849339624 155.64222081 c 0
 193.68925868 155.64222081 190.865015583 160.308566935 190.865015583 173.28108158 c 0
 190.865015583 175.578104419 190.953564726 178.135552469 191.161132812 180.973632812 c 0
 197.067080176 261.679521904 274.931564024 326.612370885 332.09117274 326.612370885 c 0
 345.307267715 326.612370885 357.416482988 323.141069945 367.2734375 315.590820312 c 1
EndSplineSet
EndChar

StartChar: h
Encoding: 104 104 72
Width: 500
Flags: HW
LayerCount: 2
Fore
SplineSet
362.05078125 327.439453125 m 1
 362.05078125 327.162109375 364.375 318.073242188 364.375 299.860351562 c 0
 364.375 255.3046875 351.733398438 179.249023438 311.799804688 50.037109375 c 0
 309.965843408 44.1028441132 309.102306288 38.1466552139 309.102306288 32.3170455563 c 0
 309.102306288 0.424446113283 334.94762522 -27.6796875 369.13671875 -27.6796875 c 0
 396.0859375 -27.6796875 418.908203125 -9.875 426.473632812 14.603515625 c 0
 464.600948907 137.971626586 484.363848158 231.122953689 484.363848158 299.525720284 c 0
 484.363848158 359.754041005 469.042223089 400.795492416 437.444335938 426.3828125 c 0
 429.643759949 432.699261605 405.23416155 449.72949653 368.800442477 449.72949653 c 0
 349.327821349 449.72949653 326.420450132 444.864724916 300.778320312 430.899414062 c 1
 345.578125 602.4296875 368.8828125 691.662109375 368.8828125 712.694335938 c 0
 368.8828125 745.809570312 341.998046875 772.694335938 308.8828125 772.694335938 c 0
 279.163085938 772.694335938 254.459960938 751.0390625 249.708007812 722.66015625 c 0
 237.5625 650.129882812 135.073242188 286.797851562 78.86328125 40.4736328125 c 0
 77.8314760243 35.9518565658 77.3393523296 31.4530627276 77.3393523296 27.0375164868 c 0
 77.3393523296 -5.14783168183 103.48634978 -32.91015625 137.362304688 -32.91015625 c 0
 165.250976562 -32.91015625 188.721679688 -13.8408203125 195.434570312 11.958984375 c 0
 231.94921875 152.286132812 277.768554688 240.515625 315.713867188 287.004882812 c 0
 323.752929688 296.853515625 343.189453125 318.959960938 362.05078125 327.439453125 c 1
EndSplineSet
EndChar

StartChar: i
Encoding: 105 105 73
Width: 500
Flags: HW
LayerCount: 2
Fore
SplineSet
400.362304688 455.654296875 m 0
 450.10546875 455.654296875 483.359375 499.994140625 483.359375 540.610351562 c 0
 483.359375 584.763671875 447.512695312 620.610351562 403.359375 620.610351562 c 0
 373.284179688 620.610351562 347.0625 603.978515625 333.399414062 579.41796875 c 0
 324.391640542 565.670691641 320.305320556 550.7059068 320.305320556 536.085947764 c 0
 320.305320556 494.473344871 353.410033338 455.654296875 400.362304688 455.654296875 c 0
404.745117188 181.546875 m 0
 353.376424974 181.546875 349.027653003 127.800213451 290.670898438 84.517578125 c 1
 290.653125734 85.4500134684 290.644318521 86.3920798676 290.644318521 87.3435313523 c 0
 290.644318521 160.681550453 342.971038039 289.779636323 375.138671875 361.993164062 c 0
 378.699353923 369.986912105 380.346245397 378.210664104 380.346245397 386.241863825 c 0
 380.346245397 417.785838959 354.9402057 446.359375 320.299804688 446.359375 c 0
 297.188476562 446.359375 285.279296875 435.578125 272.856445312 424.333007812 c 0
 240.583007812 395.118164062 207.973632812 365.599609375 192.364257812 365.599609375 c 0
 189.791992188 365.599609375 186.930664062 366.57421875 180.255859375 366.57421875 c 0
 147.140625 366.57421875 120.255859375 339.689453125 120.255859375 306.57421875 c 0
 120.255859375 299.687385576 122.454066078 245.56287724 191.561490608 245.56287724 c 0
 194.655585694 245.56287724 197.883803963 245.671372774 201.251953125 245.897460938 c 1
 179.1803271 176.73918883 170.565733554 125.771961003 170.565733554 87.1878930505 c 0
 170.565733554 51.9715188641 177.742156784 27.0709878699 188.413085938 8.0703125 c 0
 203.756783793 -19.2501023312 234.392849762 -44.4357285288 275.975648955 -44.4357285288 c 0
 323.273979101 -44.4357285288 384.735095768 -11.8507883492 453.963867188 87.2412109375 c 0
 461.414284872 97.9052812678 464.784257379 109.675873281 464.784257379 121.180685783 c 0
 464.784257379 152.338468097 440.066996299 181.546875 404.745117188 181.546875 c 0
EndSplineSet
EndChar

StartChar: j
Encoding: 106 106 74
Width: 500
Flags: HW
LayerCount: 2
Fore
SplineSet
184.892578125 275.040039062 m 0
 184.892578125 240.251380092 213.612211858 214.992583175 245.05898901 214.992583175 c 0
 253.847145652 214.992583175 262.848288397 216.96526005 271.495117188 221.25390625 c 0
 276.194335938 223.583984375 280.911132812 226.0703125 285.638671875 228.697265625 c 1
 276.458007812 192.754882812 267.094726562 160.618164062 257.356445312 130.41015625 c 1
 186.817382812 101.109375 -1.7431640625 16.5224609375 -1.7431640625 -100.526367188 c 0
 -1.7431640625 -153.911132812 40.8056640625 -201.244140625 111.219726562 -201.244140625 c 0
 192.5703125 -201.244140625 284.845703125 -139.4765625 332.216796875 -16.73828125 c 0
 339.284179688 1.5712890625 346.16796875 19.9697265625 352.893554688 38.833984375 c 1
 377.467773438 47.9501953125 404.2421875 57.14453125 433.338867188 66.3232421875 c 0
 457.645507812 73.9921875 475.2890625 96.73046875 475.2890625 123.556640625 c 0
 475.2890625 157.404634834 447.548054647 183.579495807 415.364078163 183.579495807 c 0
 409.352017308 183.579495807 403.184917589 182.66611535 397.014648438 180.71875 c 1
 411.575195312 235.36328125 425.557617188 297.5390625 439.290039062 372.31640625 c 0
 439.967744594 376.00653829 440.293546127 379.668287029 440.293546127 383.270352042 c 0
 440.293546127 415.648946058 413.968690314 443.205078125 380.27734375 443.205078125 c 0
 361.637695312 443.205078125 344.970703125 434.686523438 333.962890625 421.333984375 c 0
 306.485351562 388.004882812 255.099609375 347.083007812 218.290039062 328.826171875 c 0
 198.505859375 319.013671875 184.892578125 298.604492188 184.892578125 275.040039062 c 0
143.97265625 -71.05859375 m 1
 149.2109375 -66.3857421875 159.327148438 -57.7763671875 175.221679688 -46.978515625 c 1
 164.461914062 -57.9794921875 153.721679688 -65.7392578125 143.97265625 -71.05859375 c 1
405.56640625 445.801757812 m 0
 455.28125 445.801757812 488.483398438 490.048828125 488.483398438 530.680664062 c 0
 488.483398438 574.833984375 452.63671875 610.680664062 408.483398438 610.680664062 c 0
 378.283203125 610.680664062 351.969726562 593.91015625 338.354492188 569.182617188 c 0
 329.518921364 555.529614773 325.508382887 540.704738857 325.508382887 526.222532911 c 0
 325.508382887 484.596667207 358.641310116 445.801757813 405.56640625 445.801757812 c 0
EndSplineSet
EndChar

StartChar: k
Encoding: 107 107 75
Width: 500
Flags: HW
LayerCount: 2
Fore
SplineSet
410.546875 84.759765625 m 0
 402.011007111 84.759765625 394.339886434 82.4344298005 388.084513588 82.4344298005 c 0
 385.751989867 82.4344298005 383.616314434 82.7577489438 381.706054688 83.6455078125 c 0
 363.458007812 92.1259765625 345.290039062 160.451171875 319.185546875 204.022460938 c 1
 461.26773321 264.724037192 498.570836754 342.960333654 498.570836754 394.088442542 c 0
 498.570836754 407.05740091 496.170701594 418.282179627 492.471679688 427.034179688 c 0
 477.302460622 462.926350837 443.239834723 479.051823832 402.282513515 479.051823832 c 0
 363.860583892 479.051823832 319.371146591 464.860996413 278.719726562 439.485351562 c 1
 299.950195312 519.75 321.234375 602.52734375 340.9765625 692.03515625 c 0
 341.94309171 696.4171064 342.404685381 700.77432441 342.404685381 705.052393836 c 0
 342.404685381 737.269014251 316.227427613 764.997070312 282.3828125 764.997070312 c 0
 253.717773438 764.997070312 229.720703125 744.8515625 223.7890625 717.958984375 c 0
 200.19140625 610.974609375 174.116210938 512.983398438 148.134765625 415.396484375 c 0
 116.252929688 295.649414062 84.4833984375 176.442382812 58.3466796875 43.2080078125 c 0
 57.5761244566 39.2802676713 57.206534263 35.3805437052 57.206534263 31.5470490885 c 0
 57.206534263 -0.775490930007 83.4814715252 -28.3896484375 117.224609375 -28.3896484375 c 0
 146.295898438 -28.3896484375 170.56640625 -7.669921875 176.059570312 19.7958984375 c 0
 186.124023438 70.1103515625 198.25 113.021484375 211.532226562 149.564453125 c 1
 240.692382812 107.630859375 254.163085938 10.578125 331.236328125 -25.240234375 c 0
 348.571579556 -33.2964540415 369.732237343 -37.7970302836 390.273886194 -37.7970302836 c 0
 431.6671502 -37.7970302836 470.546875 -19.5220520523 470.546875 24.759765625 c 0
 470.546875 57.875 443.662109375 84.759765625 410.546875 84.759765625 c 0
EndSplineSet
EndChar

StartChar: l
Encoding: 108 108 76
Width: 500
Flags: HW
LayerCount: 2
Fore
SplineSet
250.2421875 514.557617188 m 1
 152.802822816 200.696414603 148.660363529 187.353170243 138.918945312 122.015625 c 0
 137.199263607 110.481774933 136.391193251 99.6703354599 136.391193251 89.5559496922 c 0
 136.391193251 2.56740186202 196.162714446 -32.861328125 249.836914062 -32.861328125 c 0
 333.994140625 -32.861328125 439.505859375 45.9208984375 486.6953125 155.810546875 c 0
 490.033627942 163.584563259 491.58055904 171.554677025 491.58055904 179.339262821 c 0
 491.58055904 210.91671403 466.126672921 239.44140625 431.53515625 239.44140625 c 0
 406.80859375 239.44140625 385.556640625 224.452148438 376.375 203.072265625 c 0
 349.334960938 140.104492188 291.9140625 95.04296875 256.39453125 87.94921875 c 1
 256.381868396 88.4352094119 256.375554415 88.9352729132 256.375554415 89.4493701006 c 0
 256.375554415 126.362330099 288.927021645 235.625375264 341.114257812 402.745117188 c 0
 366.79296875 484.9765625 397.147460938 582.176757812 430.70703125 695.896484375 c 0
 432.389338232 701.596859798 433.183120605 707.307706305 433.183120605 712.899357755 c 0
 433.183120605 744.836780704 407.287817102 772.885742188 373.150390625 772.885742188 c 0
 354.51171875 772.885742188 337.846679688 764.368164062 326.837890625 751.016601562 c 0
 271.642366088 684.073932856 216.283137619 623.155273438 197.608398438 623.155273438 c 0
 164.493164062 623.155273438 137.608398438 596.270507812 137.608398438 563.155273438 c 0
 137.608398438 535.60546875 158.158203125 503.098632812 199.8515625 503.098632812 c 0
 219.141601562 503.098632812 235.719726562 508.00390625 250.2421875 514.557617188 c 1
EndSplineSet
EndChar

StartChar: m
Encoding: 109 109 77
Width: 500
Flags: HW
LayerCount: 2
Fore
SplineSet
362.104492188 408.237304688 m 1
 349.122009735 428.023499407 326.193949805 442.359187928 299.869788483 442.359187928 c 0
 281.438728053 442.359187928 261.342828755 435.331538073 241.830078125 418.2265625 c 1
 231.314453125 435.599609375 212.235351562 447.220703125 190.462890625 447.220703125 c 0
 155.733126444 447.220703125 130.415551603 418.558787036 130.415551603 387.074643884 c 0
 130.415551603 378.588412023 132.25491751 369.897140451 136.245117188 361.506835938 c 1
 136.457605705 359.569420252 136.560079986 357.398115955 136.560079986 355.010345357 c 0
 136.560079986 290.106753096 60.84765625 65.2685101344 60.84765625 30.3876953125 c 0
 60.84765625 -2.7275390625 87.732421875 -29.6123046875 120.84765625 -29.6123046875 c 0
 147.522460938 -29.6123046875 170.154296875 -12.16796875 177.94921875 11.92578125 c 0
 196.036132812 67.837890625 213.875 116.959960938 230.796875 158.940429688 c 1
 222.668945312 126.33203125 212.6796875 89.9111328125 200.66015625 49.732421875 c 0
 198.9346538 43.9642254383 198.120983977 38.1824063351 198.120983977 32.5219038118 c 0
 198.120983977 0.597670195794 224.001873139 -27.4677734375 258.154296875 -27.4677734375 c 0
 284.982421875 -27.4677734375 307.721679688 -9.822265625 315.388671875 14.486328125 c 0
 327.834960938 53.947265625 340.01171875 89.841796875 351.739257812 122.126953125 c 1
 345.701171875 98.1806640625 338.8046875 72.5615234375 330.991210938 45.3486328125 c 0
 329.393313681 39.7839645137 328.638439988 34.2146273912 328.638439988 28.7602225152 c 0
 328.638439988 -3.20374683107 354.562377008 -31.220703125 388.669921875 -31.220703125 c 0
 416.038085938 -31.220703125 439.150390625 -12.857421875 446.348632812 12.2099609375 c 0
 493.209682913 175.403891631 507.010337203 269.864751403 507.010337203 326.345332995 c 0
 507.010337203 378.059617069 495.440629419 397.933329611 487.084960938 409.572265625 c 0
 474.755871877 426.746358156 453.112761793 440.729703275 427.684084477 440.729703275 c 0
 407.306855579 440.729703275 384.49868987 431.750169613 362.104492188 408.237304688 c 1
EndSplineSet
EndChar

StartChar: n
Encoding: 110 110 78
Width: 500
Flags: HW
LayerCount: 2
Fore
SplineSet
265.532226562 382.498046875 m 1
 262.205809996 397.821594539 248.706496608 441.340820312 202.671875 441.340820312 c 0
 167.94307853 441.340820312 142.624623532 412.67949111 142.624623532 381.194447028 c 0
 142.624623532 372.713055977 144.4618503 364.026762827 148.447265625 355.640625 c 1
 148.649839622 353.750499985 148.747606677 351.637907892 148.747606677 349.319081546 c 0
 148.747606677 284.913281592 73.32421875 61.4059706979 73.32421875 26.625 c 0
 73.32421875 -6.490234375 100.208984375 -33.375 133.32421875 -33.375 c 0
 157.846679688 -33.375 178.952148438 -18.6318359375 188.254882812 2.4658203125 c 0
 239.487304688 118.666992188 300.862304688 241.765625 352.920898438 299.881835938 c 1
 355.05570561 286.005880399 356.059313747 270.193409286 356.059313747 253.340999429 c 0
 356.059313747 185.385654154 339.740544747 100.520800552 315.46875 57.5322265625 c 0
 310.141114353 48.0962186314 307.706665609 38.0955089506 307.706665609 28.3310753529 c 0
 307.706665609 -3.00264326094 332.775284064 -31.9033203125 367.75390625 -31.9033203125 c 0
 390.17578125 -31.9033203125 409.741210938 -19.578125 420.0390625 -1.3388671875 c 0
 451.002254761 53.5006748712 476.636141446 158.157187277 476.636141446 251.539307621 c 0
 476.636141446 325.314044294 460.636791612 392.051886994 418.625976562 421.62890625 c 0
 408.857466721 428.505984654 390.94565072 438.106958637 367.076507163 438.106958637 c 0
 339.883154679 438.106958637 304.957598062 425.64555039 265.532226562 382.498046875 c 1
EndSplineSet
EndChar

StartChar: o
Encoding: 111 111 79
Width: 500
Flags: HW
LayerCount: 2
Fore
SplineSet
241.439453125 -39.365234375 m 0
 379.908203125 -39.365234375 503.784179688 123.302734375 503.784179688 254.051757812 c 0
 503.784179688 373.564453125 436.349609375 443.357421875 343.426757812 443.357421875 c 0
 218.080078125 443.357421875 84.2158203125 300.09765625 84.2158203125 135.977539062 c 0
 84.2158203125 27.6328125 149.044921875 -39.365234375 241.439453125 -39.365234375 c 0
241.439453125 80.634765625 m 0
 230.169530774 80.634765625 204.215820312 80.634765625 204.215820312 135.977539062 c 0
 204.215820312 236.768201103 289.553208413 323.494594778 343.858461226 323.494594778 c 0
 349.382853356 323.494594778 354.586103584 322.597090342 359.345703125 320.725585938 c 0
 381.072265625 312.182617188 383.784179688 269.09375 383.784179688 254.051757812 c 0
 383.784179688 182.647460938 305.122070312 80.634765625 241.439453125 80.634765625 c 0
EndSplineSet
EndChar

StartChar: p
Encoding: 112 112 80
Width: 500
Flags: HW
LayerCount: 2
Fore
SplineSet
179.076171875 -14.5234375 m 1
 186.259392186 -14.907537865 193.328142529 -15.095782861 200.28229838 -15.095782861 c 0
 407.919993888 -15.095782861 513.396178955 152.725486557 513.396178955 285.790492797 c 0
 513.396178955 344.460271665 492.891376064 396.373356354 451.59765625 424.166015625 c 0
 431.770669321 437.510811561 396.188872885 456.302097653 353.027528636 456.302097653 c 0
 315.526693642 456.302097653 272.304024726 442.116473278 228.721679688 397.84765625 c 1
 216.535031355 410.521662738 201.153498027 416.244145899 186.009963005 416.244145899 c 0
 157.245098947 416.244145899 129.338939876 395.597255964 125.818359375 362.7265625 c 0
 117.462890625 284.72265625 46.87890625 -23.265625 32.5673828125 -153.515625 c 0
 32.3207774651 -155.759801326 32.2004896827 -157.9855653 32.2004896827 -160.186332388 c 0
 32.2004896827 -192.924341809 58.8186411274 -220.130859375 92.2060546875 -220.130859375 c 0
 122.840820312 -220.130859375 148.14453125 -197.12109375 151.762695312 -167.45703125 c 0
 157.907226562 -117.075195312 166.918945312 -67.69140625 179.076171875 -14.5234375 c 1
384.510742188 324.680664062 m 1
 390.120295085 318.645959551 393.390893139 305.589144238 393.390893139 288.697564015 c 0
 393.390893139 226.08890242 348.458923847 110.797662186 211.155273438 105.125 c 1
 228.079101562 159.17578125 264.58203125 261.267578125 312.181640625 311.56640625 c 0
 328.97903787 329.316072298 342.210614714 336.190238342 354.575877172 336.190238342 c 0
 364.642803869 336.190238342 374.135531263 331.633992462 384.510742188 324.680664062 c 1
EndSplineSet
EndChar

StartChar: q
Encoding: 113 113 81
Width: 500
Flags: HW
LayerCount: 2
Fore
SplineSet
324.166015625 -206.61328125 m 0
 408.690262685 -206.61328125 510.96875 -98.956437478 510.96875 -33.9912109375 c 0
 510.96875 -0.8759765625 484.083984375 26.0087890625 450.96875 26.0087890625 c 0
 422.09765625 26.0087890625 397.961914062 5.5732421875 392.25 -21.609375 c 0
 391.890625 -22.599609375 389.647460938 -28 385.627929688 -34.728515625 c 1
 393.69921875 -10.6474609375 403.5625 17.0537109375 414.40625 47.42578125 c 0
 442.67578125 126.606445312 477.602539062 224.275390625 505.734375 331.103515625 c 0
 507.071835316 336.182716097 507.717034419 341.313103252 507.717034419 346.382617213 c 0
 507.717034419 367.727476067 496.27909788 387.993189396 476.916015625 398.815429688 c 0
 435.927734375 421.724609375 394.767578125 433.48046875 354.62109375 433.48046875 c 0
 194.176057222 433.48046875 99.1029082768 246.105479055 99.1029082768 111.009002377 c 0
 99.1029082768 66.2026296817 109.560926807 27.1468781018 131.560546875 2.5849609375 c 0
 142.047963122 -9.12528286374 165.939495038 -28.7089037439 208.436967289 -28.7089037439 c 0
 224.40563586 -28.7089037439 243.001321172 -25.943845973 264.5 -18.95703125 c 1
 252.024124711 -58.3826977964 243.464098244 -91.1734570267 243.464098244 -119.163207645 c 0
 243.464098244 -137.193893509 247.016332054 -153.23226017 255.362304688 -167.768554688 c 0
 260.892578125 -177.400390625 281.205078125 -206.61328125 324.166015625 -206.61328125 c 0
219.887695312 93.251953125 m 1
 219.317937884 97.8221984276 219.036488049 102.817168389 219.036488049 108.156011878 c 0
 219.036488049 179.829977261 269.762355818 313.48046875 354.62109375 313.48046875 c 0
 360.471679688 313.48046875 366.931640625 312.884765625 374.044921875 311.4296875 c 1
 352.967773438 249.72265625 297.193359375 109.880859375 219.887695312 93.251953125 c 1
EndSplineSet
EndChar

StartChar: r
Encoding: 114 114 82
Width: 500
Flags: HW
LayerCount: 2
Fore
SplineSet
490.803710938 306.857421875 m 0
 490.803710938 385.765378889 436.810590551 444.693272497 369.667413929 444.693272497 c 0
 344.587111477 444.693272497 317.672006283 436.471173763 291.05078125 417.997070312 c 1
 279.981606716 440.756141578 258.64590758 451.597480227 237.372501334 451.597480227 c 0
 212.023905806 451.597480227 186.763755061 436.204714958 179.06640625 407.240234375 c 0
 153.59765625 311.40625 132.271484375 188.520507812 94.9970703125 42.8310546875 c 0
 93.7129391279 37.8116814872 93.1032842135 32.8055673691 93.1032842135 27.8975844013 c 0
 93.1032842135 -4.17925403941 119.144490549 -32.064453125 153.130859375 -32.064453125 c 0
 180.650390625 -32.064453125 203.868164062 -13.4970703125 210.927734375 11.783203125 c 0
 252.0625 159.080078125 295.67578125 245.87109375 329.193359375 288.840820312 c 0
 334.525390625 295.676757812 351.916015625 316.915039062 367.001953125 323.442382812 c 0
 368.595703125 320.110351562 370.715820312 314.020507812 370.807617188 306.145507812 c 0
 371.190429688 273.358398438 397.926757812 246.857421875 430.803710938 246.857421875 c 0
 463.918945312 246.857421875 490.803710938 273.7421875 490.803710938 306.857421875 c 0
EndSplineSet
EndChar

StartChar: s
Encoding: 115 115 83
Width: 500
Flags: HW
LayerCount: 2
Fore
SplineSet
464.44921875 349.008789062 m 0
 435.125735356 409.682655624 382.146269082 434.809770036 328.312194937 434.809770036 c 0
 243.550844633 434.809770036 156.670898438 372.518977867 156.670898438 288.607421875 c 0
 156.670898438 263.533203125 164.024414062 211.69140625 221.014648438 186.439453125 c 0
 261.350585938 168.565429688 303.091796875 172.670898438 322.848632812 163.268554688 c 1
 323.491164372 160.88148438 324.153204997 156.874034693 324.153204997 151.767931404 c 0
 324.153204997 137.86057013 319.241922425 115.802956321 295.6484375 96.13671875 c 0
 282.508222911 85.184136175 270.976737253 80.9441626478 260.909367703 80.9441626478 c 0
 240.983179313 80.9441626478 226.792764002 97.5545433855 217.216796875 111.602539062 c 0
 206.412109375 127.451171875 188.215820312 137.865234375 167.60546875 137.865234375 c 0
 132.324616493 137.865234375 107.564632348 108.693042836 107.564632348 77.5156433131 c 0
 107.564632348 66.2188801648 110.815345379 54.6588553083 117.994140625 44.1279296875 c 0
 158.03591485 -14.6094634741 209.804951232 -39.0632839638 260.24596621 -39.0632839638 c 0
 354.395321761 -39.0632839638 443.91796875 46.1316536638 443.91796875 152.600585938 c 0
 443.91796875 270.501454892 344.210944955 284.162834794 301.793945312 289.974609375 c 0
 293.1015625 291.165039062 285.594726562 292.268554688 279.958984375 293.374023438 c 1
 286.550785686 301.476353777 308.005932264 315.518876715 327.477958126 315.518876715 c 0
 338.924660155 315.518876715 349.686051298 310.666174719 356.33984375 296.901367188 c 0
 366.044921875 276.8203125 386.61328125 262.955078125 410.39453125 262.955078125 c 0
 445.147458274 262.955078125 470.441755685 291.639348162 470.441755685 323.108780791 c 0
 470.441755685 331.71032856 468.552033307 340.519954222 464.44921875 349.008789062 c 0
EndSplineSet
EndChar

StartChar: t
Encoding: 116 116 84
Width: 500
Flags: HW
LayerCount: 2
Fore
SplineSet
457.353515625 195.102539062 m 0
 457.393371117 196.00660908 457.413094705 196.906629169 457.413094705 197.802183127 c 0
 457.413094705 230.831102706 430.584919558 257.78515625 397.412109375 257.78515625 c 0
 365.196289062 257.78515625 338.875976562 232.33984375 337.470703125 200.467773438 c 0
 335.002929688 144.487304688 288.296875 91.109375 256.001953125 84.7099609375 c 1
 254.881446686 90.7822768078 254.354773555 97.8450404078 254.354773555 105.755965167 c 0
 254.354773555 152.681710965 272.886207336 229.45071519 295.931798913 306.3657643 c 1
 322.535994313 306.319367037 328.531717246 306.229205338 328.531717246 306.157353413 c 0
 328.531717246 306.098390625 324.494140625 306.051757812 324.494140625 306.051757812 c 1
 353.581054688 306.051757812 385.421875 307.086914062 418.392578125 314.243164062 c 0
 445.3828125 320.102539062 465.625 344.145507812 465.625 372.879882812 c 0
 465.625 405.995117188 438.740234375 432.879882812 405.625 432.879882812 c 0
 390.825007419 432.879882812 384.387336036 426.803251155 334.046427626 426.114976564 c 1
 351.584777177 479.424468646 367.734268805 527.969561466 377.3046875 564.143554688 c 0
 378.67347326 569.317098607 379.322404085 574.481610948 379.322404085 579.543284778 c 0
 379.322404085 611.587304342 353.314577044 639.509765625 319.293945312 639.509765625 c 0
 291.489257812 639.509765625 268.077148438 620.556640625 261.283203125 594.875976562 c 0
 242.096679688 522.35546875 190.978515625 387.076171875 159.661132812 264.677734375 c 0
 144.647468377 205.998559829 134.247995788 151.861592857 134.247995788 105.819292079 c 0
 134.247995788 70.5313351608 140.356717043 39.9982404735 155.178710938 15.8193359375 c 0
 175.065789029 -16.622400697 210.681320177 -35.7192774284 251.993994589 -35.7192774284 c 0
 292.1853477 -35.7192774284 337.768773963 -17.6449985247 379.5078125 23.7998046875 c 0
 421.76953125 65.763671875 454.311523438 126.12109375 457.353515625 195.102539062 c 0
EndSplineSet
EndChar

StartChar: u
Encoding: 117 117 85
Width: 500
Flags: HW
LayerCount: 2
Fore
SplineSet
514.408203125 371.463867188 m 0
 515.519031287 376.1482304 516.048045169 380.812216316 516.048045169 385.388175662 c 0
 516.048045169 417.536939095 489.936576552 445.340820312 456.0234375 445.340820312 c 0
 427.684570312 445.340820312 403.908203125 425.651367188 397.638671875 399.217773438 c 0
 395.16796875 388.797851562 392.65234375 376.913085938 389.817382812 363.5703125 c 0
 374.087890625 289.548828125 346.828125 167.331054688 300.262695312 112.819335938 c 0
 286.436176992 96.6345674117 273.167560364 90.1155151143 263.019901917 90.1155151143 c 0
 255.238580696 90.1155151143 249.292373079 93.9486973812 246.336914062 100.196289062 c 0
 240.635089628 112.24602095 238.122109684 130.017241317 238.122109684 151.30611747 c 0
 238.122109684 210.656312963 257.65326165 297.346109746 282.071289062 363.624023438 c 0
 284.607085127 370.506824445 285.79117742 377.480024175 285.79117742 384.296325583 c 0
 285.79117742 416.018110447 260.146147342 444.341796875 225.75 444.341796875 c 0
 199.915039062 444.341796875 177.873046875 427.978515625 169.428710938 405.059570312 c 0
 161.890625 384.599609375 118.077148438 260.962890625 118.077148438 152.830078125 c 0
 118.077148438 17.1115812684 191.270541079 -29.2505104028 261.043320579 -29.2505104028 c 0
 290.122479593 -29.2505104028 318.607489298 -21.1975667959 340.952148438 -8.2041015625 c 0
 446.565429688 53.2119140625 484.341796875 230.98046875 507.19921875 338.54296875 c 0
 510.026367188 351.849609375 512.458007812 363.2421875 514.408203125 371.463867188 c 0
EndSplineSet
EndChar

StartChar: v
Encoding: 118 118 86
Width: 500
Flags: HW
LayerCount: 2
Fore
SplineSet
155.897460938 353.44140625 m 0
 162.455437153 342.188098399 164.615979718 324.764965741 164.615979718 303.07093784 c 0
 164.615979718 261.16378287 156.55368269 203.319322809 156.55368269 143.225961433 c 0
 156.55368269 90.8526341542 162.677555057 36.7711107405 185.599609375 -9.95703125 c 0
 196.4899896 -32.1572188491 218.009417292 -43.4915242554 239.581439945 -43.4915242554 c 0
 259.496645466 -43.4915242554 279.456677194 -33.8313989356 291.139648438 -14.142578125 c 0
 348.366210938 82.2978515625 425.515625 176.84375 471.243164062 261.494140625 c 0
 499.666188324 314.112419057 509.737258412 351.290171828 509.737258412 377.558098911 c 0
 509.737258412 440.170302967 452.518029862 440.797851562 450.223632812 440.797851562 c 0
 418.455078125 440.797851562 392.419921875 416.053710938 390.35546875 384.803710938 c 0
 387.476659181 341.221249272 330.29539034 258.956471587 278.193359375 183.999023438 c 1
 278.8671875 195.731445312 279.703125 207.67578125 280.555664062 219.700195312 c 0
 281.949096543 239.365200414 283.808440261 265.605441111 283.808440261 293.18720725 c 0
 283.808440261 363.968708627 271.563544911 443.584960937 207.776367188 443.584960938 c 0
 172.749020431 443.584960938 147.72947859 414.63963755 147.72947859 383.333018277 c 0
 147.72947859 373.320803979 150.288460892 363.067077889 155.897460938 353.44140625 c 0
EndSplineSet
EndChar

StartChar: w
Encoding: 119 119 87
Width: 500
Flags: HW
LayerCount: 2
Fore
SplineSet
328.932617188 -37.6796875 m 0
 471.778852535 -37.6796875 527.966796875 361.578048839 527.966796875 395.250976562 c 0
 527.966796875 428.366210938 501.08203125 455.250976562 467.966796875 455.250976562 c 0
 436.00390625 455.250976562 409.845703125 430.204101562 408.063476562 398.684570312 c 0
 405.784179688 358.366210938 385.751953125 253.506835938 356.133789062 169.629882812 c 1
 356.591796875 207.45703125 359.49609375 244.23046875 361.424804688 257.256835938 c 0
 361.869505082 260.259714734 362.084744952 263.236907103 362.084744952 266.172115144 c 0
 362.084744952 298.720594143 335.617646066 326.106445312 302.07421875 326.106445312 c 0
 275.215820312 326.106445312 252.455078125 308.419921875 244.813476562 284.068359375 c 0
 235.223632812 253.505859375 234.279296875 250.498046875 229.069335938 234.662109375 c 1
 229.268551253 236.044491949 244.986712694 341.924515989 264.9765625 369.633789062 c 0
 272.802712805 380.472122166 276.337564101 392.527964691 276.337564101 404.315063674 c 0
 276.337564101 435.446419435 251.679819131 464.703125 216.30078125 464.703125 c 0
 196.274414062 464.703125 178.525390625 454.870117188 167.625 439.772460938 c 0
 125.992908754 382.115366631 100.141231051 230.982216145 100.141231051 122.90812697 c 0
 100.141231051 91.1872072063 102.368317664 63.1757665779 107.077148438 42.326171875 c 0
 118.687640302 -9.0806587169 151.073909195 -35.6162134984 186.123353711 -35.6162134984 c 0
 211.512176479 -35.6162134984 238.298405415 -21.692630085 259.59765625 6.787109375 c 1
 266.465820312 -5.9501953125 287.713867188 -37.6796875 328.932617188 -37.6796875 c 0
EndSplineSet
EndChar

StartChar: x
Encoding: 120 120 88
Width: 500
Flags: HW
LayerCount: 2
Fore
SplineSet
317.915272714 311.667406053 m 1
 298.587785207 365.641726941 267.930161971 439.186523438 201.584960938 439.186523438 c 0
 185.304664132 439.186523438 139.202658719 439.186523438 97.3076171875 347.327148438 c 0
 93.5965505094 339.190604525 91.8821808909 330.800020928 91.8821808909 322.606521311 c 0
 91.8821808909 291.084492129 117.256472097 262.479492188 151.928710938 262.479492188 c 0
 171.244140625 262.479492188 188.440429688 271.625976562 199.41796875 285.821289062 c 1
 205.915043852 269.021097647 212.159774296 250.218836019 218.316428892 230.3952623 c 1
 153.431126433 178.016321082 86.7039181781 117.363890219 59.162109375 32.0263671875 c 0
 57.1742417449 25.8666783988 56.2401096623 19.6721729098 56.2401096623 13.6114071782 c 0
 56.2401096623 -18.2393139997 82.0384539197 -46.396484375 116.276367188 -46.396484375 c 0
 142.965820312 -46.396484375 165.608398438 -28.9326171875 173.390625 -4.8193359375 c 0
 186.723981818 36.494618273 217.985955712 71.7253585155 256.062488314 105.350443435 c 1
 279.232681253 34.0280522232 308.557649966 -41.3046875 375.291015625 -41.3046875 c 0
 442.67578125 -41.3046875 472.462890625 37.408203125 490.1328125 89.8515625 c 0
 492.285755264 96.2413055099 493.295412792 102.681046572 493.295412792 108.979688626 c 0
 493.295412792 140.788085237 467.546210072 168.998046875 433.2578125 168.998046875 c 0
 424.1171875 168.998046875 389.4140625 166.286132812 375.725585938 126.20703125 c 1
 369.105568634 145.523568195 362.827762394 165.945441047 356.642057996 186.722906038 c 1
 420.151166405 238.343629795 478.499134824 294.674071674 492.71875 371.413085938 c 0
 493.408393625 375.134836097 493.739833911 378.828201607 493.739833911 382.461020458 c 0
 493.739833911 414.832558111 467.422343835 442.396484375 433.723632812 442.396484375 c 0
 404.359375 442.396484375 379.89453125 421.256835938 374.728515625 393.379882812 c 0
 369.587208696 365.63352898 347.83477789 339.033928511 317.915272714 311.667406053 c 1
EndSplineSet
EndChar

StartChar: y
Encoding: 121 121 89
Width: 500
Flags: HW
LayerCount: 2
Fore
SplineSet
444.009765625 98.0224609375 m 1
 492.207816654 227.127056786 504.587890625 361.503234111 504.587890625 364.233398438 c 0
 504.587890625 397.348632812 477.703125 424.233398438 444.587890625 424.233398438 c 0
 413.995117188 424.233398438 388.719726562 401.288085938 385.046875 371.68359375 c 0
 369.993566885 250.378367139 267.367938895 177.307656058 232.984375 166.602539062 c 1
 232.797390528 169.007893259 232.707396616 171.514569168 232.707396616 174.111617658 c 0
 232.707396616 224.941538615 267.181412857 310.390533036 283.671875 348.3671875 c 0
 287.076496851 356.207745471 288.653256092 364.254305153 288.653256092 372.113207003 c 0
 288.653256092 403.68031587 263.213597932 432.219726562 228.607421875 432.219726562 c 0
 203.966796875 432.219726562 182.775390625 417.333984375 173.54296875 396.072265625 c 0
 129.885051432 295.530072042 112.697271042 224.518575191 112.697271042 173.059649066 c 0
 112.697271042 138.103939336 120.628392613 112.170558956 133.581054688 92.1318359375 c 0
 143.912109375 76.1484375 160.454101562 60.7412109375 181.69921875 52.2412109375 c 1
 118.510742188 33.408203125 79.8720703125 12.2138671875 56.4423828125 -15.3701171875 c 0
 33.8958777392 -41.9142030526 23.7807570115 -69.8638165392 23.7807570115 -95.6262951562 c 0
 23.7807570115 -150.690902312 69.9912787975 -195.763671875 139.794921875 -195.763671875 c 0
 172.557108629 -195.763671875 283.915838231 -183.50399427 382.258789062 -28.4658203125 c 1
 400.518554688 -25.65625 419.728515625 -22.9013671875 439.857421875 -20.2080078125 c 0
 469.1875 -16.283203125 491.838867188 8.86328125 491.838867188 39.259765625 c 0
 491.838867188 68.205078125 471.297851562 92.390625 444.009765625 98.0224609375 c 1
143.364257812 -99.4443359375 m 1
 143.364257812 -99.517578125 143.352539062 -99.5458984375 143.352539062 -99.5458984375 c 1
 143.364257812 -99.4443359375 l 1
EndSplineSet
EndChar

StartChar: z
Encoding: 122 122 90
Width: 500
Flags: HW
LayerCount: 2
Fore
SplineSet
163.162109375 377.291992188 m 0
 163.162109375 321.53174977 222.92063066 310.360089154 273.768856991 310.360089154 c 0
 297.133403594 310.360089154 318.616662658 312.718833283 331.556640625 314.194335938 c 1
 309.474609375 291.279296875 283.201171875 267.091796875 255.421875 241.66796875 c 0
 197.672851562 188.81640625 132.813476562 130.622070312 86.626953125 57.40625 c 0
 80.2594202535 47.3131492294 77.3656432294 36.4081311872 77.3656432294 25.7566013526 c 0
 77.3656432294 -5.48343563648 102.25789395 -34.54296875 137.41015625 -34.54296875 c 0
 164.036132812 -34.54296875 168.432617188 -19.5263671875 200.278320312 -19.5263671875 c 0
 228.79074557 -19.5263671875 265.049708197 -34.8179124204 307.863627278 -34.8179124204 c 0
 325.249607759 -34.8179124204 343.716519854 -32.2962916021 363.184570312 -25.205078125 c 0
 387.182617188 -16.4638671875 410.124023438 -1.4248046875 431.578125 19.2255859375 c 0
 444.286649716 31.4583288806 449.962418938 46.7562529036 449.962418938 61.7976474022 c 0
 449.962418938 92.664563699 426.060376491 122.451171875 389.983398438 122.451171875 c 0
 373.840820312 122.451171875 359.177734375 116.0625 348.388671875 105.676757812 c 0
 332.703093978 90.5789491396 321.796129943 85.2726830561 307.136611148 85.2726830561 c 0
 297.391027384 85.2726830561 285.986990016 87.6178043602 270.41796875 90.990234375 c 1
 330.620117188 150.649414062 391.924804688 199.431640625 441.7578125 256.892578125 c 0
 467.177734375 286.202148438 489.818359375 317.923828125 504.375 354.595703125 c 0
 506.845244743 360.818545728 508.50532166 368.687645811 508.50532166 377.150637722 c 0
 508.50532166 406.396769081 488.680138334 442.735351562 413.954101562 442.735351562 c 0
 369.141601562 442.735351562 316.244140625 430.43359375 273.846679688 430.43359375 c 0
 242.521484375 430.43359375 241.237304688 437.291992188 223.162109375 437.291992188 c 0
 190.046875 437.291992188 163.162109375 410.407226562 163.162109375 377.291992188 c 0
EndSplineSet
EndChar

StartChar: braceleft
Encoding: 123 123 91
Width: 500
Flags: HW
LayerCount: 2
Fore
SplineSet
200.265625 300.604492188 m 0
 200.265625 244.526130695 139.372674141 143.356729306 139.372674141 61.3699143449 c 0
 139.372674141 25.6757481897 150.914472212 -6.38250385841 184.047851562 -29.5009765625 c 0
 203.961684057 -43.3958893668 230.141376657 -52.480997008 269.656324606 -52.480997008 c 0
 287.201527521 -52.480997008 307.375758963 -50.6898796633 330.797851562 -46.7333984375 c 0
 359.135742188 -41.947265625 380.749023438 -17.2646484375 380.749023438 12.4267578125 c 0
 380.749023438 45.5419921875 353.864257812 72.4267578125 320.749023438 72.4267578125 c 0
 311.417395856 72.4267578125 290.375636929 67.5142416964 270.495862699 67.5142416964 c 0
 266.664922416 67.5142416964 262.877132877 67.6966698475 259.224609375 68.1318359375 c 1
 264.971957653 124.082436446 320.204584287 217.29590302 320.204584287 300.74437281 c 0
 320.204584287 321.002375295 316.949575372 340.68489996 308.94140625 359.119140625 c 1
 428.800252103 448.873101841 368.412784499 622.271915842 431.916015625 650.854492188 c 0
 449.329101562 658.692382812 467.59765625 658.692382812 491.328125 658.692382812 c 0
 524.443359375 658.692382812 551.328125 685.577148438 551.328125 718.692382812 c 0
 551.328125 751.188476562 525.438476562 777.685546875 493.177734375 778.6640625 c 0
 489.377750265 778.779440841 485.648091864 778.836127821 481.987398771 778.836127821 c 0
 331.340881225 778.836127821 297.48881966 682.835322645 285.62109375 630.524414062 c 0
 273.942382812 579.05078125 273.405273438 515.344726562 256.94140625 480.229492188 c 0
 250.411132812 466.298828125 238.517578125 444.205078125 183.670898438 437.287109375 c 0
 154.124023438 433.560546875 131.241210938 408.311523438 131.241210938 377.760742188 c 0
 131.241210938 320.145775546 196.230239436 317.380272062 198.815429688 311.391601562 c 0
 199.190429688 310.525390625 200.265625 307.172851562 200.265625 300.604492188 c 0
EndSplineSet
EndChar

StartChar: bar
Encoding: 124 124 92
Width: 500
Flags: HW
LayerCount: 2
Fore
SplineSet
470.9453125 731.708984375 m 0
 471.013219548 732.88915283 471.046722526 734.062770137 471.046722526 735.228907153 c 0
 471.046722526 768.206624758 444.25346943 795.202148438 411.045898438 795.202148438 c 0
 379.103515625 795.202148438 352.958007812 770.1875 351.146484375 738.6953125 c 0
 339.846266067 542.262607072 174.537109375 59.2820896785 174.537109375 6.6611328125 c 0
 174.537109375 -26.4541015625 201.421875 -53.3388671875 234.537109375 -53.3388671875 c 0
 265.07421875 -53.3388671875 290.314453125 -30.4755859375 294.05859375 -0.9482421875 c 0
 300.642578125 50.9775390625 459.124023438 526.204101562 470.9453125 731.708984375 c 0
EndSplineSet
EndChar

StartChar: braceright
Encoding: 125 125 93
Width: 500
Flags: HW
LayerCount: 2
Fore
SplineSet
471.668945312 659.740234375 m 0
 471.668945312 735.634765625 421.510742188 778.206054688 358.360351562 778.206054688 c 0
 330.772460938 778.206054688 303.649414062 771.111328125 274.223632812 759.069335938 c 0
 252.342773438 750.114257812 236.911132812 728.6015625 236.911132812 703.513671875 c 0
 236.911132812 670.3984375 263.795898438 643.513671875 296.911132812 643.513671875 c 0
 317.475585938 643.513671875 326.881835938 653.649414062 351.623046875 657.55859375 c 1
 350.029461169 618.550787271 311.594183056 541.067210032 311.594183056 469.125307008 c 0
 311.594183056 441.82828883 317.127640859 415.329095514 332.306640625 392.032226562 c 1
 278.640625 337.280273438 253.70703125 256.841796875 249.0625 161.34765625 c 0
 249.008083183 160.228590412 244.027336733 68.8779296875 185.80078125 68.8779296875 c 0
 169.348632812 68.8779296875 163.421875 75.1259765625 146.962890625 75.1259765625 c 0
 113.84765625 75.1259765625 86.962890625 48.2412109375 86.962890625 15.1259765625 c 0
 86.962890625 -11.7353515625 104.65234375 -34.4970703125 129.0078125 -42.13671875 c 0
 148.403059287 -48.2203812736 167.390787566 -51.1074292556 185.656109553 -51.1074292556 c 0
 285.03682577 -51.1074292556 363.031466304 34.3605786312 368.919921875 155.43359375 c 0
 370.74086577 192.886067918 376.693546903 315.318525595 470.734375 336.416992188 c 0
 497.522460938 342.42578125 517.563476562 366.373046875 517.563476562 394.963867188 c 0
 517.563476562 427.859375 491.033203125 454.607421875 458.220703125 454.959960938 c 0
 443.0234375 455.124023438 435.07421875 457.633789062 432.34375 458.76953125 c 0
 431.961914062 460.284179688 431.453125 463.256835938 431.453125 468.328125 c 0
 431.453125 518.139648438 471.668945312 596.733398438 471.668945312 659.740234375 c 0
EndSplineSet
EndChar

StartChar: asciitilde
Encoding: 126 126 94
Width: 500
Flags: HW
LayerCount: 2
Fore
SplineSet
436.268554688 452.600585938 m 0
 404.804381064 452.600585938 394.833922031 437.781038973 375.0859375 408.428710938 c 1
 358.868312173 433.626904618 332.40989836 452.290489187 301.246355606 452.290489187 c 0
 282.191605833 452.290489187 261.377780954 445.312859584 240.0703125 428.584960938 c 0
 220.298828125 413.063476562 203.024414062 392.623046875 182.756835938 364.045898438 c 0
 175.137496139 353.302023854 171.693344589 341.402097718 171.693344589 329.769312671 c 0
 171.693344589 298.623432796 196.383058368 269.392578125 231.731445312 269.392578125 c 0
 260.592267038 269.392578125 269.518186251 280.926099109 291.307617188 309.081054688 c 1
 301.09375 291.725585938 324.927734375 259.393554688 366.665039062 259.393554688 c 0
 414.482421875 259.393554688 448.872070312 299.135742188 487.28515625 361.022460938 c 0
 493.491191712 371.021415168 496.313808443 381.791560249 496.313808443 392.310479211 c 0
 496.313808443 423.564460364 471.395395149 452.600585937 436.268554688 452.600585938 c 0
EndSplineSet
EndChar

StartChar: lessequal.ligature
Encoding: 256 -1 95
Width: 1000
VWidth: 0
GlyphClass: 3
Flags: HW
LayerCount: 2
Fore
SplineSet
322.392578125 289.159179688 m 0
 314.491188472 292.625031662 306.374539658 294.229318957 298.447524133 294.229318957 c 0
 266.889473368 294.229318957 238.336914062 268.803024776 238.336914062 234.18359375 c 0
 238.336914062 209.62109375 253.127929688 188.486328125 274.28125 179.208007812 c 0
 410.702148438 119.369140625 603.166992188 49.494140625 727.948242188 21.3125 c 0
 732.427194707 20.3009691584 736.882583867 19.8183219146 741.255984047 19.8183219146 c 0
 773.451170184 19.8183219146 801.203125 45.9744390765 801.203125 79.8408203125 c 0
 801.203125 108.401367188 781.204101562 132.328125 754.458007812 138.369140625 c 0
 643.958007812 163.326171875 451.803710938 232.39453125 322.392578125 289.159179688 c 0
910.2890625 518.10546875 m 0
 910.2890625 552.848943669 881.613493259 578.152619926 850.138278986 578.152619926 c 0
 841.580868171 578.152619926 832.816514545 576.282234994 824.365234375 572.22265625 c 0
 744.822352126 534.014936907 367.08987232 461.592251202 290.372070312 410.040039062 c 0
 275.114265417 399.786177399 263.565177981 380.807098091 263.565177981 359.959910361 c 0
 263.565177981 341.989465749 272.146819313 322.630908307 294.33203125 306.276367188 c 0
 363.718471321 255.124917738 664.239071272 193.257384114 742.506835938 146.58984375 c 0
 752.269839957 140.768188167 762.710598844 138.115209138 772.906198454 138.115209138 c 0
 804.193353309 138.115209138 833.171875 163.097969167 833.171875 198.161132812 c 0
 833.171875 250.365284638 786.803142846 269.615321596 553.736328125 338.801757812 c 0
 534.176757812 344.608398438 514.881835938 350.341796875 496.459960938 355.926757812 c 1
 535.366210938 366.510742188 578.3046875 377.571289062 620.896484375 388.53125 c 0
 756.977539062 423.545898438 835.240234375 444.306640625 876.212890625 463.98828125 c 0
 896.364257812 473.666992188 910.2890625 494.2734375 910.2890625 518.10546875 c 0
EndSplineSet
Ligature2: "ligatures-1" less equal
EndChar

StartChar: greaterequal.ligature
Encoding: 257 -1 96
Width: 1000
VWidth: 0
GlyphClass: 3
Flags: HW
LayerCount: 2
Fore
SplineSet
194.237304688 67.18359375 m 0
 194.237304688 33.094295295 222.235161426 7.15213123475 254.21536658 7.15213123475 c 0
 259.590888593 7.15213123475 265.078927581 7.8850992099 270.565429688 9.435546875 c 0
 322.717773438 24.173828125 385.296875 40.859375 449.125976562 57.8740234375 c 0
 647.653320312 110.794921875 771.631835938 144.661132812 817.584960938 169.498046875 c 0
 836.35546875 179.643554688 849.119140625 199.502929688 849.119140625 222.319335938 c 0
 849.119140625 254.797073977 824.163018361 278.812873867 795.427727342 282.00544175 c 1
 820.225844196 291.383428623 842.281812683 301.57515983 861.4765625 314.329101562 c 0
 879.322761842 326.186895303 888.287475206 345.263409403 888.287475206 364.353728534 c 0
 888.287475206 383.013638174 879.722440959 401.686737367 862.514648438 413.64453125 c 0
 806.475585938 452.587890625 711.66796875 475.912109375 574.06640625 507.26953125 c 0
 513.597803504 521.050615727 425.630837474 541.098709034 402.40234375 555.102539062 c 1
 390.486054601 566.133133419 376.224830993 571.071782871 362.233968577 571.071782871 c 0
 331.288157206 571.071782871 301.665039062 546.910333814 301.665039062 511.067382812 c 0
 301.665039062 446.251953125 390.99609375 425.890625 547.33203125 390.263671875 c 0
 584.553710938 381.782226562 622.752929688 373.041992188 658.127929688 363.927734375 c 1
 619.247070312 352.829101562 576.2578125 341.590820312 533.260742188 330.375 c 0
 293.169095674 267.747479146 225.237304688 244.581649784 225.237304688 186.6640625 c 0
 225.237304688 160.782490813 240.961230798 140.517204053 261.681861277 131.589053109 c 1
 253.576396377 129.337865943 245.643503517 127.117289592 237.909179688 124.931640625 c 0
 212.71875 117.8125 194.237304688 94.6396484375 194.237304688 67.18359375 c 0
631.104443588 231.992695194 m 1
 567.061476354 213.653753706 493.53319853 193.937960588 397.086071897 168.214478108 c 1
 460.863495834 188.196809401 549.149944978 210.020868791 631.104443588 231.992695194 c 1
EndSplineSet
Ligature2: "ligatures-1" greater equal
EndChar

StartChar: notequal.ligature
Encoding: 258 -1 97
Width: 1000
VWidth: 0
GlyphClass: 3
Flags: HW
LayerCount: 2
Fore
SplineSet
534.668030202 229.036402418 m 1
 536.574978082 229.036402418 650.06456595 232.82421875 725.325195312 232.82421875 c 0
 791.055664062 232.82421875 818.07421875 231.083984375 820.568359375 231.083984375 c 0
 853.68359375 231.083984375 880.568359375 257.96875 880.568359375 291.083984375 c 0
 880.568359375 323.084960938 855.4609375 349.268554688 823.887695312 350.993164062 c 0
 822.28794005 351.080869943 784.730491543 352.842687546 720.085631463 352.842687546 c 0
 700.768474125 352.842687546 679.032594862 352.685369197 655.114675584 352.279053076 c 1
 661.856649217 359.257747819 668.577633417 366.250487738 675.266569144 373.257062383 c 1
 704.598474606 373.839413118 732.220571639 374.085937499 756.788085938 374.0859375 c 0
 822.5078125 374.0859375 849.515625 372.345703125 852.010742188 372.345703125 c 0
 885.125976562 372.345703125 912.010742188 399.23046875 912.010742188 432.345703125 c 0
 912.010742188 464.346679688 886.903320312 490.530273438 855.330078125 492.254882812 c 0
 854.021818037 492.326607598 828.668234283 493.517705052 784.117312521 493.949235381 c 1
 791.315786406 502.581680939 798.37624985 511.232514638 805.279296875 519.901367188 c 0
 814.29241953 531.219824164 818.347405282 544.135552496 818.347405282 556.777109125 c 0
 818.347405282 587.833077598 793.874902986 617.234375 758.3203125 617.234375 c 0
 739.3125 617.234375 722.357421875 608.376953125 711.361328125 594.567382812 c 0
 684.295640772 560.578521795 654.081217412 526.324423646 622.183048974 491.946630077 c 1
 596.892069593 491.128476499 574.429361932 490.808839108 554.218982229 490.808839108 c 0
 481.991382481 490.808839108 438.530416707 494.891233856 397.547560601 494.891233856 c 0
 372.2291588 494.891233856 347.856533795 493.333177617 318.231445312 488.291992188 c 0
 289.928710938 483.475585938 268.352539062 458.809570312 268.352539062 429.143554688 c 0
 268.352539062 396.028320312 295.237304688 369.143554688 328.352539062 369.143554688 c 0
 340.194335938 369.143554688 353.793945312 374.670898438 409.778320312 374.670898438 c 0
 440.980140439 374.670898438 474.016762979 373.020049967 506.385813984 371.746810108 c 1
 499.331195655 364.558531995 492.27743407 357.372031473 485.237810249 350.188591702 c 1
 451.306306777 351.48941982 414.708094886 353.42235815 378.770652782 353.42235815 c 0
 346.806994715 353.42235815 315.366056274 351.893255554 286.7890625 347.030273438 c 0
 258.486328125 342.213867188 236.91015625 317.547851562 236.91015625 287.881835938 c 0
 236.91015625 254.766601562 263.794921875 227.881835938 296.91015625 227.881835938 c 0
 308.419698833 227.881835938 321.587678564 233.102500151 373.7107551 233.396297276 c 1
 364.01235915 222.772262664 354.506778169 212.170638911 345.23828125 201.595703125 c 0
 334.96480258 189.873803233 330.357884043 176.102673359 330.357884043 162.605181895 c 0
 330.357884043 131.62014924 354.635627963 102.077148438 390.372070312 102.077148438 c 0
 408.357421875 102.077148438 424.504882812 110.0078125 435.505859375 122.55859375 c 0
 466.221339512 157.603877573 499.818271216 193.106811148 534.668030202 229.036402418 c 1
EndSplineSet
Ligature2: "ligatures-1" exclam equal
EndChar

StartChar: plusplus.ligature
Encoding: 259 -1 98
Width: 1000
VWidth: 0
GlyphClass: 3
Flags: HW
LayerCount: 2
Fore
SplineSet
804.25158702 420.718019943 m 1
 812.111872841 458.85520916 815.599878241 475.778604175 818.682617188 490.5390625 c 0
 819.552208811 494.703574917 819.968363064 498.841341204 819.968363064 502.90621733 c 0
 819.968363064 535.17344244 793.745328683 562.84765625 759.948242188 562.84765625 c 0
 731.051757812 562.84765625 706.8984375 542.375976562 701.213867188 515.15625 c 0
 698.205772925 500.748497266 686.282881624 442.889386092 680.791187824 416.517380513 c 1
 675.82815465 416.47291512 670.869530867 416.44921875 665.93359375 416.44921875 c 0
 592.620117188 416.44921875 589.301757812 420.916015625 546.388671875 420.916015625 c 0
 533.622089734 420.916015625 519.272256288 420.530186307 504.091679732 419.942184024 c 1
 512.55058763 460.982145291 515.63541502 475.948757785 518.682617188 490.5390625 c 0
 519.552208811 494.703574917 519.968363064 498.841341204 519.968363064 502.90621733 c 0
 519.968363064 535.17344244 493.745328683 562.84765625 459.948242188 562.84765625 c 0
 431.051757812 562.84765625 406.8984375 542.375976562 401.213867188 515.15625 c 0
 395.571459636 488.131028803 389.383336593 457.756187823 380.35801935 414.437776439 c 1
 372.306616651 414.226570231 364.620332561 414.104656903 357.432825149 414.104656903 c 0
 341.891095435 414.104656903 328.681471419 414.674681082 319.155273438 416.14453125 c 0
 316.031599251 416.626430768 312.93444162 416.859392456 309.88224813 416.859392456 c 0
 277.363203628 416.859392456 249.948242188 390.414857614 249.948242188 356.84765625 c 0
 249.948242188 326.86328125 271.990234375 301.986328125 300.741210938 297.55078125 c 0
 315.703924299 295.242395485 334.245664833 294.288879896 354.691963872 294.160013027 c 1
 347.940037605 263.681354807 342.055295125 238.546264455 338.2265625 225.081054688 c 0
 336.658074543 219.56465458 335.916770383 214.045497193 335.916770383 208.639752641 c 0
 335.916770383 176.666121521 361.85075921 148.66015625 395.948242188 148.66015625 c 0
 423.370117188 148.66015625 446.520507812 167.095703125 453.669921875 192.239257812 c 0
 460.141615584 215.001040912 469.154531792 254.493939014 478.679844779 298.633846774 c 1
 510.855483684 300.264367589 531.466505654 300.861302243 546.490890658 300.861302243 c 0
 585.505171057 300.861302243 586.848703383 296.836165991 655.194602114 296.431565336 c 1
 648.232435776 264.932022051 642.150005939 238.879351431 638.2265625 225.081054688 c 0
 636.658074543 219.56465458 635.916770383 214.045497193 635.916770383 208.639752641 c 0
 635.916770383 176.666121521 661.85075921 148.66015625 695.948242188 148.66015625 c 0
 723.370117188 148.66015625 746.520507812 167.095703125 753.669921875 192.239257812 c 0
 760.178341294 215.13020998 769.25690702 254.942708153 778.84205728 299.385751881 c 1
 790.150559014 299.886845902 844.451473856 302.591821007 847.708984375 302.685546875 c 0
 880.010742188 303.618164062 905.948242188 330.133789062 905.948242188 362.66015625 c 0
 905.948242188 395.775390625 879.063476562 422.66015625 845.948242188 422.66015625 c 0
 840.643595713 422.66015625 825.410006091 421.799006946 804.25158702 420.718019943 c 1
EndSplineSet
Ligature2: "ligatures-1" plus plus
EndChar

StartChar: rightequal
Encoding: 260 -1 99
Width: 500
VWidth: 0
Flags: HW
LayerCount: 2
Fore
SplineSet
277.5859375 376.544921875 m 0
 367.356445312 376.544921875 451.291992188 372.345703125 452.010742188 372.345703125 c 0
 485.125976562 372.345703125 512.010742188 399.23046875 512.010742188 432.345703125 c 0
 512.010742188 464.346679688 486.903320312 490.530273438 455.330078125 492.254882812 c 0
 453.316317668 492.365297877 366.699756203 496.647558294 277.307674279 496.647558294 c 0
 217.271554449 496.647558294 155.983529082 494.716033879 118.231445312 488.291992188 c 0
 89.9287109375 483.475585938 68.3525390625 458.809570312 68.3525390625 429.143554688 c 0
 68.3525390625 396.028320312 95.2373046875 369.143554688 128.352539062 369.143554688 c 0
 135.796875 369.143554688 167.33984375 376.544921875 277.5859375 376.544921875 c 0
246.143554688 235.283203125 m 0
 335.9140625 235.283203125 419.849609375 231.083984375 420.568359375 231.083984375 c 0
 453.68359375 231.083984375 480.568359375 257.96875 480.568359375 291.083984375 c 0
 480.568359375 323.084960938 455.4609375 349.268554688 423.887695312 350.993164062 c 0
 421.873934855 351.103579127 335.257373391 355.385839544 245.865291466 355.385839544 c 0
 185.829171637 355.385839544 124.541146269 353.454315129 86.7890625 347.030273438 c 0
 58.486328125 342.213867188 36.91015625 317.547851562 36.91015625 287.881835938 c 0
 36.91015625 254.766601562 63.794921875 227.881835938 96.91015625 227.881835938 c 0
 104.354492188 227.881835938 135.897460938 235.283203125 246.143554688 235.283203125 c 0
EndSplineSet
Substitution2: "longequal-1" longequal
EndChar

StartChar: lefthyphen
Encoding: 261 -1 100
Width: 500
VWidth: 0
Flags: HW
LayerCount: 2
Fore
SplineSet
345.630859375 308.052734375 m 0
 408.025390625 308.052734375 454.358398438 305.780273438 455.208984375 305.780273438 c 0
 488.32421875 305.780273438 515.208984375 332.665039062 515.208984375 365.780273438 c 0
 515.208984375 397.797851562 490.076171875 423.991210938 458.479492188 425.692382812 c 0
 457.038307915 425.769972944 403.985092985 428.148917473 342.103252035 428.148917473 c 0
 288.714508752 428.148917473 228.754241953 426.378167429 189.697265625 419.831054688 c 0
 161.322265625 415.075195312 139.671875 390.375 139.671875 360.658203125 c 0
 139.671875 327.034703279 167.150693007 300.644927056 199.605297267 300.644927056 c 0
 202.908718755 300.644927056 206.26369124 300.918334951 209.646484375 301.485351562 c 0
 235.997070312 305.90234375 294.211914062 308.052734375 345.630859375 308.052734375 c 0
EndSplineSet
Substitution2: "longhyphen-1" longhyphen
EndChar

StartChar: leftequal
Encoding: 262 -1 101
Width: 500
VWidth: 0
Flags: HW
LayerCount: 2
Fore
SplineSet
377.5859375 376.544921875 m 0
 467.356445312 376.544921875 551.291992188 372.345703125 552.010742188 372.345703125 c 0
 585.125976562 372.345703125 612.010742188 399.23046875 612.010742188 432.345703125 c 0
 612.010742188 464.346679688 586.903320312 490.530273438 555.330078125 492.254882812 c 0
 553.316317668 492.365297877 466.699756203 496.647558294 377.307674279 496.647558294 c 0
 317.271554449 496.647558294 255.983529082 494.716033879 218.231445312 488.291992188 c 0
 189.928710938 483.475585938 168.352539062 458.809570312 168.352539062 429.143554688 c 0
 168.352539062 396.028320312 195.237304688 369.143554688 228.352539062 369.143554688 c 0
 235.796875 369.143554688 267.33984375 376.544921875 377.5859375 376.544921875 c 0
346.143554688 235.283203125 m 0
 435.9140625 235.283203125 519.849609375 231.083984375 520.568359375 231.083984375 c 0
 553.68359375 231.083984375 580.568359375 257.96875 580.568359375 291.083984375 c 0
 580.568359375 323.084960938 555.4609375 349.268554688 523.887695312 350.993164062 c 0
 521.873934855 351.103579127 435.257373391 355.385839544 345.865291466 355.385839544 c 0
 285.829171637 355.385839544 224.541146269 353.454315129 186.7890625 347.030273438 c 0
 158.486328125 342.213867188 136.91015625 317.547851562 136.91015625 287.881835938 c 0
 136.91015625 254.766601562 163.794921875 227.881835938 196.91015625 227.881835938 c 0
 204.354492188 227.881835938 235.897460938 235.283203125 346.143554688 235.283203125 c 0
EndSplineSet
Substitution2: "longequal-1" longequal
EndChar

StartChar: leftarrowhead
Encoding: 263 -1 102
Width: 500
VWidth: 0
Flags: HW
LayerCount: 2
Fore
SplineSet
543.068359375 418.133789062 m 0
 529.869140625 418.133789062 500.694335938 408.067382812 413.626953125 408.067382812 c 0
 409.161275823 408.067382812 404.655287143 408.09446028 400.114614172 408.14767376 c 1
 433.621732379 429.897178709 466.996705713 449.954399457 496.212890625 463.98828125 c 0
 516.364257812 473.666992188 530.2890625 494.2734375 530.2890625 518.10546875 c 0
 530.2890625 552.848943669 501.613493259 578.152619926 470.138278986 578.152619926 c 0
 461.580868171 578.152619926 452.816514545 576.282234994 444.365234375 572.22265625 c 0
 373.224609375 538.05078125 297.504882812 484.559570312 238.169921875 443.078125 c 0
 178.179128345 401.140298682 178.179128345 401.140298682 171.945228218 390.431705649 c 0
 166.764939587 381.583323786 163.779296875 371.269218239 163.779296875 360.205078125 c 1
 163.779296875 339.639297904 170.417415603 331.141136132 186.689453125 310.309570312 c 0
 218.763671875 269.23828125 272.198242188 200.440429688 362.506835938 146.58984375 c 0
 372.269839957 140.768188167 382.710598844 138.115209138 392.906198454 138.115209138 c 0
 424.193353309 138.115209138 453.171875 163.097969167 453.171875 198.161132812 c 0
 453.171875 220.075195312 441.3984375 239.260742188 423.836914062 249.732421875 c 0
 403.230806292 262.02023189 385.123797343 275.235348234 369.02427944 288.799048928 c 1
 383.681195719 288.314886293 398.761420315 288.031432634 413.98886868 288.031432634 c 0
 462.362402207 288.031432634 512.221663655 290.891942315 554.715820312 299.265625 c 0
 582.263671875 304.694335938 603.068359375 329.00390625 603.068359375 358.133789062 c 0
 603.068359375 391.249023438 576.18359375 418.133789062 543.068359375 418.133789062 c 0
EndSplineSet
EndChar

StartChar: rightarrowhead
Encoding: 264 -1 103
Width: 500
VWidth: 0
Flags: HW
LayerCount: 2
Fore
SplineSet
201.665039062 511.067382812 m 0
 201.665039062 479.115804709 230.132693307 455.308973627 273.263327215 419.239836807 c 1
 234.970537219 419.52384778 187.295597501 419.88671875 186.479492188 419.88671875 c 0
 154.555664062 419.88671875 125.94921875 419.422851562 101.640625 417.0703125 c 0
 71.26171875 414.130859375 47.48046875 388.49609375 47.48046875 357.3515625 c 0
 47.48046875 324.236328125 74.365234375 297.3515625 107.48046875 297.3515625 c 0
 114.819335938 297.3515625 125.866210938 299.88671875 186.479492188 299.88671875 c 0
 205.033934363 299.88671875 225.025394383 299.68189725 245.662088597 299.45957799 c 1
 214.497645145 278.262351203 183.586344999 257.403173061 152.311523438 236.818359375 c 0
 136.0078125 226.087890625 125.237304688 207.624023438 125.237304688 186.6640625 c 0
 125.237304688 151.441954906 154.358579417 126.621408295 185.563952216 126.621408295 c 0
 196.566259907 126.621408295 207.827643473 129.706870021 218.163085938 136.509765625 c 0
 243.567042145 153.230456167 478.83014544 312.570736679 481.4765625 314.329101562 c 0
 488.318660903 318.875290365 508.333007812 334.706705943 508.333007812 364.33984375 c 1
 508.333007812 372.714570548 506.174006851 397.354704448 482.302360704 413.792061715 c 0
 387.412758364 479.737953864 346.57965999 510.964304878 304.095703125 553.473632812 c 0
 291.95093892 565.625008726 276.9903158 571.055616297 262.29184111 571.055616297 c 0
 231.399443561 571.055616297 201.665039062 547.066894211 201.665039062 511.067382812 c 0
EndSplineSet
EndChar

StartChar: righthyphen
Encoding: 265 -1 104
Width: 500
VWidth: 0
Flags: HW
LayerCount: 2
Fore
SplineSet
307.946289062 308.052734375 m 0
 399.586914062 308.052734375 453.736328125 305.780273438 455.208984375 305.780273438 c 0
 488.32421875 305.780273438 515.208984375 332.665039062 515.208984375 365.780273438 c 0
 515.208984375 397.797851562 490.076171875 423.991210938 458.479492188 425.692382812 c 0
 452.387680353 426.020450767 379.373761001 428.208071564 299.413584857 428.208071564 c 0
 227.042180411 428.208071564 148.980447297 426.415986747 109.697265625 419.831054688 c 0
 81.322265625 415.075195312 59.671875 390.375 59.671875 360.658203125 c 0
 59.671875 327.034703279 87.1506930071 300.644927056 119.605297267 300.644927056 c 0
 122.908718755 300.644927056 126.26369124 300.918334951 129.646484375 301.485351562 c 0
 153.961914062 305.560546875 235.888671875 308.052734375 307.946289062 308.052734375 c 0
EndSplineSet
Substitution2: "longhyphen-1" longhyphen
EndChar

StartChar: longequal
Encoding: 266 -1 105
Width: 500
VWidth: 0
Flags: HW
LayerCount: 2
Fore
SplineSet
317.629882812 376.544921875 m 0
 449.091796875 376.544921875 549.666992188 372.345703125 552.010742188 372.345703125 c 0
 585.125976562 372.345703125 612.010742188 399.23046875 612.010742188 432.345703125 c 0
 612.010742188 464.346679688 586.903320312 490.530273438 555.330078125 492.254882812 c 0
 548.424343909 492.632661999 429.394704109 496.731002898 313.995356336 496.731002898 c 0
 234.301061025 496.731002898 156.338133461 494.776412139 118.231445312 488.291992188 c 0
 89.9287109375 483.475585938 68.3525390625 458.809570312 68.3525390625 429.143554688 c 0
 68.3525390625 395.508755034 95.8432858902 369.129516541 128.285744327 369.129516541 c 0
 131.637147262 369.129516541 135.041392424 369.411022785 138.473632812 369.995117188 c 0
 161.655273438 373.939453125 239.9375 376.544921875 317.629882812 376.544921875 c 0
286.1875 235.283203125 m 0
 417.649414062 235.283203125 518.224609375 231.083984375 520.568359375 231.083984375 c 0
 553.68359375 231.083984375 580.568359375 257.96875 580.568359375 291.083984375 c 0
 580.568359375 323.084960938 555.4609375 349.268554688 523.887695312 350.993164062 c 0
 516.981961097 351.370943249 397.952321296 355.469284148 282.552973523 355.469284148 c 0
 202.858678212 355.469284148 124.895750648 353.514693389 86.7890625 347.030273438 c 0
 58.486328125 342.213867188 36.91015625 317.547851562 36.91015625 287.881835938 c 0
 36.91015625 254.247036284 64.4009030777 227.867797791 96.8433615148 227.867797791 c 0
 100.194764449 227.867797791 103.599009611 228.149304035 107.03125 228.733398438 c 0
 130.212890625 232.677734375 208.495117188 235.283203125 286.1875 235.283203125 c 0
EndSplineSet
EndChar

StartChar: longhyphen
Encoding: 267 -1 106
Width: 500
VWidth: 0
Flags: HW
LayerCount: 2
Fore
SplineSet
350.26171875 308.052734375 m 0
 470.224609375 308.052734375 533.359375 305.780273438 535.208984375 305.780273438 c 0
 568.32421875 305.780273438 595.208984375 332.665039062 595.208984375 365.780273438 c 0
 595.208984375 397.797851562 570.076171875 423.991210938 538.479492188 425.692382812 c 0
 523.623216909 426.492043355 439.39286788 428.121748531 348.182853142 428.121748531 c 0
 252.150288381 428.121748531 148.380473677 426.315152513 109.697265625 419.831054688 c 0
 81.322265625 415.075195312 59.671875 390.375 59.671875 360.658203125 c 0
 59.671875 327.54296875 86.556640625 300.658203125 119.671875 300.658203125 c 0
 131.677734375 300.658203125 144.081054688 308.052734375 350.26171875 308.052734375 c 0
EndSplineSet
EndChar
